<svg xmlns="http://www.w3.org/2000/svg" viewBox="0 0 300.95 44.25"><defs><style>.cls-1{fill:#fff;}</style></defs><title>Asset 1</title><g id="Layer_2" data-name="Layer 2"><g id="Layer_1-2" data-name="Layer 1"><path class="cls-1" d="M57.57,1.88c-.61,6.49-3.12,19-15.38,28L48.74,0,44.09,1.8C37,4.6,26.68,6.51,26.68,14.54A6.94,6.94,0,0,0,34,21.65v-4.1a3,3,0,0,1-3.12-3.17c0-4.54,7.22-6.13,11.72-7.91L36.14,35.64H41C59.76,24.93,61.67,7.8,62.2,1.19Z"/><path class="cls-1" d="M68,11.82a2.84,2.84,0,1,0,0-5.68,2.84,2.84,0,0,0,0,5.68Z"/><path class="cls-1" d="M94.66,11.82a2.84,2.84,0,1,0,0-5.68,2.84,2.84,0,0,0,0,5.68Z"/><path class="cls-1" d="M105.54,29.42c-1.67,1.93-3.27,3.1-4.55,3.1-.94,0-1.87-.57,0-5.19l5.36-13.28h3.45l1-2.56H107.4L109.59,6h-5l-2.19,5.47H98.8l-1.06,2.55h3.61L97.21,24.36c-2.75,4.65-5.75,8.16-7.62,8.16-.81,0-1.58-.73.2-5.2l5.36-13.27h-5L86,24.35c-1.79,3.07-3.88,6-6,7.24a9.62,9.62,0,0,0,.37-2.89c0-2.43-.9-9,.4-14.65L76,14c-1.56,3.26-3.79,7.49-5.29,10.08-2.8,4.79-5.89,8.44-7.79,8.44-.81,0-1.59-.73.2-5.2l5.36-13.27h-5L58.75,25.86c-3,7.31-.73,9.78,2.67,9.79,4.27,0,8-4.59,11.21-10.19.93-1.67,2.07-3.82,3.12-5.89-.08,2.8.16,5.68.16,7.63,0,3.86-.85,5-2.35,5a2.44,2.44,0,0,1-2-.94l-2.68,1.67c.17.4,1.95,2.75,6,2.76A11.78,11.78,0,0,0,84,31.37c-.07,3.11,1.71,4.28,4.06,4.27,2.57,0,5-1.68,7.15-4.24-.06,3.07,1.71,4.24,4.21,4.24A8.24,8.24,0,0,0,104.17,34C106.85,32.14,106.77,28,105.54,29.42Z"/><path class="cls-1" d="M147.26,35l8.64-21.52a17,17,0,0,0,1.54-5.64,3.53,3.53,0,0,0-3.81-3.73A11.47,11.47,0,0,0,146,8a3.55,3.55,0,0,0-3.81-3.81A10.93,10.93,0,0,0,135.61,7L132,3.78c-7.79,3.37-19,5-19,13.4a6.94,6.94,0,0,0,7.3,7.1v-4.1A3,3,0,0,1,117.19,17c0-4.55,7.34-6.13,12.82-8.32L119.18,35.64h5l9.33-23.26c2-2.11,4.51-3.57,6-3.57,1,0,1.17.52,1.17,1.09,0,.85-.85,2.89-1.78,5.2l-8.28,20.53h5l9.29-23.13c2-2.23,4.55-3.69,6-3.69.94,0,1.18.52,1.18,1.09,0,.86-.86,2.88-1.83,5.2l-7.55,18.75c-1.7,4.59-.61,8.32,4.38,10.39l1.63-4.1C146.49,38.89,146.41,37.39,147.26,35Z"/><path class="cls-1" d="M168.84,30.18a10.17,10.17,0,0,1-6.08,2.34c-5.16,0-3.17-5.52-3.17-5.52,6,.73,9.38-.77,11.32-4.95,2.44-5.2-.2-8.53-4.38-8.53-7.42,0-12,10-12,15.63,0,4.18,2.39,6.5,7,6.49a13.3,13.3,0,0,0,7.66-2.43C172.13,31.21,170.76,28.72,168.84,30.18Zm-2.59-12.6c1.38,0,1.42,1.14.44,3.29s-2.43,4.1-6.25,3.45C160.44,24.32,162.88,17.58,166.25,17.58Z"/><path class="cls-1" d="M221.7,4.75a1.86,1.86,0,0,1,.51-1.32L225.07.56A2.15,2.15,0,0,1,226.4,0h13.24A2.06,2.06,0,0,1,241,.56l2.86,2.87a1.78,1.78,0,0,1,.56,1.32h0a.22.22,0,0,1,0,.11v5.36a.76.76,0,0,1-.71.72H237.6a.74.74,0,0,1-.72-.72V8.9a.56.56,0,0,0-.15-.36l-.87-.87a.58.58,0,0,0-.36-.16h-5a.76.76,0,0,0-.36.16l-.82.87a.49.49,0,0,0-.2.36V27.15c.05.1.05.25.2.35l.72.72H236l.72-.72a.54.54,0,0,0,.15-.35V25.61a.73.73,0,0,1,.72-.71h6.08a.76.76,0,0,1,.71.71v5.78c0,.25,0,.41-.56.92L241,35.17a2.06,2.06,0,0,1-1.33.56H226.4a2.06,2.06,0,0,1-1.33-.56l-2.86-2.86A2.1,2.1,0,0,1,221.7,31Z"/><path class="cls-1" d="M273.79,29v6.08a.74.74,0,0,1-.76.72H252.58a.75.75,0,0,1-.77-.72V.77h.05a.73.73,0,0,1,.72-.57h6a.73.73,0,0,1,.72.57v27.5H273A.77.77,0,0,1,273.79,29Z"/><path class="cls-1" d="M288.42,14.16h9.05a.7.7,0,0,1,.71.72V21a.7.7,0,0,1-.71.72h-9.05v6.59h11.81A.74.74,0,0,1,301,29v6.08a.74.74,0,0,1-.72.72H281.62a.7.7,0,0,1-.71-.72V.77a.7.7,0,0,1,.71-.72h18.61a.74.74,0,0,1,.72.72V6.85a.74.74,0,0,1-.72.72H288.42Z"/><path class="cls-1" d="M193.72,24.93c-3.29,5.67-7.13,10.31-11.51,10.31-3.5,0-5.79-2.51-2.75-9.9l4.88-11.95h5.13L184,26.82c-1.84,4.52-1.05,5.26-.21,5.26,2,0,5.12-3.7,8-8.54A2.64,2.64,0,0,1,193.72,24.93ZM186.05,8.26A2.87,2.87,0,0,1,189,5.39a2.92,2.92,0,0,1,3,2.87,3,3,0,0,1-3,2.88A2.91,2.91,0,0,1,186.05,8.26Z"/><path class="cls-1" d="M215.81,24.93c-3.33,5.71-7.17,10.31-11.58,10.31-3.76,0-5.63-2.75-2.67-9.94l1.29-3.24a18.66,18.66,0,0,0,1.46-4.15c0-.57-.5-.9-1.13-.9-1.08,0-3.08.94-4.87,2.95L192.26,34.7h-5.13l8.72-21.31H201l-.87,2.14a9.93,9.93,0,0,1,6.17-2.67,3.18,3.18,0,0,1,3.5,3.29,14.5,14.5,0,0,1-1.33,4.92l-2.38,5.75c-2,4.8-.92,5.26-.25,5.26,2,0,5.17-3.7,8.05-8.54A2.64,2.64,0,0,1,215.81,24.93Z"/><path class="cls-1" d="M18.33,19.16l-2.44,5.92h4.18L19,27.66H14.85l-2.13,5.23H9.58l2.13-5.23H7.29L5.15,32.89H2l2.14-5.23H0l1.1-2.58H5.22l2.41-5.92H3.51l1.06-2.58H8.69l2.14-5.23H14l-2.14,5.23h4.4l2.13-5.23h3.17L19.4,16.58h4.15l-1,2.58Zm-3.14,0H10.77L8.36,25.08h4.42Z"/></g></g></svg>