<svg xmlns="http://www.w3.org/2000/svg" viewBox="0 0 213.66 101.71"><defs><style>.cls-1{fill:#231f20;}</style></defs><title>Asset 2</title><g id="Layer_2" data-name="Layer 2"><g id="Layer_1-2" data-name="Layer 1"><path class="cls-1" d="M16.38,87.21c-10.4-15.78,6.71-37,22.54-40.5l4.8,5.95-3.24,9,8.09-3,3.07-7.51L44.21,42c-.86.31-58.64,13.55-40.79,47,19.2,36,80.75-17,105-6.19l3.08-10.38C79.14,66.45,35.06,115.58,16.38,87.21Z"/><path class="cls-1" d="M48.52,84.94c3.52.21,7.93-5.64,10.25-9.14a7,7,0,0,0,.72,1.27c3.7,5.27,10.45,4,17.67-8.84,9.46-15.56-2.26,8.69,8.09,4.93,9.36-3.39,13.53-24.71,13.53-24.71l-5.91,2C91,68.56,84.12,70.29,84.12,70.29s3-5.81,3-10.65S85.56,53,84,53.39c-3,.73-5,8.41-9.09,14.23-1.21,1.7-8.55,10.29-9.57,3.76,0,0,12.49-4.38,8.42-13.08C71.55,53.68,58,64.75,58.23,72.37c0,.28-3.1,5.83-4.78,5.74C51.41,78,63.37,48,63.37,48l-7.13,2.28L45.79,78.57S43.52,84.63,48.52,84.94ZM71.09,61.49c.69,4.09-4.43,6.73-4.43,6.73C64.15,68.24,70.64,58.75,71.09,61.49Z"/><path class="cls-1" d="M193.69,31.31C191.64,31.19,203,1.74,203,1.74l-7.13,2.39-5.15,14.44h0l-.7,1.61c-4.59-3.31-12.42,3.38-15.48,10.75a18.39,18.39,0,0,0-.83,2.64c-1.28,3.84-4.57,9-5.63,8.6-3.32-1.28,5.57-14.08,2.31-16.1-3.83-2.37-10.22,5.59-10.22,5.59l1.14-3.28L156.45,30l-4.23,12.11c-1.84,4.3-4,7.89-6.16,7.46-3.31-.67,5-17.85,5-17.85l-5.93,2-.7,1.62C139.84,32,132,38.64,129,46a40.76,40.76,0,0,1-4.52,6.76c-.86,1-1.55,1.6-1.86,1.58-2-.12,9.35-28.93,9.35-28.93L124.8,27.7l-8,22.36-.31.73s-10.68,17-12.09,8c0,0,12.5-4.38,8.42-13.08-2.5-5.35-20.48,9.86-14.22,18.77,3.4,4.85,8.81,3,15.86-7.34a6.47,6.47,0,0,0,0,1c.1,1.67.83,3.63,3.26,3.57,1.95,0,4.56-2.52,5.77-3.88a43.35,43.35,0,0,0,4.23-5.4c-.19,1.79.09,4.34,1.91,5,4.89,1.74,9.92-4.58,11.44-6.71h0c1.91,7.33,7.72-.33,8.88-2l-1.14,3.47,5.7-1.92c2.11-5.76,4.91-15.47,9.72-16.26,3-.49-3.57,9.5.54,11.91,3.77,2.22,7.88-4.82,8.71-5.79a2.93,2.93,0,0,0,1.73,2.18c4.25,1.51,8.6-3.05,10.67-5.67a3.11,3.11,0,0,0,2.92,1.86c6.87.46,11.83-12.24,11.83-12.24l-1.82.31S195.74,31.43,193.69,31.31ZM110.18,48.84c.68,4.1-4.44,6.74-4.44,6.74C103.24,55.6,109.72,46.11,110.18,48.84Zm31-4.69c-5.59,10.94-11.58,7.14-6.56-.89,4.45-7.13,8.67-4.7,8.67-4.7Zm39-16c4.46-7.13,8.67-4.7,8.67-4.7l-2.1,5.6C181.17,40,175.17,36.21,180.19,28.18Z"/><path class="cls-1" d="M210.41,0a3.25,3.25,0,1,1-3.25,3.25A3.26,3.26,0,0,1,210.41,0Zm0,5.87a2.62,2.62,0,1,0-2.63-2.62A2.62,2.62,0,0,0,210.41,5.87Zm-1.17-4.11a.17.17,0,0,1,.17-.17h1.34a1.06,1.06,0,0,1,1.11,1.07,1,1,0,0,1-.69,1c.17.34.33.68.48,1a.17.17,0,0,1-.15.25h-.41a.19.19,0,0,1-.16-.13l-.45-1.06h-.56v1a.17.17,0,0,1-.17.17h-.34a.17.17,0,0,1-.17-.17Zm1.46,1.35a.44.44,0,0,0,.46-.44.43.43,0,0,0-.46-.45h-.8v.89Z"/></g></g></svg>