<svg id="Layer_1" data-name="Layer 1" xmlns="http://www.w3.org/2000/svg" viewBox="0 0 414 113.82"><defs><style>.cls-1{fill:#fff;}</style></defs><title>glasses-half-full</title><path class="cls-1" d="M34.74,43.19a.57.57,0,0,1-.58.58H29.27a.6.6,0,0,1-.62-.58l-.16-10.47L25.3,43.27a.9.9,0,0,1-.75.58H21.24a1,1,0,0,1-.79-.58L17.31,32.72,17.1,43.19a.57.57,0,0,1-.58.58H11.59a.58.58,0,0,1-.57-.58l1.11-27.66v-.12a.59.59,0,0,1,.25-.37s0,0,.08,0a.15.15,0,0,0,.13-.05h5.26c.33,0,.49.21.62.54l3.72,16L22.65,35,23,31.47l4.35-16A.59.59,0,0,1,28,15h5.26a.13.13,0,0,0,.12.05,0,0,0,0,0,0,0,.55.55,0,0,1,.25.37v.08a0,0,0,0,1,0,0Z" transform="translate(-10 -14.82)"/><path class="cls-1" d="M51.12,34.25l-2.49-8.49-2.52,8.49Zm8.73,8.94c.09.29-.29.58-.62.58H54.51a.89.89,0,0,1-.74-.58l-1-3.35H44.45l-1,3.35a.92.92,0,0,1-.75.58H38c-.33,0-.7-.29-.62-.58l8.2-27.74v0c.16-.37.29-.58.58-.58h4.93c.28,0,.45.21.58.58v0c2.73,9.23,5.46,18.51,8.19,27.74" transform="translate(-10 -14.82)"/><path class="cls-1" d="M80.6,15.57a1.32,1.32,0,0,1-.21.38L72.9,30.48V43.19a.57.57,0,0,1-.58.58H67.39a.59.59,0,0,1-.58-.58V30.48L59.32,16a1.74,1.74,0,0,1-.17-.38c-.12-.29.25-.58.58-.58h5.34a.9.9,0,0,1,.75.58l4.06,8.08,4-8.08a1,1,0,0,1,.79-.58H80c.33,0,.7.29.62.58" transform="translate(-10 -14.82)"/><path class="cls-1" d="M102.71,20.92a.27.27,0,0,0-.24.12l-.71.66a.63.63,0,0,0-.12.33V36.82a.53.53,0,0,0,.12.28l.58.58h4.8l.58-.58a.32.32,0,0,0,.13-.28V22a.37.37,0,0,0-.13-.33l-.66-.66a.39.39,0,0,0-.29-.12Zm11.23,19a1.37,1.37,0,0,1-.42,1.08l-2.36,2.32a1.45,1.45,0,0,1-1,.45H99.4a1.52,1.52,0,0,1-1.08-.45L96,41a1.5,1.5,0,0,1-.46-1.08V18.68A1.5,1.5,0,0,1,96,17.6l2.31-2.31a1.33,1.33,0,0,1,1.08-.46h10.69a1.31,1.31,0,0,1,1.07.46l2.36,2.31a1.37,1.37,0,0,1,.42,1.08Z" transform="translate(-10 -14.82)"/><path class="cls-1" d="M137.21,39.92a1.37,1.37,0,0,1-.42,1.08l-2.32,2.32a1.49,1.49,0,0,1-1.07.45l-10.73,0a1.36,1.36,0,0,1-1.07-.41L119.28,41a1.5,1.5,0,0,1-.46-1.08h.05s-.05,0-.05-.08V15.41a.59.59,0,0,1,.58-.58h4.93a.57.57,0,0,1,.58.58V36.82a.7.7,0,0,0,.12.28l.58.58h4.81l.58-.58c.12-.12.12-.24.16-.28V15.41a.57.57,0,0,1,.58-.58h4.89a.57.57,0,0,1,.58.58Z" transform="translate(-10 -14.82)"/><path class="cls-1" d="M148.38,27h4.34a.39.39,0,0,0,.29-.12l.67-.66a.38.38,0,0,0,.12-.33V22a.38.38,0,0,0-.12-.33L153,21a.37.37,0,0,0-.33-.12h-4.3Zm11.51,2.24a1.37,1.37,0,0,1-.42,1.08l-2.36,2.36-.12.08,4.22,10.39c.08.29-.29.58-.58.58h-5.55a.89.89,0,0,1-.74-.58l-4.06-10.06h-1.9V43.19a.59.59,0,0,1-.58.58h-4.93a.62.62,0,0,1-.58-.58V15.41a.59.59,0,0,1,.58-.58H156a1.37,1.37,0,0,1,1.07.41l2.36,2.36a1.51,1.51,0,0,1,.42,1.16Z" transform="translate(-10 -14.82)"/><path class="cls-1" d="M187.13,33.17a.59.59,0,0,1-.58-.58V27.66a.57.57,0,0,1,.58-.58h8.2a.6.6,0,0,1,.62.58V40.25h0a1.49,1.49,0,0,1-.41.75l-2.32,2.32a1.52,1.52,0,0,1-1.08.45H181.38a1.52,1.52,0,0,1-1.08-.45L178,41a1.38,1.38,0,0,1-.41-1.08l0,0V18.68h0A1.38,1.38,0,0,1,178,17.6l2.32-2.31a1.5,1.5,0,0,1,1.08-.46H192.1a1.5,1.5,0,0,1,1.08.46l2.32,2.31a1.52,1.52,0,0,1,.45,1.08h0l0,0v4.39a.63.63,0,0,1-.62.58h-4.88a.59.59,0,0,1-.58-.58V22a.45.45,0,0,0-.13-.29L189,21a.31.31,0,0,0-.29-.12h-4a.36.36,0,0,0-.29.12l-.66.7a.4.4,0,0,0-.17.29V36.82a.9.9,0,0,0,.17.28l.54.58h4.84l.58-.58a.56.56,0,0,0,.13-.28V33.17Z" transform="translate(-10 -14.82)"/><path class="cls-1" d="M218.69,38.26v4.93a.6.6,0,0,1-.62.58H201.51a.6.6,0,0,1-.62-.58V15.41h0a.59.59,0,0,1,.58-.46h4.88a.59.59,0,0,1,.58.46V37.68h11.1a.63.63,0,0,1,.62.58" transform="translate(-10 -14.82)"/><path class="cls-1" d="M235.59,34.25l-2.48-8.49-2.53,8.49Zm8.74,8.94c.08.29-.29.58-.62.58H239a.89.89,0,0,1-.75-.58l-1-3.35h-8.32l-1,3.35a.89.89,0,0,1-.75.58h-4.72c-.33,0-.7-.29-.62-.58L230,15.45v0c.17-.37.29-.58.58-.58h4.93c.29,0,.46.21.58.58v0c2.73,9.23,5.46,18.51,8.2,27.74" transform="translate(-10 -14.82)"/><path class="cls-1" d="M266.57,18.68l0,0V23a.6.6,0,0,1-.62.58H261.1a.57.57,0,0,1-.58-.58V20.92h-5.13a.35.35,0,0,0-.29.12l-.66.66a.51.51,0,0,0-.17.33v3.36l0,0a.37.37,0,0,0,.13.33l.58.58h7.74a1.3,1.3,0,0,1,1.08.45L266.15,29a1.5,1.5,0,0,1,.46,1.08v9.81a1.5,1.5,0,0,1-.46,1.08l-2.31,2.31a1.5,1.5,0,0,1-1.08.46H252a1.49,1.49,0,0,1-1.08-.46L248.64,41a1.34,1.34,0,0,1-.41-1.08s0,0,0-.08v-4a.61.61,0,0,1,.63-.58h4.88a.57.57,0,0,1,.58.58v1.86h5.22c.08,0,.12,0,.21-.12l.7-.66a.63.63,0,0,0,.12-.33V33.46a.63.63,0,0,0-.12-.33l-.7-.66c-.09-.08-.13-.13-.21-.13H252a1.46,1.46,0,0,1-1.08-.45l-2.32-2.32a1.34,1.34,0,0,1-.41-1.08h0V18.68h0a1.34,1.34,0,0,1,.41-1.08L251,15.28a1.33,1.33,0,0,1,1.08-.45h10.72a1.34,1.34,0,0,1,1.08.45l2.31,2.32a1.5,1.5,0,0,1,.46,1.08Z" transform="translate(-10 -14.82)"/><path class="cls-1" d="M289.76,18.68l0,0V23a.6.6,0,0,1-.62.58h-4.89a.57.57,0,0,1-.58-.58V20.92h-5.13a.35.35,0,0,0-.29.12l-.66.66a.51.51,0,0,0-.17.33v3.36l0,0a.37.37,0,0,0,.13.33l.57.58H286a1.3,1.3,0,0,1,1.08.45L289.34,29a1.5,1.5,0,0,1,.46,1.08v9.81a1.5,1.5,0,0,1-.46,1.08L287,43.31a1.5,1.5,0,0,1-1.08.46H275.23a1.49,1.49,0,0,1-1.08-.46L271.83,41a1.37,1.37,0,0,1-.42-1.08.14.14,0,0,1,0-.08v-4a.6.6,0,0,1,.62-.58h4.89a.57.57,0,0,1,.58.58v1.86h5.22c.08,0,.12,0,.2-.12l.71-.66a.63.63,0,0,0,.12-.33V33.46a.63.63,0,0,0-.12-.33l-.71-.66c-.08-.08-.12-.13-.2-.13h-7.45a1.46,1.46,0,0,1-1.08-.45l-2.32-2.32a1.37,1.37,0,0,1-.42-1.08h0V18.68h0a1.37,1.37,0,0,1,.42-1.08l2.32-2.32a1.33,1.33,0,0,1,1.08-.45H286a1.34,1.34,0,0,1,1.08.45l2.31,2.32a1.5,1.5,0,0,1,.46,1.08Z" transform="translate(-10 -14.82)"/><path class="cls-1" d="M300.77,26.26h7.33a.56.56,0,0,1,.58.58v4.92a.57.57,0,0,1-.58.58h-7.33v5.35h9.57a.58.58,0,0,1,.58.57v4.93a.59.59,0,0,1-.58.58H295.27a.57.57,0,0,1-.58-.58V15.41a.57.57,0,0,1,.58-.58h15.07a.59.59,0,0,1,.58.58v4.93a.59.59,0,0,1-.58.58h-9.57Z" transform="translate(-10 -14.82)"/><path class="cls-1" d="M334.09,18.68l0,0V23a.61.61,0,0,1-.63.58h-4.88A.57.57,0,0,1,328,23V20.92h-5.13a.34.34,0,0,0-.29.12l-.67.66a.53.53,0,0,0-.16.33v3.36l0,0a.38.38,0,0,0,.12.33l.58.58h7.75a1.27,1.27,0,0,1,1.07.45L333.67,29a1.5,1.5,0,0,1,.46,1.08v9.81a1.5,1.5,0,0,1-.46,1.08l-2.32,2.31a1.48,1.48,0,0,1-1.07.46H319.55a1.48,1.48,0,0,1-1.07-.46L316.16,41a1.37,1.37,0,0,1-.42-1.08.14.14,0,0,1,0-.08v-4a.6.6,0,0,1,.62-.58h4.89a.57.57,0,0,1,.58.58v1.86H327c.09,0,.13,0,.21-.12l.71-.66a.63.63,0,0,0,.12-.33V33.46a.63.63,0,0,0-.12-.33l-.71-.66c-.08-.08-.12-.13-.21-.13h-7.45a1.44,1.44,0,0,1-1.07-.45l-2.32-2.32a1.37,1.37,0,0,1-.42-1.08h0V18.68h0a1.37,1.37,0,0,1,.42-1.08l2.32-2.32a1.31,1.31,0,0,1,1.07-.45h10.73a1.31,1.31,0,0,1,1.07.45l2.32,2.32a1.5,1.5,0,0,1,.46,1.08Z" transform="translate(-10 -14.82)"/><path class="cls-1" d="M24.51,78.7,22,70.22,19.5,78.7Zm8.74,9c.08.29-.29.58-.62.58H27.91a.92.92,0,0,1-.75-.58l-1-3.36H17.85l-1,3.36a.89.89,0,0,1-.74.58H11.39c-.33,0-.71-.29-.62-.58L19,59.91v0c.16-.37.28-.58.57-.58h4.93c.29,0,.46.21.58.58v0l8.2,27.74" transform="translate(-10 -14.82)"/><path class="cls-1" d="M55.37,82.72v4.93a.6.6,0,0,1-.62.58H38.19a.6.6,0,0,1-.62-.58V59.87h0a.59.59,0,0,1,.58-.46h4.89a.59.59,0,0,1,.58.46V82.14H54.75a.63.63,0,0,1,.62.58" transform="translate(-10 -14.82)"/><path class="cls-1" d="M79,87.61v.12a.55.55,0,0,1-.25.37s0,0-.08,0a.17.17,0,0,1-.13,0,.14.14,0,0,1-.08,0H73.32c-.28,0-.49-.25-.57-.58l-2.9-10.44-.29-2.07-.25,2.07L66.08,87.65c-.13.37-.29.58-.62.58H60.28s0,0-.08,0-.08,0-.12,0,0,0,0,0a.39.39,0,0,1-.24-.37,0,0,0,0,1,0,0v-.08L57.55,60a.59.59,0,0,1,.58-.58H63a.63.63,0,0,1,.62.58l1,14.07L67,67.61a.89.89,0,0,1,.75-.58h3.31a1,1,0,0,1,.78.58L74.15,74l1-14.07a.59.59,0,0,1,.58-.58H80.7a.62.62,0,0,1,.58.58Z" transform="translate(-10 -14.82)"/><path class="cls-1" d="M96.63,78.7l-2.49-8.48L91.62,78.7Zm8.73,9c.09.29-.29.58-.62.58H100a.89.89,0,0,1-.74-.58l-1-3.36H90l-1,3.36a.92.92,0,0,1-.75.58H83.5c-.33,0-.7-.29-.62-.58l8.2-27.74v0c.16-.37.29-.58.58-.58h4.93c.28,0,.45.21.58.58v0c2.73,9.23,5.46,18.5,8.19,27.74" transform="translate(-10 -14.82)"/><path class="cls-1" d="M126.11,60a1.13,1.13,0,0,1-.21.37l-7.49,14.54V87.65a.57.57,0,0,1-.58.58H112.9a.59.59,0,0,1-.58-.58V74.94L104.83,60.4a1.44,1.44,0,0,1-.17-.37c-.12-.29.25-.58.58-.58h5.34a.92.92,0,0,1,.75.58l4.06,8.07,4-8.07a1,1,0,0,1,.79-.58h5.3c.33,0,.7.29.62.58" transform="translate(-10 -14.82)"/><path class="cls-1" d="M147.45,63.14l.05,0v4.26a.61.61,0,0,1-.63.58H142a.57.57,0,0,1-.58-.58V65.37h-5.13a.33.33,0,0,0-.29.13l-.67.66a.51.51,0,0,0-.16.33v3.35l0,0a.37.37,0,0,0,.12.33l.58.58h7.75a1.3,1.3,0,0,1,1.07.46L147,73.49a1.48,1.48,0,0,1,.46,1.07v9.82a1.48,1.48,0,0,1-.46,1.07l-2.32,2.32a1.48,1.48,0,0,1-1.07.46H132.92a1.48,1.48,0,0,1-1.07-.46l-2.32-2.32a1.35,1.35,0,0,1-.42-1.07.19.19,0,0,1,0-.09v-4a.6.6,0,0,1,.62-.58h4.89a.56.56,0,0,1,.58.58v1.86h5.21c.09,0,.13,0,.21-.12l.71-.67a.6.6,0,0,0,.12-.33v-3.1a.65.65,0,0,0-.12-.34l-.71-.66c-.08-.08-.12-.12-.21-.12h-7.45a1.48,1.48,0,0,1-1.07-.46L129.53,74a1.35,1.35,0,0,1-.42-1.07h0V63.14h0a1.37,1.37,0,0,1,.42-1.08l2.32-2.32a1.27,1.27,0,0,1,1.07-.45h10.73a1.27,1.27,0,0,1,1.07.45L147,62.06a1.5,1.5,0,0,1,.46,1.08Z" transform="translate(-10 -14.82)"/><path class="cls-1" d="M171.18,82.14h4.72l.59-.58a.56.56,0,0,0,.12-.29V77.92a.45.45,0,0,0-.12-.29l-.71-.71a.46.46,0,0,0-.25-.12h-4.35Zm0-16.77v5.34h4.72l.59-.58a.53.53,0,0,0,.12-.29V66.49a.45.45,0,0,0-.12-.29l-.71-.7a.28.28,0,0,0-.25-.13Zm11.06,7.08-1.62,1.66,1.62,1.61a1.34,1.34,0,0,1,.41.75h0v7.91a1.48,1.48,0,0,1-.46,1.07l-2.32,2.32a1.5,1.5,0,0,1-1.08.46H165.68a.57.57,0,0,1-.58-.58V59.87a.57.57,0,0,1,.58-.59h13.16a1.5,1.5,0,0,1,1.08.46l2.32,2.32a1.5,1.5,0,0,1,.46,1.08v8.23a1.49,1.49,0,0,1-.46,1.08" transform="translate(-10 -14.82)"/><path class="cls-1" d="M193.71,70.71H201a.57.57,0,0,1,.58.58v4.93a.57.57,0,0,1-.58.58h-7.33v5.34h9.56a.59.59,0,0,1,.58.58v4.93a.59.59,0,0,1-.58.58H188.2a.57.57,0,0,1-.58-.58V59.86a.57.57,0,0,1,.58-.58h15.07a.59.59,0,0,1,.58.58v4.93a.59.59,0,0,1-.58.58h-9.56Z" transform="translate(-10 -14.82)"/><path class="cls-1" d="M239.88,59.86V87.65a.57.57,0,0,1-.58.58h-4.93a.59.59,0,0,1-.58-.58V76.8h-6.21V87.65a.59.59,0,0,1-.58.58h-4.92a.57.57,0,0,1-.58-.58V59.86a.57.57,0,0,1,.58-.58H227a.59.59,0,0,1,.58.58V70.71h6.21V59.86a.59.59,0,0,1,.58-.58h4.93a.57.57,0,0,1,.58.58" transform="translate(-10 -14.82)"/><path class="cls-1" d="M257.34,78.7l-2.48-8.48-2.53,8.48Zm8.74,9c.08.29-.29.58-.62.58h-4.72a.92.92,0,0,1-.75-.58l-1-3.36h-8.32l-1,3.36a.89.89,0,0,1-.74.58h-4.72c-.33,0-.71-.29-.62-.58l8.19-27.74v0c.17-.37.29-.58.58-.58h4.93c.29,0,.46.21.58.58v0l8.2,27.74" transform="translate(-10 -14.82)"/><path class="cls-1" d="M288.2,82.72v4.93a.6.6,0,0,1-.62.58H271a.6.6,0,0,1-.62-.58V59.87h0a.59.59,0,0,1,.58-.46h4.89a.59.59,0,0,1,.58.46V82.14h11.09a.63.63,0,0,1,.62.58" transform="translate(-10 -14.82)"/><path class="cls-1" d="M308.69,59.86v4.93a.53.53,0,0,1-.33.5v.08h-9.81v5.34h7.33a.57.57,0,0,1,.58.58v4.93a.6.6,0,0,1-.29.5v.08h-7.62V87.65a.57.57,0,0,1-.58.58H293a.57.57,0,0,1-.58-.58V59.86a.57.57,0,0,1,.58-.58h15.07a.59.59,0,0,1,.58.58" transform="translate(-10 -14.82)"/><path class="cls-1" d="M342.57,59.86v4.93a.54.54,0,0,1-.34.5v.08h-9.81v5.34h7.33a.57.57,0,0,1,.58.58v4.93a.6.6,0,0,1-.29.5v.08h-7.62V87.65a.57.57,0,0,1-.58.58h-4.93a.56.56,0,0,1-.57-.58V59.86a.56.56,0,0,1,.57-.58H342a.6.6,0,0,1,.59.58" transform="translate(-10 -14.82)"/><path class="cls-1" d="M365.79,84.38a1.36,1.36,0,0,1-.41,1.07l-2.32,2.32a1.5,1.5,0,0,1-1.08.46l-10.72,0a1.34,1.34,0,0,1-1.08-.41l-2.32-2.32a1.49,1.49,0,0,1-.45-1.07h0s0,0,0-.09V59.87a.59.59,0,0,1,.58-.58h4.92a.56.56,0,0,1,.58.58v21.4a.79.79,0,0,0,.13.29l.58.58H359l.58-.58c.12-.12.12-.25.17-.29V59.87a.55.55,0,0,1,.57-.58h4.89a.56.56,0,0,1,.58.58Z" transform="translate(-10 -14.82)"/><path class="cls-1" d="M388.7,82.72v4.93a.6.6,0,0,1-.62.58H371.52a.61.61,0,0,1-.63-.58V59.87h.05a.59.59,0,0,1,.58-.46h4.88a.59.59,0,0,1,.58.46V82.14h11.1a.63.63,0,0,1,.62.58" transform="translate(-10 -14.82)"/><path class="cls-1" d="M410.8,82.72v4.93a.6.6,0,0,1-.62.58H393.62a.6.6,0,0,1-.62-.58V59.87h0a.59.59,0,0,1,.58-.46h4.88a.6.6,0,0,1,.59.46V82.14h11.09a.63.63,0,0,1,.62.58" transform="translate(-10 -14.82)"/><path class="cls-1" d="M424,87.65a.57.57,0,0,1-.58.49h-4.89a.57.57,0,0,1-.57-.49V82.06a.56.56,0,0,1,.57-.58h4.89a.57.57,0,0,1,.58.58Z" transform="translate(-10 -14.82)"/><path class="cls-1" d="M17,128.64c-4.56-2.43-6.95-6-6.95-10.72s2.39-8.31,7-10.72L18.13,109c-3.79,2.05-5.65,4.91-5.65,8.93s1.86,6.86,5.65,8.9Z" transform="translate(-10 -14.82)"/><path class="cls-1" d="M32.4,107.7h6.31v2.59H37v6.77c0,4.77-2.7,6.9-6.7,6.9s-6.61-2.13-6.61-6.9v-6.77H21.9V107.7h6.32v2.59H26.47v6.77c0,3,1.38,4.31,3.79,4.31s3.89-1.27,3.89-4.34v-6.74H32.4Z" transform="translate(-10 -14.82)"/><polygon class="cls-1" points="44.32 92.88 50.63 92.88 50.63 95.46 48.88 95.46 48.88 108.84 46.77 108.84 38.12 98.37 38.12 106.25 39.87 106.25 39.87 108.84 33.55 108.84 33.55 106.25 35.3 106.25 35.3 95.46 33.55 95.46 33.55 92.88 36.96 92.88 46.07 103.53 46.07 95.46 44.32 95.46 44.32 92.88"/><polygon class="cls-1" points="58.38 106.25 60.1 106.25 60.1 95.46 57.18 95.46 57.18 97.24 54.77 97.24 54.77 92.88 68.19 92.88 68.19 97.24 65.78 97.24 65.78 95.46 62.95 95.46 62.95 106.25 64.69 106.25 64.69 108.84 58.38 108.84 58.38 106.25"/><polygon class="cls-1" points="72.6 92.88 78.91 92.88 78.91 95.46 77.17 95.46 77.17 106.25 78.91 106.25 78.91 108.84 72.6 108.84 72.6 106.25 74.35 106.25 74.35 95.46 72.6 95.46 72.6 92.88"/><polygon class="cls-1" points="84.16 108.84 84.16 106.25 85.91 106.25 85.91 95.47 84.16 95.47 84.16 92.88 91.16 92.88 91.16 95.47 88.73 95.47 88.73 106.25 93.88 106.25 93.88 104.48 96.29 104.48 96.29 108.84 84.16 108.84"/><polygon class="cls-1" points="113.87 95.46 112.26 95.46 114.56 103.5 118.51 92.88 120.12 92.88 124.12 103.48 124.12 103.53 126.39 95.46 124.71 95.46 124.71 92.88 131.25 92.88 131.25 95.46 129.38 95.46 125.32 108.84 123.43 108.84 119.28 98.26 115.19 108.84 113.33 108.84 109.22 95.46 107.33 95.46 107.33 92.88 113.87 92.88 113.87 95.46"/><polygon class="cls-1" points="144.81 97.24 144.81 95.46 139.66 95.46 139.66 99.94 143.52 99.94 143.52 102.44 139.66 102.44 139.66 106.25 144.81 106.25 144.81 104.48 147.22 104.48 147.22 108.84 135.09 108.84 135.09 106.25 136.84 106.25 136.84 95.46 135.09 95.46 135.09 92.88 147.22 92.88 147.22 97.24 144.81 97.24"/><polygon class="cls-1" points="171.68 97.24 171.68 95.46 166.53 95.46 166.53 99.94 170.39 99.94 170.39 102.44 166.53 102.44 166.53 106.25 171.68 106.25 171.68 104.48 174.09 104.48 174.09 108.84 161.96 108.84 161.96 106.25 163.71 106.25 163.71 95.46 161.96 95.46 161.96 92.88 174.09 92.88 174.09 97.24 171.68 97.24"/><polygon class="cls-1" points="179.29 92.88 183.13 92.88 189.38 104.44 195.47 92.88 199.3 92.88 199.3 95.46 197.17 95.46 197.47 106.25 199.28 106.25 199.28 108.84 192.99 108.84 192.99 106.25 194.76 106.25 194.72 99.21 190.13 108.84 188.47 108.84 183.84 99.37 183.79 106.25 185.59 106.25 185.59 108.84 179.29 108.84 179.29 106.25 181.11 106.25 181.43 95.46 179.29 95.46 179.29 92.88"/><path class="cls-1" d="M219.12,110.29v6.25H221c2.64,0,3.54-1.41,3.54-3.16s-.88-3.09-3.54-3.09Zm-4.57-2.59h6.64c4.24,0,6.38,2.34,6.38,5.68s-2.11,5.65-6.93,5.65h-1.52v2h2.7v2.59h-7.27v-2.59h1.75V110.29h-1.75Z" transform="translate(-10 -14.82)"/><polygon class="cls-1" points="224.84 106.25 226.56 106.25 226.56 95.46 223.64 95.46 223.64 97.24 221.23 97.24 221.23 92.88 234.65 92.88 234.65 97.24 232.24 97.24 232.24 95.46 229.4 95.46 229.4 106.25 231.15 106.25 231.15 108.84 224.84 108.84 224.84 106.25"/><polygon class="cls-1" points="243.69 95.46 242.38 95.46 245.33 100.28 248.26 95.46 246.9 95.46 246.9 92.88 253.03 92.88 253.03 95.46 251.39 95.46 246.71 102.87 246.71 106.25 248.44 106.25 248.44 108.84 242.13 108.84 242.13 106.25 243.87 106.25 243.87 102.85 239.19 95.46 237.56 95.46 237.56 92.88 243.69 92.88 243.69 95.46"/><polygon class="cls-1" points="268.48 106.25 270.2 106.25 270.2 95.46 267.27 95.46 267.27 97.24 264.86 97.24 264.86 92.88 278.29 92.88 278.29 97.24 275.88 97.24 275.88 95.46 273.04 95.46 273.04 106.25 274.79 106.25 274.79 108.84 268.48 108.84 268.48 106.25"/><polygon class="cls-1" points="293.3 92.88 299.62 92.88 299.62 95.46 297.87 95.46 297.87 106.25 299.59 106.25 299.59 108.84 293.3 108.84 293.3 106.25 295.05 106.25 295.05 102.55 287.26 102.55 287.26 106.25 288.99 106.25 288.99 108.84 282.69 108.84 282.69 106.25 284.44 106.25 284.44 95.46 282.69 95.46 282.69 92.88 289.01 92.88 289.01 95.46 287.26 95.46 287.26 100.05 295.05 100.05 295.05 95.46 293.3 95.46 293.3 92.88"/><polygon class="cls-1" points="314.59 97.24 314.59 95.46 309.43 95.46 309.43 99.94 313.29 99.94 313.29 102.44 309.43 102.44 309.43 106.25 314.59 106.25 314.59 104.48 317 104.48 317 108.84 304.87 108.84 304.87 106.25 306.62 106.25 306.62 95.46 304.87 95.46 304.87 92.88 317 92.88 317 97.24 314.59 97.24"/><polygon class="cls-1" points="322.2 92.88 326.04 92.88 332.28 104.44 338.37 92.88 342.21 92.88 342.21 95.46 340.07 95.46 340.37 106.25 342.19 106.25 342.19 108.84 335.89 108.84 335.89 106.25 337.67 106.25 337.62 99.21 333.03 108.84 331.37 108.84 326.74 99.37 326.69 106.25 328.49 106.25 328.49 108.84 322.2 108.84 322.2 106.25 324.01 106.25 324.33 95.46 322.2 95.46 322.2 92.88"/><path class="cls-1" d="M359.09,124a1.71,1.71,0,0,1,0-3.41,1.71,1.71,0,1,1,0,3.41" transform="translate(-10 -14.82)"/><path class="cls-1" d="M364.91,126.71c3.79-2,5.65-4.88,5.65-8.9S368.7,111,364.91,109l1.18-1.79c4.56,2.39,7,6,7,10.61s-2.39,8.29-7,10.72Z" transform="translate(-10 -14.82)"/></svg>