<svg id="Layer_1" data-name="Layer 1" xmlns="http://www.w3.org/2000/svg" viewBox="0 0 230.78 176.35"><defs><style>.cls-1{fill:#fff;}</style></defs><title>huddle-together</title><path class="cls-1" d="M54.35,163,53,170.15c-.13.7.17,1,.88.87l.84-.17c.68-.13,1,.18.84.84l0,.08A1.34,1.34,0,0,1,54.31,173l-.84.17a1.44,1.44,0,0,0-1.32,1.3l-1.07,5.6c-1.35,7.2-5.19,9.34-8,9.91a6.92,6.92,0,0,1-8.57-5.38,6.84,6.84,0,0,1,4.6-7.91,1.17,1.17,0,0,1,1.68,1l.07.36c.24,1.19,0,1.57-1.07,2.06a3.47,3.47,0,0,0-2,3.89,3.59,3.59,0,0,0,4.42,2.75c3.14-.63,4.57-3.91,5.43-8.49l.56-2.93c.12-.74-.18-1-.89-.9l-.74.14c-.68.14-1-.17-.84-.84l0-.07A1.35,1.35,0,0,1,47,172.4l.71-.14A1.47,1.47,0,0,0,49,170.92l1.27-6.75c.13-.73-.14-1-.9-1-3.29.32-7.08-.3-9.51.19-2.62.52-3.36,2.35-3.08,3.74A2.33,2.33,0,0,0,39.68,169a3.19,3.19,0,0,0,1.3-.6c.88-.65,1.22-.61,2,.18l.17.16a1.23,1.23,0,0,1-.05,1.93,6,6,0,0,1-2.87,1.45,5.52,5.52,0,0,1-6.65-4.32c-.6-3,1-6.6,5.66-7.52,3.2-.64,7.22.14,10.46-.34a5.92,5.92,0,0,0,3-1.45,7,7,0,0,1,1.48-1,1.2,1.2,0,0,1,1.66.58c.49.91.47,1.18-.23,2A6.73,6.73,0,0,0,54.35,163Z" transform="translate(-6.61 -13.83)"/><path class="cls-1" d="M73.6,171.62c.39-1.09,2.12-.33,1.74.79-1.1,3.25-3.19,5.75-6,6.26a1.73,1.73,0,0,0-1.57,1.05,7.73,7.73,0,0,1-4.95,3.65c-2.91.58-5.25-.84-5.91-4.14-.84-4.23.73-13.16,7-14.4,2.92-.59,5.21.77,5.86,4.07a16.28,16.28,0,0,1-.27,6.54c-.14.64.25.93.84.68C71.55,175.49,72.74,174,73.6,171.62Zm-11.23,9.07a2.47,2.47,0,0,0,1.3-.9,2.1,2.1,0,0,0,.29-2.72,3,3,0,0,1-.18-.6A2.22,2.22,0,0,1,65,174c.71-.32.84-.51,1-1.3a12.55,12.55,0,0,0,0-3.64c-.26-1.32-1-1.73-1.66-1.58-2.75.55-4.23,8.78-3.67,11.56C60.83,180.25,61.53,180.86,62.37,180.69Z" transform="translate(-6.61 -13.83)"/><path class="cls-1" d="M75.34,172.41c-.35,1.11-2.12.32-1.74-.79.45-1.3.9-2.94,1.32-4.71a2,2,0,0,0-.5-2.15,2.19,2.19,0,0,1-.56-1.1,4.19,4.19,0,0,1,1.33-3.46,1.47,1.47,0,0,1,1.68-.33l.26.11a1.14,1.14,0,0,1,.8,1.49l-.16.87a1.29,1.29,0,0,0,.78,1.56c1.67.81,4,1.76,4.34,3.54a4.47,4.47,0,0,1-.06,1.72l-.63,3.43c-.75,3.95.12,4.28.6,4.18,1.14-.23,2.38-2.9,4.09-7.81.38-1.12,2.12-.32,1.74.79-1.63,4.8-3.32,9.11-6.59,9.76-2.52.51-4.82-1.08-3.65-7.17l.6-3.05a3.07,3.07,0,0,0,.07-1.15c-.09-.46-.49-.78-1.11-1.16s-1-.23-1.24.52C76.34,169.15,75.86,170.79,75.34,172.41Z" transform="translate(-6.61 -13.83)"/><path class="cls-1" d="M120.19,162.57l2.72-14.47c.59-3.11,2.26-5.36,6-5.81.92-.12,1.41.32,1.39,1.23,0,1.16-.33,1.55-1.48,1.85s-1.76.95-2.17,3.09l-2.46,13.07c-.87,4.74-2.93,10.94-8.13,12-1.91.38-3.18-.24-3.82-1.29-.39-.56-.66-.57-1,0a8.14,8.14,0,0,1-4.64,3.21c-3.3.66-5.7-1.58-4.32-8.82l2.13-11.22c.11-.63-.21-.87-.75-.52-3.27,2-7.39,4.2-6.77,7.34a2.47,2.47,0,0,0,1.56,1.9c1.46.59,1.55.67,1.83,2.09a1.09,1.09,0,0,1-1.19,1.45,5.56,5.56,0,0,1-5.5-4.65c-1.2-6,5.61-9.12,10.77-12.21a4.73,4.73,0,0,0,1.82-1.84,6.14,6.14,0,0,1,2.5-2.32,1.16,1.16,0,0,1,1.65.55c.49.91.48,1.18-.23,2a6.83,6.83,0,0,0-1.26,2.94l-2.92,15.68c-.73,4.05.23,4.36.91,4.23,1.75-.35,3.56-3.57,4.46-7.65L114,149.64a1.82,1.82,0,0,1,1.67-1.71l1.17-.24c.9-.18,1.32.21,1.17,1.15L114.83,166c-.77,4.05.1,4.38.91,4.22C117.61,169.88,119.46,166.35,120.19,162.57Z" transform="translate(-6.61 -13.83)"/><path class="cls-1" d="M144.65,157.41c.38-1.12,2.12-.33,1.74.79-1.62,4.83-3.84,9.21-7.4,9.92a3,3,0,0,1-3.23-1c-.42-.56-.69-.57-1.08,0a6.51,6.51,0,0,1-3.61,2.61c-2.2.44-3.63-1-4.06-3.16-.69-3.46.18-14.39,5.87-15.53a3.46,3.46,0,0,1,3.33,1c.61.69.91.7,1.68.17l2.21-1.58c.65-.47,1.07-.22.92.59l-1.87,10c-.7,3.7-.07,4.32.67,4.17C141.34,165.06,143.19,161.7,144.65,157.41ZM132,166.13c1.13-.23,2-1.49,2.54-2.43a7,7,0,0,0,.6-1.7l1-5.32a3,3,0,0,0-.3-1.65,1.47,1.47,0,0,0-1.55-.84c-2.91.59-4.12,8.49-3.64,10.89C130.86,166,131.29,166.27,132,166.13Z" transform="translate(-6.61 -13.83)"/><path class="cls-1" d="M146.39,158.2c-.35,1.12-2.12.33-1.74-.79.45-1.3.9-2.94,1.32-4.7a2,2,0,0,0-.5-2.16,2.19,2.19,0,0,1-.56-1.1,4.21,4.21,0,0,1,1.33-3.46,1.48,1.48,0,0,1,1.68-.33l.26.11a1.14,1.14,0,0,1,.8,1.49l-.16.87a1.3,1.3,0,0,0,.78,1.56c1.68.81,4,1.76,4.34,3.54a4.52,4.52,0,0,1-.06,1.73l-.63,3.42c-.75,4,.12,4.28.61,4.18,1.13-.23,2.38-2.9,4.08-7.81.39-1.12,2.12-.32,1.74.8-1.63,4.79-3.32,9.1-6.59,9.75-2.52.51-4.82-1.08-3.65-7.17l.6-3a3.12,3.12,0,0,0,.07-1.16c-.09-.45-.49-.78-1.11-1.16s-1.05-.23-1.24.52C147.39,154.94,146.91,156.59,146.39,158.2Z" transform="translate(-6.61 -13.83)"/><path class="cls-1" d="M183.26,149.69c.38-1.12,2.12-.33,1.74.79-1.69,5-3.9,9.22-7.36,9.92-2.85.56-4.81-1.19-3.64-7.45l.53-2.73a17.06,17.06,0,0,0,.47-3.49.78.78,0,0,0-1-.54,5.44,5.44,0,0,0-2.74,2.13,5.06,5.06,0,0,0-.79,1.77l-1.94,10.31a1.84,1.84,0,0,1-1.67,1.72l-1.16.23c-.91.18-1.32-.21-1.14-1.15l1.76-9.33a16.48,16.48,0,0,0,.48-3.53.78.78,0,0,0-1-.5,5.25,5.25,0,0,0-2.7,2.15,4.61,4.61,0,0,0-.76,1.73l-2,10.32a1.81,1.81,0,0,1-1.67,1.71l-1.13.23c-.91.18-1.32-.21-1.17-1.15l2.89-15.27c.18-1,.68-1.31,1.65-1l1.06.29a1.59,1.59,0,0,0,1.92-.51,7.31,7.31,0,0,1,3.63-2.21,2.59,2.59,0,0,1,2.92,1.17c.31.54.59.59,1,.07a7.71,7.71,0,0,1,4.2-2.86,2.55,2.55,0,0,1,3.31,2.06,11.37,11.37,0,0,1-.27,4.06l-.9,4.89c-.81,4.06.11,4.28.63,4.17C180,157.34,181.8,154,183.26,149.69Z" transform="translate(-6.61 -13.83)"/><path class="cls-1" d="M192.74,147.79c.38-1.12,2.12-.32,1.74.8-1.57,4.75-4,9.23-7.72,10-2.91.58-5-1.09-3.82-7.34l1.68-9c.16-.73-.17-1-.88-.89l-.71.14c-.68.13-1-.17-.86-.91a1.43,1.43,0,0,1,1.29-1.3l.68-.13a1.46,1.46,0,0,0,1.32-1.31l.4-2.2a1.86,1.86,0,0,1,1.71-1.72l1.13-.22c.9-.19,1.32.2,1.14,1.15l-.4,2.2c-.13.69.16,1,.88.86l.61-.12c.68-.14,1,.17.85.9a1.43,1.43,0,0,1-1.28,1.31l-.58.11a1.47,1.47,0,0,0-1.32,1.34l-1.91,10.3c-.78,4,.06,4.29.77,4.15C189.27,155.48,191.22,152.13,192.74,147.79Z" transform="translate(-6.61 -13.83)"/><path class="cls-1" d="M209.88,144.36c.38-1.11,2.12-.32,1.74.8-1.69,5-3.91,9.22-7.37,9.91-2.88.58-4.78-1.23-3.64-7.44l.53-2.73a14.85,14.85,0,0,0,.48-3.49c-.09-.45-.53-.64-1.05-.53a5.47,5.47,0,0,0-2.72,2.19,5.17,5.17,0,0,0-.79,1.74l-1.92,10.27a1.86,1.86,0,0,1-1.71,1.72l-1.13.22c-.9.19-1.32-.2-1.17-1.14l4.24-22.2A1.8,1.8,0,0,1,197,132l1.13-.23c.91-.18,1.32.21,1.17,1.14l-1.17,6.23c-.1.52.16.64.48.23a7.25,7.25,0,0,1,3.57-2.19,2.59,2.59,0,0,1,3.36,2,11.76,11.76,0,0,1-.29,4.09l-.94,4.9c-.77,4.05.15,4.27.67,4.17C206.54,152,208.42,148.66,209.88,144.36Z" transform="translate(-6.61 -13.83)"/><path class="cls-1" d="M87.83,41a7.08,7.08,0,0,1,4.15.41c.7.26,1.09.05,1.25-.69s.32-1.41.44-2.14-.06-1.16-.87-1.3a8.19,8.19,0,0,1-6.86-6.6A8.66,8.66,0,0,1,87.7,23.5a1.2,1.2,0,0,1,2-.12l.29.28c.87.83.92,1.26.24,2.2A5.13,5.13,0,0,0,93.26,34a1,1,0,0,0,1.43-.92c1.5-8,3.47-14.78,9.16-15.92a5.36,5.36,0,0,1,6.42,4.5,12.62,12.62,0,0,1-2.64,9.67A15.19,15.19,0,0,1,98.86,37a1.4,1.4,0,0,0-1.24,1.33c-.25,1.43-.56,2.94-.94,4.39a1.26,1.26,0,0,0,.66,1.65c2.34,1.42,5,3.16,7.07,4.2,1.68.88,3,1.26,4.17,1a5.58,5.58,0,0,0,3-2c.68-.81,1.24-.86,2.11-.22l.52.4a1.21,1.21,0,0,1,.23,2A9.65,9.65,0,0,1,109.34,53a10.24,10.24,0,0,1-6.43-1.37c-1.67-.81-3.75-2.11-6.9-4.1a1.09,1.09,0,0,0-1.7.27A7.84,7.84,0,0,1,90,50.49c-3.61.79-5.85-1.32-6.3-3.55A5.07,5.07,0,0,1,87.83,41Zm1.22,6.44A3.51,3.51,0,0,0,91.12,46a.94.94,0,0,0-.38-1.54A3.87,3.87,0,0,0,88.4,44a1.84,1.84,0,0,0-1.59,2.13A1.76,1.76,0,0,0,89.05,47.44Zm15.07-26.21c-2.62.52-4.38,5.34-5.54,11.46-.14.67.23,1,.89.73a10.63,10.63,0,0,0,5.14-4.05,9.28,9.28,0,0,0,1.74-6.44C106.09,21.67,105.32,21,104.12,21.23Z" transform="translate(-6.61 -13.83)"/><path class="cls-1" d="M124.16,32.12c.38-1.12,2.12-.33,1.74.79-1.45,4.33-4.36,9.31-9.86,10.41-3.68.74-6-.75-6.62-4-.91-4.53,1.13-13.17,7.08-14.36,3.33-.67,6,1.56,4.85,6.09-.84,3.39-3,5.15-7.24,5.68a1.05,1.05,0,0,0-1,1.22c.09,1.32.66,3.3,3.44,2.74C119.72,40,122.59,36.7,124.16,32.12Zm-7.28-4c-2,.39-3,3.72-3.33,5.4-.12.54.26.93.94.79,2.23-.44,2.93-2,3.3-3.65C118.23,28.86,118,27.93,116.88,28.16Z" transform="translate(-6.61 -13.83)"/><path class="cls-1" d="M133.64,30.22c.38-1.12,2.12-.32,1.74.8-1.58,4.75-4,9.23-7.73,10-2.91.58-5-1.09-3.82-7.34l1.69-9c.16-.74-.17-1.05-.88-.9l-.72.14c-.67.13-1-.17-.85-.91a1.44,1.44,0,0,1,1.29-1.3l.68-.13a1.46,1.46,0,0,0,1.32-1.31l.4-2.2a1.86,1.86,0,0,1,1.7-1.72l1.14-.22c.9-.19,1.32.2,1.13,1.15l-.4,2.2c-.13.69.17,1,.88.86l.62-.12c.67-.14,1,.17.85.9a1.43,1.43,0,0,1-1.29,1.31l-.58.11a1.45,1.45,0,0,0-1.31,1.34l-1.91,10.3c-.78,4,0,4.29.76,4.15C130.17,37.91,132.12,34.56,133.64,30.22Z" transform="translate(-6.61 -13.83)"/><path class="cls-1" d="M141.61,16.25c.66,3.3-2.58,6.81-4.13,8.29a.77.77,0,0,1-1.29,0l0-.06a.89.89,0,0,1,0-1.38A15.07,15.07,0,0,0,138,20.64a1.19,1.19,0,0,0-.5-1.81,2.76,2.76,0,0,1-1.23-1.77,2.7,2.7,0,0,1,2.09-3.18A2.72,2.72,0,0,1,141.61,16.25Z" transform="translate(-6.61 -13.83)"/><path class="cls-1" d="M144.4,29.21c-.35,1.12-2.12.33-1.74-.79.79-2.28,1.83-5.82,2.54-8.65A1.41,1.41,0,0,1,147,18.54l.59.08c1.07.16,1.46.58,1.5,1.65.18,4.27,1.61,8.55,2,10.29.1.49.15.92.2,1.31,0,.6.37.7.75.22A21.53,21.53,0,0,0,155,26c.38-1.12,2.09-.31,1.74.8-1.53,4.64-3.55,9.15-8.85,10.21a6.41,6.41,0,0,1-4.24-.5.89.89,0,0,1-.2-1.51c1.11-1,1.81-.39,2.81-.59,1.16-.23,1.67-1.21,1.06-4.25-.27-1.39-.76-3.14-1.13-5-.1-.52-.37-.53-.54,0C145.22,26.56,144.77,28,144.4,29.21Z" transform="translate(-6.61 -13.83)"/><path class="cls-1" d="M61.39,68.89l-3,35.11a1,1,0,0,1-.84.88l-6.58,1.25a.56.56,0,0,1-.71-.59L51.4,91.83,43.1,93.4l-1.19,13.71a1.09,1.09,0,0,1-.84.88l-6.58,1.24c-.45.09-.75-.16-.71-.58l3-35.11a1,1,0,0,1,.84-.88l6.59-1.25A.56.56,0,0,1,45,72L43.77,85.71l8.29-1.57,1.19-13.71a1.12,1.12,0,0,1,.84-.88l6.59-1.24A.54.54,0,0,1,61.39,68.89Z" transform="translate(-6.61 -13.83)"/><path class="cls-1" d="M90.12,93.93a2.09,2.09,0,0,1-.67,1.46L86.1,98.91a2.72,2.72,0,0,1-1.49.84l-14.33,2.66a1.59,1.59,0,0,1-1.39-.25l-2.84-2.34a1.43,1.43,0,0,1-.49-1.25h0s0,0,0-.09L68.24,67.6a1.1,1.1,0,0,1,.84-.88l6.59-1.25a.54.54,0,0,1,.71.59L74,93.11a.74.74,0,0,0,.13.33l.71.59,6.42-1.21.84-.88c.18-.19.19-.35.25-.41l2.35-27a1,1,0,0,1,.84-.88l6.53-1.24a.54.54,0,0,1,.71.59Z" transform="translate(-6.61 -13.83)"/><path class="cls-1" d="M120,89.61l-3.35,3.51a2.78,2.78,0,0,1-1.49.85L97.61,97.3c-.44.08-.75-.17-.71-.59l3-35.11a1.05,1.05,0,0,1,.84-.88l17.59-3.33a1.9,1.9,0,0,1,1.39.31L122.61,60a1.57,1.57,0,0,1,.49,1.25l-2.33,26.84A2.41,2.41,0,0,1,120,89.61ZM107.47,67l-1.84,21.19L111.94,87l.84-.88a1,1,0,0,0,.2-.4l1.62-18.68a.39.39,0,0,0-.14-.33L113.6,66a.34.34,0,0,0-.37-.09Z" transform="translate(-6.61 -13.83)"/><path class="cls-1" d="M150.47,83.85l-3.35,3.52a2.72,2.72,0,0,1-1.49.84L128,91.54a.54.54,0,0,1-.71-.58l3.05-35.11a1,1,0,0,1,.84-.88l17.59-3.33a1.88,1.88,0,0,1,1.39.3L153,54.29a1.55,1.55,0,0,1,.49,1.24l-2.33,26.84A2.34,2.34,0,0,1,150.47,83.85ZM137.9,61.27l-1.84,21.19,6.31-1.19.83-.88a.91.91,0,0,0,.2-.4L145,61.31a.43.43,0,0,0-.13-.34l-.86-.71a.37.37,0,0,0-.38-.08Z" transform="translate(-6.61 -13.83)"/><path class="cls-1" d="M182.19,74.45l-.54,6.23a1.11,1.11,0,0,1-.9.89l-22.13,4.19c-.44.08-.8-.16-.76-.58l3-35.11H161a1.1,1.1,0,0,1,.83-.72l6.52-1.24a.57.57,0,0,1,.73.43l-2.45,28.15,14.83-2.8A.6.6,0,0,1,182.19,74.45Z" transform="translate(-6.61 -13.83)"/><path class="cls-1" d="M197.11,56.71l9.79-1.86c.45-.08.75.17.72.59l-.54,6.23a1.05,1.05,0,0,1-.84.88l-9.79,1.85-.59,6.75,12.78-2.42a.56.56,0,0,1,.71.59l-.54,6.22a1.09,1.09,0,0,1-.84.88l-20.14,3.81a.54.54,0,0,1-.71-.58l3-35.11a1,1,0,0,1,.84-.88l20.14-3.81a.56.56,0,0,1,.71.58l-.54,6.23a1.09,1.09,0,0,1-.84.88L197.7,50Z" transform="translate(-6.61 -13.83)"/><path class="cls-1" d="M30.94,117.65l-.53,6.17a1.12,1.12,0,0,1-.9.89l-7,1.33L20,154.19a1.06,1.06,0,0,1-.83.77l-6.52,1.24a.55.55,0,0,1-.72-.48l2.44-28.15-7,1.33c-.44.08-.8-.16-.76-.58l.53-6.17a1.2,1.2,0,0,1,.9-1L30.18,117A.6.6,0,0,1,30.94,117.65Z" transform="translate(-6.61 -13.83)"/><path class="cls-1" d="M57.7,142.9a2.13,2.13,0,0,1-.68,1.46l-3.4,3.53a2.59,2.59,0,0,1-1.44.84l-14.32,2.71a1.69,1.69,0,0,1-1.39-.31l-2.85-2.34a1.42,1.42,0,0,1-.49-1.25l2.33-26.84a2.38,2.38,0,0,1,.73-1.47l3.35-3.52a2.42,2.42,0,0,1,1.49-.85l14.27-2.69a1.48,1.48,0,0,1,1.39.3l2.9,2.33a1.34,1.34,0,0,1,.44,1.26ZM44.79,121.72a.52.52,0,0,0-.35.22l-1,1a1,1,0,0,0-.2.45l-1.62,18.68a.49.49,0,0,0,.13.34l.71.58,6.42-1.21.84-.88a.5.5,0,0,0,.19-.4l1.63-18.68a.36.36,0,0,0-.13-.38l-.82-.67a.43.43,0,0,0-.37-.09Z" transform="translate(-6.61 -13.83)"/><path class="cls-1" d="M78.13,130.65a.56.56,0,0,1-.71-.59l.54-6.23a1,1,0,0,1,.84-.88l11-2.07c.44-.08.8.16.77.58l-1.38,15.91h-.06a2.61,2.61,0,0,1-.63,1l-3.36,3.52a2.73,2.73,0,0,1-1.48.85L69.28,145.5a1.69,1.69,0,0,1-1.39-.31L65,142.85a1.35,1.35,0,0,1-.43-1.26l0,0,2.32-26.79h.06a2.11,2.11,0,0,1,.67-1.47L71,109.77a2.78,2.78,0,0,1,1.49-.85l14.33-2.71a1.69,1.69,0,0,1,1.39.31L91,108.86a1.41,1.41,0,0,1,.49,1.24l0,0,0,0L91,115.7a1.17,1.17,0,0,1-.9.89l-6.52,1.24a.56.56,0,0,1-.72-.59l.12-1.36a.41.41,0,0,0-.13-.33l-.87-.72c-.09-.13-.26-.1-.37-.08l-5.37,1a.62.62,0,0,0-.4.23l-1,1a.69.69,0,0,0-.25.41L73,136.14a.53.53,0,0,0,.19.32l.65.6,6.48-1.22.83-.88a.91.91,0,0,0,.2-.4l.4-4.6Z" transform="translate(-6.61 -13.83)"/><path class="cls-1" d="M105.72,116.83l9.79-1.85c.44-.08.75.17.71.59l-.54,6.22a1,1,0,0,1-.84.88l-9.79,1.85-.59,6.75,12.79-2.41a.56.56,0,0,1,.71.58l-.54,6.23a1.1,1.1,0,0,1-.84.88l-20.14,3.81c-.44.08-.75-.17-.71-.59l3-35.11a1,1,0,0,1,.83-.88l20.14-3.8a.55.55,0,0,1,.71.58l-.54,6.23a1.09,1.09,0,0,1-.84.88l-12.78,2.41Z" transform="translate(-6.61 -13.83)"/><path class="cls-1" d="M149.1,95.3l-.53,6.17a1.11,1.11,0,0,1-.9.89l-7,1.33-2.44,28.15a1.11,1.11,0,0,1-.83.78l-6.53,1.23c-.39.07-.7-.12-.72-.48l2.44-28.15-7,1.33c-.44.08-.8-.16-.76-.58l.53-6.17a1.18,1.18,0,0,1,.9-.94l22.13-4.19A.6.6,0,0,1,149.1,95.3Z" transform="translate(-6.61 -13.83)"/><path class="cls-1" d="M178.55,89.58l-3.05,35.11a1,1,0,0,1-.84.87l-6.58,1.25a.56.56,0,0,1-.71-.59l1.19-13.71-8.3,1.57-1.19,13.71a1.09,1.09,0,0,1-.84.88l-6.58,1.25c-.44.08-.75-.17-.71-.59l3-35.11a1.05,1.05,0,0,1,.84-.88l6.59-1.24a.56.56,0,0,1,.71.58l-1.19,13.71,8.29-1.57,1.2-13.71a1.08,1.08,0,0,1,.83-.87L177.84,89A.54.54,0,0,1,178.55,89.58Z" transform="translate(-6.61 -13.83)"/><path class="cls-1" d="M192.46,100.43l9.79-1.85c.44-.09.75.16.71.58l-.54,6.23a1,1,0,0,1-.84.88l-9.79,1.85-.58,6.75L204,112.45a.56.56,0,0,1,.71.59l-.54,6.23a1.12,1.12,0,0,1-.84.88L183.18,124c-.44.09-.75-.16-.71-.58l3.05-35.11a1,1,0,0,1,.83-.88l20.14-3.81a.56.56,0,0,1,.71.59l-.54,6.22a1.08,1.08,0,0,1-.84.88L193,93.68Z" transform="translate(-6.61 -13.83)"/><path class="cls-1" d="M236.22,95.91a2.09,2.09,0,0,1-.67,1.46L232.13,101l-.17.14,4.5,12.07c.08.34-.45.8-.83.87l-7.42,1.41a.85.85,0,0,1-.93-.55L223,103.2l-2.54.49-1.11,12.71a1.08,1.08,0,0,1-.84.88l-6.58,1.24a.58.58,0,0,1-.71-.58l3-35.11a1.08,1.08,0,0,1,.84-.88l17.59-3.33a1.59,1.59,0,0,1,1.39.25l2.9,2.39a1.5,1.5,0,0,1,.42,1.36ZM221.08,96l5.81-1.1a.69.69,0,0,0,.4-.23l1-1a.55.55,0,0,0,.2-.45l.43-4.92a.38.38,0,0,0-.13-.39l-.81-.67a.46.46,0,0,0-.43-.07l-5.75,1.09Z" transform="translate(-6.61 -13.83)"/><polygon class="cls-1" points="174.64 6.49 156.46 9.9 156.75 6.79 174.94 3.39 174.64 6.49"/><polygon class="cls-1" points="67.7 27.88 49.51 31.28 49.81 28.17 67.99 24.77 67.7 27.88"/></svg>