<svg id="Layer_1" data-name="Layer 1" xmlns="http://www.w3.org/2000/svg" viewBox="0 0 396 197.26"><defs><style>.cls-1{fill:#fff;}</style></defs><title>lamp</title><path class="cls-1" d="M55.6,93.52v.21a1.32,1.32,0,0,1-.43.66c-.05,0-.07,0-.07,0s0,0-.07,0l-.08.07h-.14l-.15.07H45.6c-.53,0-.86-.33-1-1L39.52,75.33,39,71.71l-.43,3.62L32.93,93.59c-.24.68-.61,1-1.09,1H22.78s-.07,0-.07,0,0,0-.07,0a.16.16,0,0,1-.11,0,.14.14,0,0,0-.11,0c-.05,0-.07,0-.07-.07a.72.72,0,0,1-.44-.66c-.05,0-.07,0-.07-.07v-.14L18,45.12a1,1,0,0,1,.29-.69A.92.92,0,0,1,19,44.1h8.56a1,1,0,0,1,.75.33,1,1,0,0,1,.33.69l1.74,24.63,4.13-11.23a1.87,1.87,0,0,1,.51-.69,1.19,1.19,0,0,1,.79-.32h5.8a1.2,1.2,0,0,1,.8.32,3.32,3.32,0,0,1,.58.69l4.06,11.23,1.81-24.63a1,1,0,0,1,.28-.69,1,1,0,0,1,.73-.33H58.5a1.15,1.15,0,0,1,1,1Z" transform="translate(-18 -43.88)"/><path class="cls-1" d="M76.91,64H89.74a.9.9,0,0,1,1,1v8.62a.9.9,0,0,1-1,1H76.91V84H93.65a1.05,1.05,0,0,1,.69.29,1,1,0,0,1,.33.73v8.62a.91.91,0,0,1-.33.72,1,1,0,0,1-.69.29H67.28a.89.89,0,0,1-1-1V45a.9.9,0,0,1,1-1H93.65a1,1,0,0,1,.69.29.91.91,0,0,1,.33.72v8.62a1,1,0,0,1-.33.73,1.05,1.05,0,0,1-.69.29H76.91Z" transform="translate(-18 -43.88)"/><path class="cls-1" d="M107.86,44.9a.9.9,0,0,1,1-1h8.55a1.15,1.15,0,0,1,.77.29,1,1,0,0,1,.32.73v9.78h-.07c0,.44-.32.8-.94,1.09l-8.34,3.4c-.43.2-.74.21-.94,0a1.16,1.16,0,0,1-.36-.69V44.9Z" transform="translate(-18 -43.88)"/><path class="cls-1" d="M161,84.28a1,1,0,0,1,.32.69v8.62a.9.9,0,0,1-.32.72,1.08,1.08,0,0,1-.76.29h-29a1.1,1.1,0,0,1-.76-.29.93.93,0,0,1-.32-.72V45h.07a.91.91,0,0,1,1-.8h8.56a.91.91,0,0,1,1,.8V84h19.42a1,1,0,0,1,.76.33" transform="translate(-18 -43.88)"/><path class="cls-1" d="M199.67,84.28A1,1,0,0,1,200,85v8.62a.9.9,0,0,1-.32.72,1.08,1.08,0,0,1-.76.29h-29a1.1,1.1,0,0,1-.76-.29.93.93,0,0,1-.32-.72V45h.07a.91.91,0,0,1,1-.8h8.56a.91.91,0,0,1,1,.8V84h19.42a1,1,0,0,1,.76.33" transform="translate(-18 -43.88)"/><path class="cls-1" d="M259.74,84.28a1,1,0,0,1,.32.69v8.62a.93.93,0,0,1-.32.72,1.1,1.1,0,0,1-.76.29H230a1.08,1.08,0,0,1-.76-.29.9.9,0,0,1-.32-.72V45H229a.9.9,0,0,1,1-.8h8.55a.92.92,0,0,1,1,.8V84H259a1.06,1.06,0,0,1,.76.33" transform="translate(-18 -43.88)"/><path class="cls-1" d="M278.23,64h12.82a.89.89,0,0,1,1,1v8.62a.89.89,0,0,1-1,1H278.23V84H295a1,1,0,0,1,.69.29A1,1,0,0,1,296,85v8.62a.91.91,0,0,1-.33.72,1,1,0,0,1-.69.29H268.59a.89.89,0,0,1-1-1V45a.89.89,0,0,1,1-1H295a1,1,0,0,1,.69.29A.91.91,0,0,1,296,45v8.62a1,1,0,0,1-.33.73,1,1,0,0,1-.69.29H278.23Z" transform="translate(-18 -43.88)"/><path class="cls-1" d="M326.57,77.94l-4.34-14.85-4.42,14.85Zm.95-32.9q3.62,12.18,7.17,24.28t7.17,24.27c.1.24,0,.47-.25.69a1.28,1.28,0,0,1-.83.32h-8.27a1.15,1.15,0,0,1-.79-.32,2,2,0,0,1-.51-.69l-1.74-5.87H314.91l-1.74,5.87a2,2,0,0,1-.51.69,1.15,1.15,0,0,1-.79.32h-8.26a1.3,1.3,0,0,1-.84-.32c-.26-.22-.35-.45-.25-.69L316.86,45V45c.3-.67.63-1,1-1h8.62c.44,0,.77.34,1,1Z" transform="translate(-18 -43.88)"/><path class="cls-1" d="M378.74,44.36a.9.9,0,0,1,.14.83L366.27,93.44a1.68,1.68,0,0,1-.54.77,1.33,1.33,0,0,1-.83.32h-9.64a1.2,1.2,0,0,1-.8-.32,1.86,1.86,0,0,1-.51-.77l-12.6-48.25a.71.71,0,0,1,.11-.83.91.91,0,0,1,.76-.48h9c.49,0,.85.34,1.09,1l6.52,28,.58,4.27.73-4.27,7.68-28q.21-1,1.08-1H378a.86.86,0,0,1,.73.48" transform="translate(-18 -43.88)"/><path class="cls-1" d="M396.25,64h12.82a.9.9,0,0,1,1,1v8.62a.9.9,0,0,1-1,1H396.25V84H413a1,1,0,0,1,.68.29A1,1,0,0,1,414,85v8.62a.91.91,0,0,1-.33.72,1,1,0,0,1-.68.29H386.61a.89.89,0,0,1-1-1V45a.89.89,0,0,1,1-1H413a1,1,0,0,1,.68.29A.91.91,0,0,1,414,45v8.62a1,1,0,0,1-.33.73,1,1,0,0,1-.68.29H396.25Z" transform="translate(-18 -43.88)"/><path class="cls-1" d="M42.27,150.69l-4.34-14.86L33.5,150.69Zm.95-32.9q3.62,12.18,7.17,24.27t7.17,24.28c.1.24,0,.47-.25.69a1.36,1.36,0,0,1-.83.32H48.21a1.19,1.19,0,0,1-.79-.32,1.87,1.87,0,0,1-.51-.69l-1.74-5.87H30.61l-1.74,5.87a2,2,0,0,1-.51.69,1.19,1.19,0,0,1-.79.32H19.3a1.33,1.33,0,0,1-.83-.32c-.26-.22-.35-.45-.25-.69l14.34-48.55v-.07q.44-1,1-1H42.2c.44,0,.77.34,1,1Z" transform="translate(-18 -43.88)"/><path class="cls-1" d="M117.3,157a.94.94,0,0,1,.33.69v8.62a.91.91,0,0,1-.33.72,1.08,1.08,0,0,1-.76.29h-29a1.06,1.06,0,0,1-.76-.29.91.91,0,0,1-.33-.72V117.72h.07a.92.92,0,0,1,1-.8h8.55a.91.91,0,0,1,1,.8v39h19.42a1,1,0,0,1,.76.33" transform="translate(-18 -43.88)"/><path class="cls-1" d="M135.79,136.7h12.83a.9.9,0,0,1,1,1v8.62a.9.9,0,0,1-1,1H135.79v9.34h16.74a1.05,1.05,0,0,1,.69.29,1,1,0,0,1,.32.73v8.62a.93.93,0,0,1-.32.72,1,1,0,0,1-.69.29H126.15a.89.89,0,0,1-1-1V117.72a.9.9,0,0,1,1-1h26.38a1,1,0,0,1,.69.3.93.93,0,0,1,.32.72v8.62a1,1,0,0,1-.32.73,1.05,1.05,0,0,1-.69.29H135.79Z" transform="translate(-18 -43.88)"/><path class="cls-1" d="M178.77,148.8a.93.93,0,0,1-.72-.32,1,1,0,0,1-.29-.69v-8.62a.9.9,0,0,1,1-1h14.35a1.13,1.13,0,0,1,.76.29,1,1,0,0,1,.33.73v22h-.08a2.45,2.45,0,0,1-.72,1.31l-4.06,4.06a2.6,2.6,0,0,1-1.3.72,2.36,2.36,0,0,1-.58.07H168.7a2.59,2.59,0,0,1-.65-.07,2.54,2.54,0,0,1-1.23-.72l-4.06-4.06a2.57,2.57,0,0,1-.73-1.23,1.82,1.82,0,0,1,0-.66l-.07-.07v-37.1H162a1.42,1.42,0,0,1,0-.58,2.55,2.55,0,0,1,.73-1.3l4.06-4.06a2.54,2.54,0,0,1,1.23-.72,2.57,2.57,0,0,1,.65-.08h18.77a2.38,2.38,0,0,1,.58.08,2.6,2.6,0,0,1,1.3.72l4.06,4.06a2.46,2.46,0,0,1,.72,1.3,2.38,2.38,0,0,1,.08.58h-.08l.08.08v7.68a1,1,0,0,1-.33.69,1.07,1.07,0,0,1-.76.32h-8.55a1,1,0,0,1-.73-.32,1.05,1.05,0,0,1-.29-.69v-2a.21.21,0,0,0-.07-.15.64.64,0,0,1-.14-.22l-1.23-1.23a.58.58,0,0,0-.51-.21h-7a.73.73,0,0,0-.51.21l-1.16,1.23c-.19.2-.29.32-.29.37s-.05.1,0,.14v25.87a1.6,1.6,0,0,1,.11.25.87.87,0,0,0,.18.26l.95,1h8.47l1-1a1,1,0,0,0,.21-.51V148.8Z" transform="translate(-18 -43.88)"/><path class="cls-1" d="M255.83,157a.94.94,0,0,1,.33.69v8.62a.91.91,0,0,1-.33.72,1.08,1.08,0,0,1-.76.29h-29a1.06,1.06,0,0,1-.76-.29.91.91,0,0,1-.33-.72V117.72h.07a.92.92,0,0,1,1-.8h8.55a.91.91,0,0,1,1,.8v39h19.42a1,1,0,0,1,.76.33" transform="translate(-18 -43.88)"/><path class="cls-1" d="M285.77,150.69l-4.34-14.86L277,150.69Zm1-32.9q3.61,12.18,7.17,24.27t7.17,24.28a.57.57,0,0,1-.25.69,1.33,1.33,0,0,1-.83.32h-8.26a1.2,1.2,0,0,1-.8-.32,2,2,0,0,1-.51-.69l-1.74-5.87H274.11l-1.74,5.87a1.87,1.87,0,0,1-.51.69,1.17,1.17,0,0,1-.79.32h-8.26A1.36,1.36,0,0,1,262,167c-.26-.22-.35-.45-.25-.69l14.35-48.55v-.07c.29-.68.62-1,1-1h8.62q.66,0,1,1Z" transform="translate(-18 -43.88)"/><path class="cls-1" d="M348.32,166.34a.89.89,0,0,1-1,1h-8.56a1.06,1.06,0,0,1-.75-.29.91.91,0,0,1-.33-.72L337.38,148l-5.58,18.47a1.79,1.79,0,0,1-.51.69,1.16,1.16,0,0,1-.79.33h-5.8a1.16,1.16,0,0,1-.8-.33,3.08,3.08,0,0,1-.58-.69L317.82,148l-.37,18.33a.89.89,0,0,1-1,1h-8.62a1,1,0,0,1-.69-.29.91.91,0,0,1-.33-.72l2-48.4v-.22a.88.88,0,0,1,.43-.65.26.26,0,0,0,.15-.07.29.29,0,0,0,.22-.08h9.2c.48,0,.84.32,1.09.94l6.52,28,.79,6.09.58-6.09,7.61-28a1.06,1.06,0,0,1,1.09-.94h9.2a.29.29,0,0,0,.21.08.07.07,0,0,0,.08.07,1.24,1.24,0,0,1,.43.65v.14l.08.08Z" transform="translate(-18 -43.88)"/><path class="cls-1" d="M365.47,138h7.61a.6.6,0,0,0,.43-.22l1.23-1.16a.35.35,0,0,1,.15-.18c.05,0,.07-.08.07-.18V129.1a.21.21,0,0,0-.07-.15.83.83,0,0,1-.15-.22l-1.23-1.23a1.86,1.86,0,0,1-.25-.14.42.42,0,0,0-.18-.08h-7.61Zm20.14,3.84-.07.07h.07a2.59,2.59,0,0,1-.07.65,2.48,2.48,0,0,1-.73,1.23l-4.05,4.13a2.54,2.54,0,0,1-1.31.73,1.14,1.14,0,0,1-.58,0h-13.4v17.61a.94.94,0,0,1-.33.68,1,1,0,0,1-.76.33h-8.55a.91.91,0,0,1-.72-.33,1,1,0,0,1-.29-.68V117.65a.9.9,0,0,1,1-1h23a2.79,2.79,0,0,1,.58.07,6.14,6.14,0,0,1,.62.19,2,2,0,0,1,.69.47l4.05,4.13a2.51,2.51,0,0,1,.73,1.3,2.3,2.3,0,0,1,.07.58Z" transform="translate(-18 -43.88)"/><path class="cls-1" d="M34.74,201.14a.51.51,0,0,0-.44.22l-1.23,1.16a.66.66,0,0,0-.22.44v26a.92.92,0,0,0,.22.5l1,1h8.41l1-1a.66.66,0,0,0,.22-.5V203a.62.62,0,0,0-.22-.44l-1.15-1.16a.74.74,0,0,0-.51-.22ZM54.37,234.4a2.54,2.54,0,0,1-.07.65,5.58,5.58,0,0,1-.18.58,2,2,0,0,1-.47.66l-4.13,4.05a2.57,2.57,0,0,1-1.23.73,2.36,2.36,0,0,1-.58.07H28.94a2.59,2.59,0,0,1-.65-.07,2.48,2.48,0,0,1-1.23-.73L23,236.29a2.45,2.45,0,0,1-.72-1.24,2.51,2.51,0,0,1-.08-.65V197.23a2.38,2.38,0,0,1,.08-.58,2.46,2.46,0,0,1,.72-1.3l4.06-4.06a2.46,2.46,0,0,1,1.23-.72,2.57,2.57,0,0,1,.65-.08h18.7a2.24,2.24,0,0,1,.57.08,2.52,2.52,0,0,1,1.31.72l4.13,4.06a1.8,1.8,0,0,1,.47.69c.07.21.13.42.18.61a2.36,2.36,0,0,1,.07.58Z" transform="translate(-18 -43.88)"/><path class="cls-1" d="M96.07,191.44v48.61a1,1,0,0,1-.29.69.91.91,0,0,1-.72.33H83.61a1.16,1.16,0,0,1-.8-.33,1.76,1.76,0,0,1-.5-.69l-8.84-24.2v24.2a1,1,0,0,1-.33.69,1,1,0,0,1-.69.33H63.83a.91.91,0,0,1-.72-.33,1,1,0,0,1-.3-.69V191.44a.9.9,0,0,1,1-1h10.8c.53,0,.86.34,1,1h.07l9.57,28,.14.8V191.44a1,1,0,0,1,.33-.73,1,1,0,0,1,.68-.29h8.63a.9.9,0,0,1,1,1" transform="translate(-18 -43.88)"/><path class="cls-1" d="M158.57,190.78a1,1,0,0,1,.32.73v8.62a.84.84,0,0,1-.58.87v.14H141.14v9.35H154a.9.9,0,0,1,1,1v8.62a.86.86,0,0,1-.51.87v.14H141.14v19a.9.9,0,0,1-1,1H131.5a.89.89,0,0,1-1-1V191.51a.89.89,0,0,1,1-1h26.38a1.05,1.05,0,0,1,.69.29" transform="translate(-18 -43.88)"/><path class="cls-1" d="M179.88,201.14a.49.49,0,0,0-.43.22l-1.24,1.16a.65.65,0,0,0-.21.44v26a.9.9,0,0,0,.21.5l1,1h8.4l1-1a.69.69,0,0,0,.21-.5V203a.65.65,0,0,0-.21-.44l-1.16-1.16a.74.74,0,0,0-.51-.22Zm19.64,33.26a2.51,2.51,0,0,1-.08.65,5.58,5.58,0,0,1-.18.58,2,2,0,0,1-.47.66l-4.13,4.05a2.52,2.52,0,0,1-1.23.73,2.3,2.3,0,0,1-.58.07H174.09a2.62,2.62,0,0,1-.66-.07,2.57,2.57,0,0,1-1.23-.73l-4.06-4.05a2.61,2.61,0,0,1-.8-1.89V197.23a2.38,2.38,0,0,1,.08-.58,2.53,2.53,0,0,1,.72-1.3l4.06-4.06a2.55,2.55,0,0,1,1.23-.72,2.59,2.59,0,0,1,.66-.08h18.69a2.38,2.38,0,0,1,.58.08,2.49,2.49,0,0,1,1.3.72l4.13,4.06a1.8,1.8,0,0,1,.47.69c.07.21.13.42.18.61a2.38,2.38,0,0,1,.08.58Z" transform="translate(-18 -43.88)"/><path class="cls-1" d="M218.61,211.87h7.61a.66.66,0,0,0,.5-.22l1.16-1.16a.55.55,0,0,0,.22-.36V203a.6.6,0,0,0-.22-.44l-1.16-1.16a.64.64,0,0,0-.43-.22h-7.68Zm20.14,3.91a2.59,2.59,0,0,1-.07.65,5.58,5.58,0,0,1-.18.58,1.87,1.87,0,0,1-.47.65l-4.13,4.13-.22.15,7.39,18.19a.56.56,0,0,1-.25.68,1.23,1.23,0,0,1-.77.33h-9.7a1.16,1.16,0,0,1-.8-.33,1.87,1.87,0,0,1-.51-.68l-7.1-17.61h-3.33v17.61a1,1,0,0,1-.29.68.93.93,0,0,1-.73.33H209a1,1,0,0,1-.69-.33.92.92,0,0,1-.32-.68V191.51a.94.94,0,0,1,.32-.73,1.05,1.05,0,0,1,.69-.29h23a2.25,2.25,0,0,1,.58.08l.62.18a2,2,0,0,1,.69.47l4.13,4.13a1.75,1.75,0,0,1,.47.72q.1.36.18.66a3.14,3.14,0,0,1,.07.65Z" transform="translate(-18 -43.88)"/><path class="cls-1" d="M303.2,191.11a.57.57,0,0,1,.25.69,1.5,1.5,0,0,0-.18.36.58.58,0,0,1-.18.29L290,217.88v22.25a.9.9,0,0,1-1,1h-8.62a1.05,1.05,0,0,1-.69-.29.9.9,0,0,1-.32-.72V217.88l-13.12-25.43c0-.1-.1-.19-.14-.29a3.28,3.28,0,0,1-.15-.36.6.6,0,0,1,.22-.69,1.16,1.16,0,0,1,.8-.33h9.34a1.16,1.16,0,0,1,.8.33,2,2,0,0,1,.51.69l7.1,14.13,7-14.13a2.8,2.8,0,0,1,.58-.69,1.14,1.14,0,0,1,.79-.33h9.28a1.29,1.29,0,0,1,.83.33" transform="translate(-18 -43.88)"/><path class="cls-1" d="M321.27,201.14a.5.5,0,0,0-.43.22l-1.23,1.16a.62.62,0,0,0-.22.44v26a.85.85,0,0,0,.22.5l1,1H329l1-1a.66.66,0,0,0,.22-.5V203a.62.62,0,0,0-.22-.44l-1.16-1.16a.7.7,0,0,0-.51-.22Zm19.64,33.26a3.08,3.08,0,0,1-.07.65,5.58,5.58,0,0,1-.18.58,2.21,2.21,0,0,1-.48.66l-4.13,4.05a2.48,2.48,0,0,1-1.23.73,2.3,2.3,0,0,1-.58.07H315.48a2.67,2.67,0,0,1-.66-.07,2.57,2.57,0,0,1-1.23-.73l-4.06-4.05a2.52,2.52,0,0,1-.79-1.89V197.23a2.36,2.36,0,0,1,.07-.58,2.53,2.53,0,0,1,.72-1.3l4.06-4.06a2.55,2.55,0,0,1,1.23-.72,2.65,2.65,0,0,1,.66-.08h18.69a2.38,2.38,0,0,1,.58.08,2.49,2.49,0,0,1,1.3.72l4.13,4.06a2,2,0,0,1,.48.69c.07.21.13.42.18.61a3,3,0,0,1,.07.58Z" transform="translate(-18 -43.88)"/><path class="cls-1" d="M381.46,234.4a2.54,2.54,0,0,1-.07.65,5.58,5.58,0,0,1-.18.58,2,2,0,0,1-.47.66l-4.06,4.05a2.54,2.54,0,0,1-1.31.73,2.22,2.22,0,0,1-.57.07L356,241.07a1.42,1.42,0,0,1-.65,0,2.48,2.48,0,0,1-1.23-.73l-4.06-4.05a2.49,2.49,0,0,1-.8-1.89h.07c0-.05,0-.07,0-.07s0,0,0-.07V191.51a1,1,0,0,1,.33-.73,1,1,0,0,1,.69-.29h8.62a.9.9,0,0,1,1,1V229a.92.92,0,0,0,.22.5l1,1h8.41l1-1a.56.56,0,0,0,.18-.28.5.5,0,0,1,.11-.22V191.51a.9.9,0,0,1,1-1h8.55a.9.9,0,0,1,1,1Z" transform="translate(-18 -43.88)"/><path class="cls-1" d="M405.34,240.13a.94.94,0,0,1-1,.87h-8.55a.92.92,0,0,1-1-.87v-9.79a.89.89,0,0,1,1-1h8.55a.9.9,0,0,1,1,1Z" transform="translate(-18 -43.88)"/></svg>