<svg class="cards__card-message" data-name="Layer 1" xmlns="http://www.w3.org/2000/svg" viewBox="0 0 436.42 112.96"><defs><style>.cls-1{fill:#fff;}</style></defs><title>pierogi</title><path class="cls-1" d="M20.6,27.2v.12a.57.57,0,0,1-.24.36h-.08a.24.24,0,0,1-.12,0,.11.11,0,0,1-.08,0h-5c-.28,0-.48-.24-.56-.56l-2.78-10-.28-2-.24,2-3.1,10c-.12.36-.28.56-.6.56H2.41a.38.38,0,0,1-.24-.36h0v-.08L0,.64A.57.57,0,0,1,.56.08H5.25a.6.6,0,0,1,.59.56l1,13.52L9.11,8a.86.86,0,0,1,.71-.56H13a1,1,0,0,1,.76.56L16,14.16,17,.64a.57.57,0,0,1,.56-.56h4.73a.6.6,0,0,1,.56.56Z" transform="translate(0 0)"/><path class="cls-1" d="M32.33,11h7a.54.54,0,0,1,.56.52v4.77a.54.54,0,0,1-.53.55h-7V22h9.19a.56.56,0,0,1,.55.56v4.73a.56.56,0,0,1-.55.56H27a.54.54,0,0,1-.55-.53V.56A.54.54,0,0,1,27,0H41.52a.56.56,0,0,1,.55.56V5.29a.56.56,0,0,1-.55.56H32.33Z" transform="translate(0 0)"/><path class="cls-1" d="M68.23,17.62a.58.58,0,0,1-.55-.56V12.33a.54.54,0,0,1,.52-.56h7.91a.57.57,0,0,1,.59.55h0V24.42h0a1.39,1.39,0,0,1-.39.71l-2.23,2.23a1.44,1.44,0,0,1-1,.44H62.71a1.44,1.44,0,0,1-1-.44l-2.22-2.23a1.29,1.29,0,0,1-.4-1h0V3.7h0a1.29,1.29,0,0,1,.4-1L61.71.47a1.44,1.44,0,0,1,1-.44H73a1.44,1.44,0,0,1,1,.44L76.24,2.7a1.43,1.43,0,0,1,.43,1h0V7.92a.6.6,0,0,1-.59.55H71.42a.58.58,0,0,1-.56-.55v-1a.44.44,0,0,0-.12-.28l-.68-.67a.28.28,0,0,0-.27-.12H65.93a.33.33,0,0,0-.28.12L65,6.61a.39.39,0,0,0-.15.28v14.2a.51.51,0,0,0,.15.28l.52.55h4.65l.56-.55a.5.5,0,0,0,.12-.28v-3.5Z" transform="translate(0 0)"/><path class="cls-1" d="M88.17,5.89a.27.27,0,0,0-.23.12l-.68.63a.6.6,0,0,0-.12.32v14.2a.5.5,0,0,0,.12.28l.56.55h4.61l.56-.55a.33.33,0,0,0,.12-.28V6.89A.35.35,0,0,0,93,6.57l-.64-.63a.36.36,0,0,0-.28-.12ZM99,24.14a1.29,1.29,0,0,1-.4,1l-2.26,2.23a1.36,1.36,0,0,1-1,.44H85a1.44,1.44,0,0,1-1-.44l-2.23-2.23a1.4,1.4,0,0,1-.44-1V3.7a1.44,1.44,0,0,1,.44-1L84,.47A1.28,1.28,0,0,1,85,0H95.25a1.28,1.28,0,0,1,1,.44l2.35,2.2a1.29,1.29,0,0,1,.4,1Z" transform="translate(0 0)"/><path class="cls-1" d="M131.4.68V5.37a.58.58,0,0,1-.6.56h-5V27.32a.56.56,0,0,1-.56.48H120.5a.56.56,0,0,1-.56-.48V5.89h-5a.57.57,0,0,1-.59-.55h0V.68a.61.61,0,0,1,.59-.6H130.8a.62.62,0,0,1,.6.6" transform="translate(0 0)"/><path class="cls-1" d="M142.17,5.89a.25.25,0,0,0-.24.12l-.68.63a.6.6,0,0,0-.12.32v14.2a.5.5,0,0,0,.12.28l.56.55h4.61l.56-.55a.33.33,0,0,0,.12-.28V6.89a.35.35,0,0,0-.12-.32l-.64-.63a.36.36,0,0,0-.28-.12Zm10.77,18.25a1.29,1.29,0,0,1-.4,1l-2.26,2.23a1.36,1.36,0,0,1-1,.44H139a1.44,1.44,0,0,1-1-.44l-2.23-2.23a1.43,1.43,0,0,1-.43-1V3.7a1.43,1.43,0,0,1,.43-1L138,.47A1.28,1.28,0,0,1,139,0h10.26a1.28,1.28,0,0,1,1,.44L152.5,2.7a1.29,1.29,0,0,1,.4,1Z" transform="translate(0 0)"/><path class="cls-1" d="M166.84,17.62a.57.57,0,0,1-.56-.56V12.33a.55.55,0,0,1,.54-.56h7.89a.58.58,0,0,1,.6.56h0V24.42h0a1.4,1.4,0,0,1-.4.71l-2.31,2.23a1.44,1.44,0,0,1-1,.44H161.3a1.4,1.4,0,0,1-1-.44l-2.23-2.23a1.29,1.29,0,0,1-.4-1h0V3.7h0a1.29,1.29,0,0,1,.4-1L160.3.47a1.4,1.4,0,0,1,1-.44h10.3a1.44,1.44,0,0,1,1,.44l2.23,2.23a1.4,1.4,0,0,1,.44,1h0V7.92a.61.61,0,0,1-.6.55H170a.58.58,0,0,1-.56-.55v-1a.44.44,0,0,0-.12-.28l-.67-.67a.3.3,0,0,0-.28-.12h-3.86a.33.33,0,0,0-.28.12l-.63.67a.39.39,0,0,0-.16.28v14.2a.78.78,0,0,0,.16.28l.51.55h4.66l.55-.55a.5.5,0,0,0,.12-.28v-3.5Z" transform="translate(0 0)"/><path class="cls-1" d="M185.86,11h7a.54.54,0,0,1,.56.52v4.77a.54.54,0,0,1-.53.55h-7V22h9.19a.57.57,0,0,1,.56.56v4.73a.57.57,0,0,1-.56.56H180.6a.54.54,0,0,1-.55-.53V.56a.54.54,0,0,1,.52-.56h14.51a.57.57,0,0,1,.56.56V5.29a.57.57,0,0,1-.56.56h-9.19Z" transform="translate(0 0)"/><path class="cls-1" d="M216.6.68V5.37a.57.57,0,0,1-.58.56H211V27.32a.56.56,0,0,1-.56.48h-4.7a.56.56,0,0,1-.56-.48V5.89h-5a.57.57,0,0,1-.59-.55h0V.68a.61.61,0,0,1,.59-.6H216a.61.61,0,0,1,.59.6" transform="translate(0 0)"/><path class="cls-1" d="M238.14.56V27.24a.55.55,0,0,1-.54.56h-4.75a.57.57,0,0,1-.56-.56V16.82h-6V27.24a.57.57,0,0,1-.56.56H221a.55.55,0,0,1-.56-.54V.56A.55.55,0,0,1,221,0h4.75a.57.57,0,0,1,.56.56V11h6V.56a.57.57,0,0,1,.56-.56h4.75a.55.55,0,0,1,.56.54v0" transform="translate(0 0)"/><path class="cls-1" d="M248.8,11h7a.54.54,0,0,1,.56.52v4.77a.54.54,0,0,1-.53.55h-7V22H258a.57.57,0,0,1,.56.56v4.73a.57.57,0,0,1-.56.56H243.51a.55.55,0,0,1-.56-.54V.56a.55.55,0,0,1,.54-.56H258a.57.57,0,0,1,.56.56V5.29a.57.57,0,0,1-.56.56H248.8Z" transform="translate(0 0)"/><path class="cls-1" d="M269,11.73h4.17a.36.36,0,0,0,.28-.12l.64-.63a.35.35,0,0,0,.12-.32V6.89a.35.35,0,0,0-.12-.32l-.64-.63a.35.35,0,0,0-.32-.12H269Zm11.05,2.16a1.3,1.3,0,0,1-.39,1l-2.27,2.26-.12.08,4.06,10c.08.28-.28.56-.56.56h-5.33a.83.83,0,0,1-.71-.56l-3.9-9.66H269v9.66a.57.57,0,0,1-.56.56h-4.73a.6.6,0,0,1-.56-.56V.56a.57.57,0,0,1,.56-.56h12.65a1.29,1.29,0,0,1,1,.4l2.27,2.27a1.46,1.46,0,0,1,.39,1.11Z" transform="translate(0 0)"/><path class="cls-1" d="M314.2,22.51v4.73a.58.58,0,0,1-.6.56H297.7a.58.58,0,0,1-.6-.56h0V.56h0a.56.56,0,0,1,.56-.44h4.69a.56.56,0,0,1,.56.44V22H313.6a.62.62,0,0,1,.6.56" transform="translate(0 0)"/><path class="cls-1" d="M324,.68V27.24a.54.54,0,0,1-.52.56h-4.77a.54.54,0,0,1-.55-.53V.68a.54.54,0,0,1,.52-.56h4.77a.54.54,0,0,1,.55.53v0" transform="translate(0 0)"/><path class="cls-1" d="M347.4,27.24c.08.28-.28.56-.6.56h-5.29a.86.86,0,0,1-.71-.56l-4.89-11-2.07,2.86v8.11a.55.55,0,0,1-.54.56h-4.7a.55.55,0,0,1-.56-.54V.56A.57.57,0,0,1,328.6,0h4.73a.57.57,0,0,1,.56.56V9.27L339.77.56c.2-.28.4-.56.72-.56h6c.28,0,.84.28.72.56L339.73,11l7.51,15.87Z" transform="translate(0 0)"/><path class="cls-1" d="M357,11h7a.54.54,0,0,1,.56.52v4.77a.54.54,0,0,1-.53.55h-7V22h9.19a.57.57,0,0,1,.56.56v4.73a.57.57,0,0,1-.56.56H351.67a.54.54,0,0,1-.55-.53V.56a.54.54,0,0,1,.52-.56h14.51a.57.57,0,0,1,.56.56V5.29a.57.57,0,0,1-.56.56H357Z" transform="translate(0 0)"/><path class="cls-1" d="M8.19,54.38h4.1a.35.35,0,0,0,.32-.12l.67-.64a.59.59,0,0,0,.12-.31V49.57a.44.44,0,0,0-.12-.28l-.68-.68a.6.6,0,0,0-.32-.12H8.18Zm11.06,2.11h0a1.44,1.44,0,0,1-.44,1L16.6,59.83a1.3,1.3,0,0,1-1,.39H8.19v9.67a.61.61,0,0,1-.6.55H2.9a.55.55,0,0,1-.55-.55h0V43.2a.54.54,0,0,1,.53-.55H15.6a1.29,1.29,0,0,1,1,.4l2.23,2.26a1.44,1.44,0,0,1,.44,1Z" transform="translate(0 0)"/><path class="cls-1" d="M29.6,43.36V69.89a.54.54,0,0,1-.53.55H24.29a.54.54,0,0,1-.55-.53V43.36a.54.54,0,0,1,.53-.55H29a.54.54,0,0,1,.55.53v0" transform="translate(0 0)"/><path class="cls-1" d="M40.18,53.66h7a.54.54,0,0,1,.55.53V59a.54.54,0,0,1-.52.56h-7v5.13h9.18a.57.57,0,0,1,.56.56v4.69a.56.56,0,0,1-.56.55H34.89a.54.54,0,0,1-.56-.52V43.24a.54.54,0,0,1,.53-.55h14.5a.58.58,0,0,1,.56.55V48a.58.58,0,0,1-.56.55H40.18Z" transform="translate(0 0)"/><path class="cls-1" d="M127,43.36V69.89a.54.54,0,0,1-.53.55h-4.78a.53.53,0,0,1-.55-.53V43.36a.54.54,0,0,1,.53-.55h4.76a.54.54,0,0,1,.55.53v0" transform="translate(0 0)"/><path class="cls-1" d="M137.56,53.66h7a.54.54,0,0,1,.55.53V59a.54.54,0,0,1-.52.56h-7v5.13h9.18a.58.58,0,0,1,.56.56v4.69a.56.56,0,0,1-.56.55H132.27a.54.54,0,0,1-.56-.52V43.24a.54.54,0,0,1,.53-.55h14.5a.58.58,0,0,1,.56.55V48a.58.58,0,0,1-.56.55h-9.18Z" transform="translate(0 0)"/><path class="cls-1" d="M60.41,54.42H64.6a.36.36,0,0,0,.28-.12l.64-.64a.35.35,0,0,0,.12-.32V49.61a.35.35,0,0,0-.12-.32l-.64-.64a.34.34,0,0,0-.31-.12H60.41Zm11,2.15a1.3,1.3,0,0,1-.39,1L68.8,59.89l-.12.08,4.06,10c.08.28-.28.55-.56.55H66.85a.83.83,0,0,1-.71-.55l-3.9-9.67H60.41v9.59a.56.56,0,0,1-.56.55H55.12a.59.59,0,0,1-.52-.55V43.24a.58.58,0,0,1,.56-.55H67.77a1.3,1.3,0,0,1,1,.39L71,45.35a1.49,1.49,0,0,1,.39,1.12Z" transform="translate(0 0)"/><path class="cls-1" d="M83.19,48.53a.25.25,0,0,0-.24.12l-.67.64a.6.6,0,0,0-.12.32V63.8a.5.5,0,0,0,.12.28l.55.56h4.62l.55-.56a.33.33,0,0,0,.12-.28V49.61a.35.35,0,0,0-.12-.32l-.63-.64a.36.36,0,0,0-.28-.12ZM94,66.79a1.29,1.29,0,0,1-.4,1L91.3,70a1.35,1.35,0,0,1-1,.43H80A1.43,1.43,0,0,1,79,70l-2.23-2.23a1.44,1.44,0,0,1-.44-1V46.39a1.44,1.44,0,0,1,.44-1L79,43.17a1.25,1.25,0,0,1,1-.44H90.27a1.25,1.25,0,0,1,1,.44l2.33,2.18a1.29,1.29,0,0,1,.4,1Z" transform="translate(0 0)"/><path class="cls-1" d="M107.86,60.3a.55.55,0,0,1-.55-.55h0V55a.54.54,0,0,1,.52-.56h7.91a.57.57,0,0,1,.59.56V67.1h0a1.54,1.54,0,0,1-.39.72l-2.23,2.23a1.45,1.45,0,0,1-1,.43h-10.3a1.43,1.43,0,0,1-1-.43l-2.23-2.23a1.3,1.3,0,0,1-.39-1h0V46.39h0a1.3,1.3,0,0,1,.39-1l2.23-2.23a1.43,1.43,0,0,1,1-.43H112.6a1.45,1.45,0,0,1,1,.43l2.23,2.23a1.45,1.45,0,0,1,.43,1h0V50.6a.61.61,0,0,1-.59.56H111a.58.58,0,0,1-.55-.56v-1a.44.44,0,0,0-.12-.28l-.68-.68a.3.3,0,0,0-.28-.12H105.6a.33.33,0,0,0-.28.12l-.64.68a.39.39,0,0,0-.16.28V63.8a.78.78,0,0,0,.16.28l.52.56h4.65l.56-.56a.5.5,0,0,0,.12-.28V60.3Z" transform="translate(0 0)"/><path class="cls-1" d="M168.73,46.39h0v4.09a.58.58,0,0,1-.6.56h-4.69a.54.54,0,0,1-.56-.54v-2H158a.33.33,0,0,0-.28.12l-.63.64a.49.49,0,0,0-.16.32v3.22h0a.35.35,0,0,0,.12.32l.55.55H165a1.25,1.25,0,0,1,1,.44l2.23,2.23a1.44,1.44,0,0,1,.44,1v9.47a1.44,1.44,0,0,1-.44,1L166,70a1.45,1.45,0,0,1-1,.43h-10.3a1.43,1.43,0,0,1-1-.43l-2.22-2.23a1.29,1.29,0,0,1-.4-1,.11.11,0,0,1,0-.08V62.89a.58.58,0,0,1,.6-.56h4.74a.55.55,0,0,1,.56.54v1.81h5c.08,0,.12,0,.2-.12l.67-.64a.59.59,0,0,0,.12-.31v-3a.6.6,0,0,0-.12-.32l-.67-.63c-.08-.08-.12-.12-.2-.12h-7.16a1.44,1.44,0,0,1-1-.44l-2.3-2.21a1.29,1.29,0,0,1-.4-1h0v-9.5h0a1.29,1.29,0,0,1,.4-1l2.22-2.23a1.3,1.3,0,0,1,1-.43H165a1.24,1.24,0,0,1,1,.43l2.23,2.23a1.44,1.44,0,0,1,.44,1Z" transform="translate(0 0)"/><path class="cls-1" d="M196.64,61.34l-2.39-8.15-2.42,8.15ZM205,69.89c.08.28-.28.55-.6.55H199.9a.84.84,0,0,1-.72-.55l-1-3.22h-8l-1,3.22a.88.88,0,0,1-.71.55h-4.54c-.32,0-.67-.27-.59-.55l7.87-26.65h0c.16-.35.28-.55.56-.55h4.73c.28,0,.44.2.55.55h0c2.63,8.87,5.25,17.78,7.88,26.65" transform="translate(0 0)"/><path class="cls-1" d="M227.41,43.2V69.89a.56.56,0,0,1-.56.55h-6.28a.84.84,0,0,1-.72-.55L215,56.61V69.89a.59.59,0,0,1-.56.55h-4.73a.55.55,0,0,1-.56-.55V43.2a.54.54,0,0,1,.53-.55h5.95c.28,0,.48.2.56.55h0l5.25,15.36.08.43V43.2a.58.58,0,0,1,.56-.55h4.73a.54.54,0,0,1,.56.52v0" transform="translate(0 0)"/><path class="cls-1" d="M238,48.53V64.64h4.54l.55-.56a.5.5,0,0,0,.12-.28V49.61a.5.5,0,0,0-.12-.28l-.67-.68a.31.31,0,0,0-.28-.12Zm10.62,19.29-2.23,2.23a1.45,1.45,0,0,1-1,.43H232.73a.53.53,0,0,1-.55-.53V43.24a.54.54,0,0,1,.53-.55h12.7a1.58,1.58,0,0,1,1,.44l2.23,2.22a1.63,1.63,0,0,1,.44,1V66.79a1.44,1.44,0,0,1-.44,1" transform="translate(0 0)"/><path class="cls-1" d="M284.31,69.89V70a.57.57,0,0,1-.24.36h-5.28c-.28,0-.48-.23-.56-.55l-2.78-10-.28-2-.24,2-3.1,10c-.12.36-.28.55-.6.55H266a.37.37,0,0,1-.23-.36h-.05v-.12l-2.1-26.57a.57.57,0,0,1,.55-.55h4.7a.61.61,0,0,1,.59.55l1,13.52,2.27-6.16a.83.83,0,0,1,.71-.56h3.18a1,1,0,0,1,.76.56l2.2,6.21,1-13.52a.57.57,0,0,1,.55-.55h4.74a.61.61,0,0,1,.55.55Z" transform="translate(0 0)"/><path class="cls-1" d="M307.77,43.24V69.89a.54.54,0,0,1-.53.55h-4.76a.55.55,0,0,1-.56-.55V59.51h-6V69.89a.56.56,0,0,1-.56.55h-4.73a.54.54,0,0,1-.56-.52V43.24a.54.54,0,0,1,.53-.55h4.81a.58.58,0,0,1,.56.55V53.66h6V43.24a.58.58,0,0,1,.56-.55h4.73a.54.54,0,0,1,.56.52v0" transform="translate(0 0)"/><path class="cls-1" d="M324.52,61.34l-2.39-8.15-2.42,8.15Zm8.39,8.55c.08.28-.28.55-.6.55h-4.53a.85.85,0,0,1-.71-.55l-1-3.22h-8l-1,3.22a.85.85,0,0,1-.71.55h-4.53c-.32,0-.68-.27-.6-.55l7.87-26.65h0c.16-.35.28-.55.56-.55h4.73c.28,0,.44.2.56.55h0l8,26.65" transform="translate(0 0)"/><path class="cls-1" d="M350.41,43.36v4.7a.58.58,0,0,1-.59.55h-5.06V70a.54.54,0,0,1-.56.47h-4.69A.54.54,0,0,1,339,70V48.61H333.9a.56.56,0,0,1-.59-.55h0v-4.7a.61.61,0,0,1,.59-.59h15.91a.61.61,0,0,1,.6.59" transform="translate(0 0)"/><path class="cls-1" d="M360.21,53.66h7a.55.55,0,0,1,.56.54V59a.56.56,0,0,1-.54.56h-7v5.13h9.2a.57.57,0,0,1,.56.56v4.69a.56.56,0,0,1-.56.55H354.92a.54.54,0,0,1-.51-.55V43.24a.54.54,0,0,1,.53-.55h14.47a.58.58,0,0,1,.56.55V48a.58.58,0,0,1-.56.55h-9.2Z" transform="translate(0 0)"/><path class="cls-1" d="M394.31,43.36l-6.9,26.53a.87.87,0,0,1-.75.59h-5.29a.84.84,0,0,1-.72-.59l-6.94-26.53c-.16-.27.16-.71.48-.71h5c.32,0,.48.2.6.55l3.58,15.35.32,2.35.39-2.35L388.3,43.2a.6.6,0,0,1,.6-.55h5a.56.56,0,0,1,.48.65s0,0,0,.06" transform="translate(0 0)"/><path class="cls-1" d="M403.84,53.66h7a.55.55,0,0,1,.56.54V59a.56.56,0,0,1-.54.56h-7v5.13H413a.56.56,0,0,1,.55.56v4.69a.55.55,0,0,1-.55.55H398.55a.53.53,0,0,1-.55-.51V43.24a.54.54,0,0,1,.53-.55H413a.57.57,0,0,1,.55.55V48a.57.57,0,0,1-.55.55h-9.19Z" transform="translate(0 0)"/><path class="cls-1" d="M424.07,54.42h4.18a.36.36,0,0,0,.27-.12l.64-.64a.38.38,0,0,0,.12-.32V49.61a.38.38,0,0,0-.12-.32l-.64-.64a.34.34,0,0,0-.31-.12h-4.14Zm11.06,2.15a1.29,1.29,0,0,1-.4,1l-2.27,2.32-.12.08,4.07,9.92c.08.28-.28.55-.56.55h-5.34a.85.85,0,0,1-.71-.55l-3.9-9.67h-1.83v9.67a.56.56,0,0,1-.56.55h-4.73a.58.58,0,0,1-.55-.55V43.24a.56.56,0,0,1,.55-.55h12.63a1.3,1.3,0,0,1,1,.39l2.27,2.27a1.46,1.46,0,0,1,.4,1.12Z" transform="translate(0 0)"/><path class="cls-1" d="M8,85.83V112.4a.54.54,0,0,1-.52.56H2.66a.54.54,0,0,1-.55-.53V85.83a.54.54,0,0,1,.53-.55H7.4a.54.54,0,0,1,.55.53v0" transform="translate(0 0)"/><path class="cls-1" d="M30.12,88.89h0V93a.58.58,0,0,1-.6.56H24.87a.55.55,0,0,1-.56-.54V91H19.38a.33.33,0,0,0-.28.12l-.63.64a.49.49,0,0,0-.16.32v3.22h0a.35.35,0,0,0,.12.32l.55.55h7.44a1.25,1.25,0,0,1,1,.44l2.23,2.23a1.44,1.44,0,0,1,.44,1v9.43a1.44,1.44,0,0,1-.44,1l-2.23,2.23a1.44,1.44,0,0,1-1,.44H16.16a1.44,1.44,0,0,1-1-.44l-2.26-2.19a1.29,1.29,0,0,1-.4-1,.11.11,0,0,1,0-.08v-3.86a.58.58,0,0,1,.6-.56h4.69a.55.55,0,0,1,.56.54v1.81h5c.08,0,.12,0,.2-.12l.67-.64a.59.59,0,0,0,.12-.31v-3a.6.6,0,0,0-.12-.32l-.67-.63c-.08-.08-.12-.12-.2-.12H16.16a1.4,1.4,0,0,1-1-.44l-2.23-2.22a1.29,1.29,0,0,1-.4-1h0V88.89h0a1.29,1.29,0,0,1,.4-1l2.23-2.22a1.25,1.25,0,0,1,1-.44h10.3a1.25,1.25,0,0,1,1,.44l2.23,2.22a1.44,1.44,0,0,1,.44,1Z" transform="translate(0 0)"/><path class="cls-1" d="M52.66,85.83V112.4a.55.55,0,0,1-.54.56H47.37a.55.55,0,0,1-.56-.54V85.83a.54.54,0,0,1,.53-.55H52.1a.54.54,0,0,1,.56.52v0" transform="translate(0 0)"/><path class="cls-1" d="M75.6,85.68v26.68a.58.58,0,0,1-.55.56H68.8a.88.88,0,0,1-.71-.56L63.24,99.08v13.28a.6.6,0,0,1-.56.56H58a.57.57,0,0,1-.56-.56V85.68a.55.55,0,0,1,.54-.56h5.94c.28,0,.48.2.56.56h0L69.68,101l.08.43V85.68a.58.58,0,0,1,.55-.56h4.74a.54.54,0,0,1,.55.53v0" transform="translate(0 0)"/><path class="cls-1" d="M97.89,88.89h0V93a.58.58,0,0,1-.6.56H92.6A.55.55,0,0,1,92,93V91H87.15a.33.33,0,0,0-.28.12l-.63.64a.49.49,0,0,0-.16.32v3.22h0a.35.35,0,0,0,.12.32l.55.55h7.44a1.25,1.25,0,0,1,1,.44l2.23,2.23a1.44,1.44,0,0,1,.44,1v9.43a1.44,1.44,0,0,1-.44,1l-2.23,2.23a1.44,1.44,0,0,1-1,.44H83.93a1.44,1.44,0,0,1-1-.44l-2.23-2.23a1.29,1.29,0,0,1-.4-1,.11.11,0,0,1,0-.08v-3.86a.58.58,0,0,1,.6-.56h4.69a.55.55,0,0,1,.56.54v1.81h5c.08,0,.12,0,.2-.12l.67-.64a.59.59,0,0,0,.12-.31v-3a.6.6,0,0,0-.12-.32l-.67-.63c-.08-.08-.12-.12-.2-.12H83.93a1.4,1.4,0,0,1-1-.44L80.7,99.3a1.29,1.29,0,0,1-.4-1h0V88.89h0a1.29,1.29,0,0,1,.4-1l2.23-2.22a1.25,1.25,0,0,1,1-.44h10.3a1.25,1.25,0,0,1,1,.44l2.23,2.22a1.44,1.44,0,0,1,.44,1Z" transform="translate(0 0)"/><path class="cls-1" d="M108.3,85.83V112.4a.54.54,0,0,1-.52.56H103a.55.55,0,0,1-.56-.54V85.83a.54.54,0,0,1,.53-.55h4.76a.54.54,0,0,1,.55.53v0" transform="translate(0 0)"/><path class="cls-1" d="M118.86,91v16.11h4.54l.55-.56a.5.5,0,0,0,.12-.28V92.08a.44.44,0,0,0-.12-.28l-.67-.68A.3.3,0,0,0,123,91Zm10.62,19.29-2.22,2.23a1.51,1.51,0,0,1-1,.44H113.6a.54.54,0,0,1-.55-.53V85.72a.54.54,0,0,1,.52-.56h12.68a1.63,1.63,0,0,1,1,.44l2.22,2.22a1.63,1.63,0,0,1,.44,1v20.4a1.44,1.44,0,0,1-.44,1" transform="translate(0 0)"/><path class="cls-1" d="M140.52,96.13h7a.55.55,0,0,1,.56.54v4.75a.55.55,0,0,1-.54.56h-7v5.13h9.19a.56.56,0,0,1,.55.56v4.73a.55.55,0,0,1-.55.55H135.23a.54.54,0,0,1-.55-.53V85.72a.54.54,0,0,1,.52-.56h14.51a.56.56,0,0,1,.55.56v4.73a.55.55,0,0,1-.55.55h-9.19Z" transform="translate(0 0)"/><path class="cls-1" d="M178.22,103.81l-2.39-8.15-2.43,8.15Zm8.39,8.59c.08.28-.28.56-.6.56h-4.53a.87.87,0,0,1-.72-.56l-.95-3.22h-8l-1,3.22a.87.87,0,0,1-.72.56H165.6c-.32,0-.68-.28-.6-.56l7.88-26.64h0c.16-.36.28-.56.55-.56h4.74c.27,0,.43.2.55.56h0c2.63,8.86,5.25,17.77,7.88,26.64" transform="translate(0 0)"/><path class="cls-1" d="M208.27,96.89h4.1a.35.35,0,0,0,.32-.12l.67-.64a.59.59,0,0,0,.12-.31V92.08a.44.44,0,0,0-.12-.28l-.67-.68a.6.6,0,0,0-.32-.12h-4.1ZM219.33,99h0a1.44,1.44,0,0,1-.44,1l-2.23,2.27a1.29,1.29,0,0,1-1,.4H208.3v9.66a.61.61,0,0,1-.59.56H203a.58.58,0,0,1-.55-.56V85.68a.54.54,0,0,1,.52-.56H215.6a1.29,1.29,0,0,1,1,.4l2.23,2.26a1.44,1.44,0,0,1,.44,1Z" transform="translate(0 0)"/><path class="cls-1" d="M229.66,85.83V112.4a.54.54,0,0,1-.52.56h-4.76a.55.55,0,0,1-.56-.54V85.83a.54.54,0,0,1,.53-.55h4.76a.54.54,0,0,1,.55.53v0" transform="translate(0 0)"/><path class="cls-1" d="M240.26,96.13h7a.55.55,0,0,1,.56.54v4.75a.55.55,0,0,1-.54.56h-7v5.13h9.19a.56.56,0,0,1,.55.56v4.73a.55.55,0,0,1-.55.55H235a.53.53,0,0,1-.55-.51V85.72a.54.54,0,0,1,.52-.56h14.51a.56.56,0,0,1,.55.56v4.73a.55.55,0,0,1-.55.55h-9.19Z" transform="translate(0 0)"/><path class="cls-1" d="M260.49,96.89h4.18a.36.36,0,0,0,.27-.12l.64-.64a.34.34,0,0,0,.12-.31V92.08a.35.35,0,0,0-.12-.32l-.64-.64a.34.34,0,0,0-.31-.12h-4.14ZM271.6,99a1.29,1.29,0,0,1-.4,1l-2.27,2.27-.12.08,4.06,10c.08.28-.28.55-.56.55H267a.85.85,0,0,1-.71-.55l-3.9-9.67h-1.83v9.67a.56.56,0,0,1-.56.55H255.2a.58.58,0,0,1-.55-.55V85.72a.56.56,0,0,1,.55-.56h12.65a1.29,1.29,0,0,1,1,.4l2.27,2.26a1.46,1.46,0,0,1,.4,1.12Z" transform="translate(0 0)"/><path class="cls-1" d="M283.27,91a.25.25,0,0,0-.24.12l-.67.64a.6.6,0,0,0-.12.32v14.2a.55.55,0,0,0,.12.27l.56.56h4.61l.56-.56a.32.32,0,0,0,.11-.27V92.08a.35.35,0,0,0-.11-.32l-.64-.64a.36.36,0,0,0-.28-.12Zm10.78,18.26a1.29,1.29,0,0,1-.4,1l-2.26,2.23a1.39,1.39,0,0,1-1,.43h-10.3a1.43,1.43,0,0,1-1-.43l-2.23-2.23a1.44,1.44,0,0,1-.44-1V88.89a1.44,1.44,0,0,1,.44-1l2.23-2.22a1.25,1.25,0,0,1,1-.44h10.26a1.28,1.28,0,0,1,1,.44l2.26,2.22a1.29,1.29,0,0,1,.4,1Z" transform="translate(0 0)"/><path class="cls-1" d="M308,102.78a.57.57,0,0,1-.56-.56V97.49a.55.55,0,0,1,.54-.56h7.89a.58.58,0,0,1,.6.56h0v12.09h0a1.4,1.4,0,0,1-.4.71l-2.23,2.23a1.43,1.43,0,0,1-1,.43h-10.3a1.43,1.43,0,0,1-1-.43l-2.23-2.23a1.29,1.29,0,0,1-.4-1h0V88.89h0a1.29,1.29,0,0,1,.4-1l2.23-2.22a1.4,1.4,0,0,1,1-.44h10.3a1.44,1.44,0,0,1,1,.44L316,87.89a1.51,1.51,0,0,1,.44,1h0V93.1a.62.62,0,0,1-.6.56h-4.69a.57.57,0,0,1-.56-.56v-1a.44.44,0,0,0-.12-.28l-.68-.68a.28.28,0,0,0-.27-.12H305.6a.33.33,0,0,0-.28.12l-.64.68a.39.39,0,0,0-.15.28v14.19a.76.76,0,0,0,.15.28l.52.56h4.65l.56-.56a.5.5,0,0,0,.12-.28V102.8Z" transform="translate(0 0)"/><path class="cls-1" d="M326.84,85.83V112.4a.55.55,0,0,1-.54.56h-4.7a.55.55,0,0,1-.56-.54V85.83a.54.54,0,0,1,.53-.55h4.76a.54.54,0,0,1,.56.52v0" transform="translate(0 0)"/><path class="cls-1" d="M340,112.4a.55.55,0,0,1-.55.47h-4.7a.55.55,0,0,1-.55-.47V107a.54.54,0,0,1,.52-.56h4.73a.54.54,0,0,1,.55.53v5.4Z" transform="translate(0 0)"/></svg>