<svg id="Layer_1" data-name="Layer 1" xmlns="http://www.w3.org/2000/svg" viewBox="0 0 416.6 112.96"><defs><style>.cls-1{fill:#fff;}</style></defs><title>pierogi</title><path class="cls-1" d="M31,41.31v.12a.58.58,0,0,1-.24.36s0,0-.08,0a.18.18,0,0,1-.12,0,.14.14,0,0,1-.08,0h-5c-.28,0-.48-.24-.56-.56l-2.78-10-.28-2-.24,2-3.1,10c-.12.36-.28.56-.6.56H13s0,0-.07,0-.08,0-.12,0a0,0,0,0,1,0,0,.38.38,0,0,1-.24-.36,0,0,0,0,1,0,0v-.08L10.4,14.75a.57.57,0,0,1,.56-.56h4.69a.6.6,0,0,1,.59.56l1,13.52,2.27-6.16a.86.86,0,0,1,.71-.56h3.18a1,1,0,0,1,.76.56l2.23,6.16,1-13.52a.57.57,0,0,1,.56-.56h4.73a.6.6,0,0,1,.56.56Z" transform="translate(-10.4 -14.11)"/><path class="cls-1" d="M42.73,25.09h7a.54.54,0,0,1,.56.55v4.74a.54.54,0,0,1-.56.55h-7v5.13h9.19a.56.56,0,0,1,.55.56v4.73a.56.56,0,0,1-.55.56H37.44a.54.54,0,0,1-.55-.56V14.67a.54.54,0,0,1,.55-.56H51.92a.56.56,0,0,1,.55.56V19.4a.56.56,0,0,1-.55.56H42.73Z" transform="translate(-10.4 -14.11)"/><path class="cls-1" d="M78.63,31.73a.57.57,0,0,1-.55-.56V26.44a.54.54,0,0,1,.55-.56h7.88a.57.57,0,0,1,.59.56V38.53h0a1.37,1.37,0,0,1-.39.71l-2.23,2.23a1.43,1.43,0,0,1-1,.44H73.11a1.44,1.44,0,0,1-1-.44l-2.22-2.23a1.29,1.29,0,0,1-.4-1l0,0V17.81h0a1.29,1.29,0,0,1,.4-1l2.22-2.23a1.44,1.44,0,0,1,1-.44h10.3a1.43,1.43,0,0,1,1,.44l2.23,2.23a1.43,1.43,0,0,1,.43,1h0l0,0v4.22a.6.6,0,0,1-.59.55H81.82a.57.57,0,0,1-.56-.55V21a.43.43,0,0,0-.12-.28l-.68-.67a.28.28,0,0,0-.27-.12H76.33a.33.33,0,0,0-.28.12l-.64.67a.39.39,0,0,0-.15.28v14.2a.55.55,0,0,0,.15.28l.52.55h4.65l.56-.55a.53.53,0,0,0,.12-.28v-3.5Z" transform="translate(-10.4 -14.11)"/><path class="cls-1" d="M98.57,20a.26.26,0,0,0-.23.12l-.68.63a.59.59,0,0,0-.12.32v14.2a.53.53,0,0,0,.12.28l.56.55h4.61l.56-.55a.33.33,0,0,0,.12-.28V21a.36.36,0,0,0-.12-.32l-.64-.63a.38.38,0,0,0-.28-.12Zm10.78,18.25a1.29,1.29,0,0,1-.4,1l-2.26,2.23a1.38,1.38,0,0,1-1,.44H95.39a1.43,1.43,0,0,1-1-.44l-2.23-2.23a1.41,1.41,0,0,1-.44-1V17.81a1.43,1.43,0,0,1,.44-1l2.23-2.23a1.25,1.25,0,0,1,1-.44h10.26a1.27,1.27,0,0,1,1,.44L109,16.78a1.3,1.3,0,0,1,.4,1Z" transform="translate(-10.4 -14.11)"/><path class="cls-1" d="M141.8,14.79v4.69a.58.58,0,0,1-.6.56h-5V41.43a.56.56,0,0,1-.56.48H130.9a.56.56,0,0,1-.56-.48V20h-5a.57.57,0,0,1-.59-.56V14.79a.61.61,0,0,1,.59-.6H141.2a.62.62,0,0,1,.6.6" transform="translate(-10.4 -14.11)"/><path class="cls-1" d="M152.57,20a.27.27,0,0,0-.24.12l-.68.63a.59.59,0,0,0-.12.32v14.2a.53.53,0,0,0,.12.28l.56.55h4.61l.56-.55a.33.33,0,0,0,.12-.28V21a.36.36,0,0,0-.12-.32l-.64-.63a.38.38,0,0,0-.28-.12Zm10.77,18.25a1.29,1.29,0,0,1-.4,1l-2.26,2.23a1.38,1.38,0,0,1-1,.44h-10.3a1.43,1.43,0,0,1-1-.44l-2.23-2.23a1.43,1.43,0,0,1-.43-1V17.81a1.44,1.44,0,0,1,.43-1l2.23-2.23a1.25,1.25,0,0,1,1-.44h10.26a1.27,1.27,0,0,1,1,.44l2.26,2.23a1.3,1.3,0,0,1,.4,1Z" transform="translate(-10.4 -14.11)"/><path class="cls-1" d="M177.24,31.73a.57.57,0,0,1-.56-.56V26.44a.55.55,0,0,1,.56-.56h7.87a.58.58,0,0,1,.6.56V38.53h0a1.4,1.4,0,0,1-.4.71L183,41.47a1.43,1.43,0,0,1-1,.44h-10.3a1.41,1.41,0,0,1-1-.44l-2.23-2.23a1.29,1.29,0,0,1-.4-1l0,0V17.81h0a1.29,1.29,0,0,1,.4-1l2.23-2.23a1.41,1.41,0,0,1,1-.44H182a1.43,1.43,0,0,1,1,.44l2.23,2.23a1.41,1.41,0,0,1,.44,1h0l0,0v4.22a.61.61,0,0,1-.6.55h-4.69a.57.57,0,0,1-.56-.55V21a.43.43,0,0,0-.12-.28l-.67-.67a.3.3,0,0,0-.28-.12h-3.86a.33.33,0,0,0-.28.12l-.63.67a.38.38,0,0,0-.16.28v14.2a.69.69,0,0,0,.16.28l.51.55h4.66l.55-.55a.53.53,0,0,0,.12-.28v-3.5Z" transform="translate(-10.4 -14.11)"/><path class="cls-1" d="M196.26,25.09h7a.54.54,0,0,1,.56.55v4.74a.54.54,0,0,1-.56.55h-7v5.13h9.19a.57.57,0,0,1,.56.56v4.73a.57.57,0,0,1-.56.56H191a.54.54,0,0,1-.55-.56V14.67a.54.54,0,0,1,.55-.56h14.48a.57.57,0,0,1,.56.56V19.4a.57.57,0,0,1-.56.56h-9.19Z" transform="translate(-10.4 -14.11)"/><path class="cls-1" d="M227,14.79v4.69a.57.57,0,0,1-.59.56h-5.05V41.43a.56.56,0,0,1-.56.48H216.1a.56.56,0,0,1-.56-.48V20h-5a.57.57,0,0,1-.59-.56V14.79a.61.61,0,0,1,.59-.6H226.4a.61.61,0,0,1,.59.6" transform="translate(-10.4 -14.11)"/><path class="cls-1" d="M248.54,14.67V41.35a.55.55,0,0,1-.56.56h-4.73a.57.57,0,0,1-.56-.56V30.93h-6V41.35a.57.57,0,0,1-.56.56h-4.73a.55.55,0,0,1-.56-.56V14.67a.55.55,0,0,1,.56-.56h4.73a.57.57,0,0,1,.56.56V25.09h6V14.67a.57.57,0,0,1,.56-.56H248a.55.55,0,0,1,.56.56" transform="translate(-10.4 -14.11)"/><path class="cls-1" d="M259.2,25.09h7a.54.54,0,0,1,.56.55v4.74a.54.54,0,0,1-.56.55h-7v5.13h9.18a.57.57,0,0,1,.56.56v4.73a.57.57,0,0,1-.56.56H253.91a.55.55,0,0,1-.56-.56V14.67a.55.55,0,0,1,.56-.56h14.47a.57.57,0,0,1,.56.56V19.4a.57.57,0,0,1-.56.56H259.2Z" transform="translate(-10.4 -14.11)"/><path class="cls-1" d="M279.43,25.84h4.17a.38.38,0,0,0,.28-.12l.64-.63a.36.36,0,0,0,.12-.32V21a.36.36,0,0,0-.12-.32l-.64-.63a.36.36,0,0,0-.32-.12h-4.13ZM290.48,28a1.32,1.32,0,0,1-.39,1l-2.27,2.26-.12.08,4.06,10c.08.28-.28.56-.56.56h-5.33a.84.84,0,0,1-.71-.56l-3.9-9.66h-1.83v9.66a.57.57,0,0,1-.56.56h-4.73a.6.6,0,0,1-.56-.56V14.67a.57.57,0,0,1,.56-.56h12.65a1.3,1.3,0,0,1,1,.4l2.27,2.27a1.44,1.44,0,0,1,.39,1.11Z" transform="translate(-10.4 -14.11)"/><path class="cls-1" d="M324.6,36.62v4.73a.58.58,0,0,1-.6.56H308.1a.58.58,0,0,1-.6-.56V14.67h0a.56.56,0,0,1,.56-.44h4.69a.56.56,0,0,1,.56.44V36.06H324a.61.61,0,0,1,.6.56" transform="translate(-10.4 -14.11)"/><path class="cls-1" d="M334.41,14.79V41.35a.54.54,0,0,1-.55.56h-4.74a.54.54,0,0,1-.55-.56V14.79a.54.54,0,0,1,.55-.56h4.74a.54.54,0,0,1,.55.56" transform="translate(-10.4 -14.11)"/><path class="cls-1" d="M357.8,41.35c.08.28-.28.56-.6.56h-5.29a.86.86,0,0,1-.71-.56l-4.89-11-2.07,2.86v8.11a.55.55,0,0,1-.56.56H339a.55.55,0,0,1-.56-.56V14.67a.57.57,0,0,1,.56-.56h4.73a.57.57,0,0,1,.56.56v8.71l5.88-8.71c.2-.28.4-.56.72-.56h6c.28,0,.84.28.72.56l-7.48,10.46L357.64,41Z" transform="translate(-10.4 -14.11)"/><path class="cls-1" d="M367.36,25.09h7a.54.54,0,0,1,.56.55v4.74a.54.54,0,0,1-.56.55h-7v5.13h9.19a.57.57,0,0,1,.56.56v4.73a.57.57,0,0,1-.56.56H362.07a.54.54,0,0,1-.55-.56V14.67a.54.54,0,0,1,.55-.56h14.48a.57.57,0,0,1,.56.56V19.4a.57.57,0,0,1-.56.56h-9.19Z" transform="translate(-10.4 -14.11)"/><path class="cls-1" d="M18.59,68.49h4.1a.36.36,0,0,0,.32-.12l.67-.64a.57.57,0,0,0,.12-.31V63.68a.43.43,0,0,0-.12-.28L23,62.72a.59.59,0,0,0-.32-.12h-4.1ZM29.65,70.6l0,0h0a1.43,1.43,0,0,1-.44,1L27,73.94a1.31,1.31,0,0,1-1,.39H18.59V84a.6.6,0,0,1-.6.55H13.3a.55.55,0,0,1-.55-.55V57.31a.54.54,0,0,1,.55-.55H26a1.3,1.3,0,0,1,1,.4l2.23,2.26a1.44,1.44,0,0,1,.44,1Z" transform="translate(-10.4 -14.11)"/><path class="cls-1" d="M40,57.47V84a.54.54,0,0,1-.55.55H34.69a.54.54,0,0,1-.55-.55V57.47a.54.54,0,0,1,.55-.55h4.74a.54.54,0,0,1,.55.55" transform="translate(-10.4 -14.11)"/><path class="cls-1" d="M50.58,67.77h7a.54.54,0,0,1,.55.56v4.73a.54.54,0,0,1-.55.56h-7v5.13h9.18a.57.57,0,0,1,.56.56V84a.56.56,0,0,1-.56.55H45.29a.54.54,0,0,1-.56-.55V57.35a.54.54,0,0,1,.56-.55H59.76a.57.57,0,0,1,.56.55v4.74a.57.57,0,0,1-.56.55H50.58Z" transform="translate(-10.4 -14.11)"/><path class="cls-1" d="M70.81,68.53H75a.38.38,0,0,0,.28-.12l.64-.64a.36.36,0,0,0,.12-.32V63.72a.36.36,0,0,0-.12-.32l-.64-.64a.34.34,0,0,0-.31-.12H70.81Zm11,2.15a1.31,1.31,0,0,1-.39,1L79.2,74l-.12.08,4.06,10c.08.28-.28.55-.56.55H77.25a.83.83,0,0,1-.71-.55l-3.9-9.67H70.81V84a.56.56,0,0,1-.56.55H65.52A.59.59,0,0,1,65,84V57.35a.57.57,0,0,1,.56-.55H78.17a1.31,1.31,0,0,1,1,.39l2.27,2.27a1.47,1.47,0,0,1,.39,1.12Z" transform="translate(-10.4 -14.11)"/><path class="cls-1" d="M93.59,62.64a.27.27,0,0,0-.24.12l-.67.64a.59.59,0,0,0-.12.32V77.91a.53.53,0,0,0,.12.28l.55.56h4.62l.55-.56a.33.33,0,0,0,.12-.28V63.72a.36.36,0,0,0-.12-.32l-.63-.64a.38.38,0,0,0-.28-.12ZM104.37,80.9a1.3,1.3,0,0,1-.4,1l-2.27,2.23a1.36,1.36,0,0,1-1,.43H90.41a1.43,1.43,0,0,1-1-.43l-2.23-2.23a1.43,1.43,0,0,1-.44-1V60.5a1.44,1.44,0,0,1,.44-1l2.23-2.22a1.24,1.24,0,0,1,1-.44h10.26a1.24,1.24,0,0,1,1,.44L104,59.46a1.31,1.31,0,0,1,.4,1Z" transform="translate(-10.4 -14.11)"/><path class="cls-1" d="M118.26,74.41a.55.55,0,0,1-.55-.55V69.13a.54.54,0,0,1,.55-.56h7.88a.58.58,0,0,1,.59.56V81.21h0a1.52,1.52,0,0,1-.39.72l-2.23,2.23a1.46,1.46,0,0,1-1,.43h-10.3a1.44,1.44,0,0,1-1-.43l-2.23-2.23a1.31,1.31,0,0,1-.39-1l0,0V60.5h0a1.32,1.32,0,0,1,.39-1l2.23-2.23a1.44,1.44,0,0,1,1-.43H123a1.46,1.46,0,0,1,1,.43l2.23,2.23a1.46,1.46,0,0,1,.43,1h0l0,0v4.21a.61.61,0,0,1-.59.56h-4.7a.57.57,0,0,1-.55-.56v-1a.43.43,0,0,0-.12-.28l-.68-.68a.3.3,0,0,0-.28-.12H116a.33.33,0,0,0-.28.12l-.64.68a.38.38,0,0,0-.16.28V77.91a.69.69,0,0,0,.16.28l.52.56h4.65l.56-.56a.53.53,0,0,0,.12-.28v-3.5Z" transform="translate(-10.4 -14.11)"/><path class="cls-1" d="M137.15,57.47V84a.54.54,0,0,1-.55.55h-4.74a.54.54,0,0,1-.55-.55V57.47a.54.54,0,0,1,.55-.55h4.74a.54.54,0,0,1,.55.55" transform="translate(-10.4 -14.11)"/><path class="cls-1" d="M159.32,60.5l0,0v4.09a.58.58,0,0,1-.6.56h-4.69a.55.55,0,0,1-.56-.56v-2h-4.93a.33.33,0,0,0-.28.12l-.63.64a.5.5,0,0,0-.16.32v3.22l0,0a.36.36,0,0,0,.12.32l.55.55h7.44a1.24,1.24,0,0,1,1,.44l2.23,2.23a1.43,1.43,0,0,1,.44,1V80.9a1.43,1.43,0,0,1-.44,1l-2.23,2.23a1.43,1.43,0,0,1-1,.43h-10.3a1.46,1.46,0,0,1-1-.43l-2.22-2.23a1.3,1.3,0,0,1-.4-1,.14.14,0,0,1,0-.08V77a.58.58,0,0,1,.6-.56H147a.55.55,0,0,1,.56.56v1.79h5c.08,0,.12,0,.2-.12l.67-.64a.57.57,0,0,0,.12-.31v-3a.59.59,0,0,0-.12-.32l-.67-.63c-.08-.08-.12-.12-.2-.12h-7.16a1.44,1.44,0,0,1-1-.44L142.1,71a1.29,1.29,0,0,1-.4-1h0V60.5h0a1.31,1.31,0,0,1,.4-1l2.22-2.23a1.28,1.28,0,0,1,1-.43h10.3a1.25,1.25,0,0,1,1,.43l2.23,2.23a1.44,1.44,0,0,1,.44,1Z" transform="translate(-10.4 -14.11)"/><path class="cls-1" d="M187.23,75.45l-2.39-8.15-2.42,8.15ZM195.62,84c.08.28-.28.55-.6.55h-4.53a.86.86,0,0,1-.72-.55l-1-3.22h-8l-1,3.22a.86.86,0,0,1-.71.55h-4.54c-.32,0-.67-.27-.59-.55l7.87-26.65v0c.16-.35.28-.55.56-.55h4.73c.28,0,.44.2.55.55v0c2.63,8.87,5.25,17.78,7.88,26.65" transform="translate(-10.4 -14.11)"/><path class="cls-1" d="M218,57.31V84a.56.56,0,0,1-.56.55h-6.28a.86.86,0,0,1-.72-.55l-4.85-13.28V84a.59.59,0,0,1-.56.55h-4.73a.56.56,0,0,1-.56-.55V57.31a.54.54,0,0,1,.56-.55h5.92c.28,0,.48.2.56.55h0l5.25,15.36.08.43V57.31a.57.57,0,0,1,.56-.55h4.73a.54.54,0,0,1,.56.55" transform="translate(-10.4 -14.11)"/><path class="cls-1" d="M228.61,62.64V78.75h4.54l.55-.56a.53.53,0,0,0,.12-.28V63.72a.43.43,0,0,0-.12-.28l-.67-.68a.3.3,0,0,0-.28-.12Zm10.62,19.29L237,84.16a1.43,1.43,0,0,1-1,.43H223.32a.54.54,0,0,1-.55-.55V57.35a.54.54,0,0,1,.55-.55H236a1.58,1.58,0,0,1,1,.44l2.23,2.22a1.61,1.61,0,0,1,.44,1V80.9a1.43,1.43,0,0,1-.44,1" transform="translate(-10.4 -14.11)"/><path class="cls-1" d="M274.9,84v.12a.58.58,0,0,1-.24.36s0,0-.08,0a.18.18,0,0,1-.12,0,.14.14,0,0,1-.08,0h-5c-.28,0-.48-.23-.56-.55l-2.78-10-.28-2-.24,2-3.1,10c-.12.36-.28.55-.6.55h-5s0,0-.08,0-.08,0-.12,0,0,0,0,0a.38.38,0,0,1-.23-.36c-.05,0-.05,0-.05,0V84l-2.1-26.57a.57.57,0,0,1,.55-.55h4.7a.61.61,0,0,1,.59.55l1,13.52,2.27-6.16a.84.84,0,0,1,.71-.56h3.18a1,1,0,0,1,.76.56L270.2,71l1-13.52a.57.57,0,0,1,.55-.55h4.74a.6.6,0,0,1,.55.55Z" transform="translate(-10.4 -14.11)"/><path class="cls-1" d="M298.36,57.35V84a.54.54,0,0,1-.56.55h-4.73a.56.56,0,0,1-.56-.55V73.62h-6V84a.56.56,0,0,1-.56.55h-4.73a.54.54,0,0,1-.56-.55V57.35a.54.54,0,0,1,.56-.55H286a.57.57,0,0,1,.56.55V67.77h6V57.35a.57.57,0,0,1,.56-.55h4.73a.54.54,0,0,1,.56.55" transform="translate(-10.4 -14.11)"/><path class="cls-1" d="M315.11,75.45l-2.39-8.15-2.42,8.15ZM323.5,84c.08.28-.28.55-.6.55h-4.53a.85.85,0,0,1-.71-.55l-1-3.22h-8l-1,3.22a.85.85,0,0,1-.71.55h-4.53c-.32,0-.68-.27-.6-.55l7.87-26.65v0c.16-.35.28-.55.56-.55h4.73c.28,0,.44.2.56.55v0L323.5,84" transform="translate(-10.4 -14.11)"/><path class="cls-1" d="M341,57.47v4.7a.57.57,0,0,1-.6.55h-5.05v21.4a.55.55,0,0,1-.56.47h-4.69a.55.55,0,0,1-.56-.47V62.72h-5.05a.57.57,0,0,1-.59-.55v-4.7a.61.61,0,0,1,.59-.59h15.91a.61.61,0,0,1,.6.59" transform="translate(-10.4 -14.11)"/><path class="cls-1" d="M350.8,67.77h7a.55.55,0,0,1,.56.56v4.73a.55.55,0,0,1-.56.56h-7v5.13H360a.57.57,0,0,1,.56.56V84a.56.56,0,0,1-.56.55H345.51A.54.54,0,0,1,345,84V57.35a.54.54,0,0,1,.55-.55H360a.57.57,0,0,1,.56.55v4.74a.57.57,0,0,1-.56.55H350.8Z" transform="translate(-10.4 -14.11)"/><path class="cls-1" d="M384.9,57.47,378,84a.88.88,0,0,1-.75.59h-5.29a.84.84,0,0,1-.72-.59L364.3,57.47c-.16-.27.16-.71.48-.71h5c.32,0,.48.2.6.55l3.58,15.35.32,2.35.39-2.35,4.22-15.35a.6.6,0,0,1,.6-.55h5a.57.57,0,0,1,.47.71" transform="translate(-10.4 -14.11)"/><path class="cls-1" d="M394.43,67.77h7a.55.55,0,0,1,.56.56v4.73a.55.55,0,0,1-.56.56h-7v5.13h9.19a.56.56,0,0,1,.55.56V84a.55.55,0,0,1-.55.55H389.14a.53.53,0,0,1-.55-.55V57.35a.54.54,0,0,1,.55-.55h14.48a.56.56,0,0,1,.55.55v4.74a.56.56,0,0,1-.55.55h-9.19Z" transform="translate(-10.4 -14.11)"/><path class="cls-1" d="M414.66,68.53h4.18a.35.35,0,0,0,.27-.12l.64-.64a.36.36,0,0,0,.12-.32V63.72a.36.36,0,0,0-.12-.32l-.64-.64a.34.34,0,0,0-.31-.12h-4.14Zm11.06,2.15a1.3,1.3,0,0,1-.4,1L423.05,74l-.12.08L427,84c.08.28-.28.55-.56.55H421.1a.85.85,0,0,1-.71-.55l-3.9-9.67h-1.83V84a.56.56,0,0,1-.56.55h-4.73a.58.58,0,0,1-.55-.55V57.35a.56.56,0,0,1,.55-.55H422a1.31,1.31,0,0,1,1,.39l2.27,2.27a1.45,1.45,0,0,1,.4,1.12Z" transform="translate(-10.4 -14.11)"/><path class="cls-1" d="M18.35,99.94v26.57a.54.54,0,0,1-.55.56H13.06a.54.54,0,0,1-.55-.56V99.94a.54.54,0,0,1,.55-.55H17.8a.54.54,0,0,1,.55.55" transform="translate(-10.4 -14.11)"/><path class="cls-1" d="M40.52,103l0,0v4.09a.58.58,0,0,1-.6.56H35.27a.55.55,0,0,1-.56-.56v-2H29.78a.33.33,0,0,0-.28.12l-.63.64a.5.5,0,0,0-.16.32v3.22l0,0a.36.36,0,0,0,.12.32l.55.55h7.44a1.24,1.24,0,0,1,1,.44l2.23,2.23a1.43,1.43,0,0,1,.44,1v9.43a1.43,1.43,0,0,1-.44,1l-2.23,2.23a1.47,1.47,0,0,1-1,.44H26.56a1.47,1.47,0,0,1-1-.44L23.3,124.4a1.3,1.3,0,0,1-.4-1,.14.14,0,0,1,0-.08v-3.86a.58.58,0,0,1,.6-.56h4.69a.55.55,0,0,1,.56.56v1.79h5c.08,0,.12,0,.2-.12l.67-.64a.57.57,0,0,0,.12-.31v-3a.61.61,0,0,0-.12-.32l-.67-.63c-.08-.08-.12-.12-.2-.12H26.56a1.41,1.41,0,0,1-1-.44l-2.23-2.22a1.31,1.31,0,0,1-.4-1h0V103h0a1.31,1.31,0,0,1,.4-1l2.23-2.22a1.24,1.24,0,0,1,1-.44h10.3a1.24,1.24,0,0,1,1,.44l2.23,2.22a1.44,1.44,0,0,1,.44,1Z" transform="translate(-10.4 -14.11)"/><path class="cls-1" d="M63.06,99.94v26.57a.55.55,0,0,1-.56.56H57.77a.55.55,0,0,1-.56-.56V99.94a.54.54,0,0,1,.56-.55H62.5a.54.54,0,0,1,.56.55" transform="translate(-10.4 -14.11)"/><path class="cls-1" d="M86,99.79v26.68a.57.57,0,0,1-.55.56H79.2a.87.87,0,0,1-.71-.56l-4.85-13.28v13.28a.6.6,0,0,1-.56.56H68.35a.57.57,0,0,1-.56-.56V99.79a.55.55,0,0,1,.56-.56h5.92c.28,0,.48.2.56.56h0l5.25,15.35.08.43V99.79a.57.57,0,0,1,.55-.56h4.74a.54.54,0,0,1,.55.56" transform="translate(-10.4 -14.11)"/><path class="cls-1" d="M108.29,103l0,0v4.09a.58.58,0,0,1-.6.56H103a.55.55,0,0,1-.56-.56v-2H97.55a.33.33,0,0,0-.28.12l-.63.64a.5.5,0,0,0-.16.32v3.22l0,0a.36.36,0,0,0,.12.32l.55.55h7.44a1.24,1.24,0,0,1,1,.44l2.23,2.23a1.43,1.43,0,0,1,.44,1v9.43a1.43,1.43,0,0,1-.44,1l-2.23,2.23a1.47,1.47,0,0,1-1,.44H94.33a1.47,1.47,0,0,1-1-.44l-2.23-2.23a1.3,1.3,0,0,1-.4-1,.14.14,0,0,1,0-.08v-3.86a.58.58,0,0,1,.6-.56h4.69a.55.55,0,0,1,.56.56v1.79h5c.08,0,.12,0,.2-.12l.67-.64a.57.57,0,0,0,.12-.31v-3a.61.61,0,0,0-.12-.32l-.67-.63c-.08-.08-.12-.12-.2-.12H94.33a1.41,1.41,0,0,1-1-.44l-2.23-2.22a1.31,1.31,0,0,1-.4-1h0V103h0a1.31,1.31,0,0,1,.4-1l2.23-2.22a1.24,1.24,0,0,1,1-.44h10.3a1.24,1.24,0,0,1,1,.44l2.23,2.22a1.44,1.44,0,0,1,.44,1Z" transform="translate(-10.4 -14.11)"/><path class="cls-1" d="M118.7,99.94v26.57a.54.54,0,0,1-.55.56h-4.73a.55.55,0,0,1-.56-.56V99.94a.54.54,0,0,1,.56-.55h4.73a.54.54,0,0,1,.55.55" transform="translate(-10.4 -14.11)"/><path class="cls-1" d="M129.26,105.11v16.11h4.54l.55-.56a.53.53,0,0,0,.12-.28V106.19a.43.43,0,0,0-.12-.28l-.67-.68a.3.3,0,0,0-.28-.12Zm10.62,19.29-2.22,2.23a1.5,1.5,0,0,1-1,.44H124a.54.54,0,0,1-.55-.56V99.83a.54.54,0,0,1,.55-.56h12.65a1.61,1.61,0,0,1,1,.44l2.22,2.22a1.61,1.61,0,0,1,.44,1v20.4a1.43,1.43,0,0,1-.44,1" transform="translate(-10.4 -14.11)"/><path class="cls-1" d="M150.92,110.24h7a.55.55,0,0,1,.56.56v4.73a.55.55,0,0,1-.56.56h-7v5.13h9.19a.56.56,0,0,1,.55.56v4.73a.55.55,0,0,1-.55.55H145.63a.54.54,0,0,1-.55-.55V99.83a.54.54,0,0,1,.55-.56h14.48a.56.56,0,0,1,.55.56v4.73a.55.55,0,0,1-.55.55h-9.19Z" transform="translate(-10.4 -14.11)"/><path class="cls-1" d="M188.62,117.92l-2.39-8.15-2.43,8.15Zm8.39,8.59c.08.28-.28.56-.6.56h-4.53a.87.87,0,0,1-.72-.56l-.95-3.22h-8l-1,3.22a.87.87,0,0,1-.72.56H176c-.32,0-.68-.28-.6-.56l7.88-26.64v0c.16-.36.28-.56.55-.56h4.74c.27,0,.43.2.55.56v0c2.63,8.86,5.25,17.77,7.88,26.64" transform="translate(-10.4 -14.11)"/><path class="cls-1" d="M218.67,111h4.1a.36.36,0,0,0,.32-.12l.67-.64a.54.54,0,0,0,.12-.31v-3.74a.43.43,0,0,0-.12-.28l-.67-.68a.59.59,0,0,0-.32-.12h-4.1Zm11.06,2.11,0,0h0a1.43,1.43,0,0,1-.44,1l-2.23,2.27a1.29,1.29,0,0,1-1,.4h-7.36v9.66a.61.61,0,0,1-.59.56h-4.7a.57.57,0,0,1-.55-.56V99.79a.54.54,0,0,1,.55-.56H226a1.29,1.29,0,0,1,1,.4l2.23,2.26a1.44,1.44,0,0,1,.44,1Z" transform="translate(-10.4 -14.11)"/><path class="cls-1" d="M240.06,99.94v26.57a.54.54,0,0,1-.55.56h-4.73a.55.55,0,0,1-.56-.56V99.94a.54.54,0,0,1,.56-.55h4.73a.54.54,0,0,1,.55.55" transform="translate(-10.4 -14.11)"/><path class="cls-1" d="M250.66,110.24h7a.55.55,0,0,1,.56.56v4.73a.55.55,0,0,1-.56.56h-7v5.13h9.19a.56.56,0,0,1,.55.56v4.73a.55.55,0,0,1-.55.55H245.37a.53.53,0,0,1-.55-.55V99.83a.54.54,0,0,1,.55-.56h14.48a.56.56,0,0,1,.55.56v4.73a.55.55,0,0,1-.55.55h-9.19Z" transform="translate(-10.4 -14.11)"/><path class="cls-1" d="M270.89,111h4.18a.35.35,0,0,0,.27-.12l.64-.64a.34.34,0,0,0,.12-.31v-3.74a.36.36,0,0,0-.12-.32l-.64-.64a.34.34,0,0,0-.31-.12h-4.14ZM282,113.15a1.3,1.3,0,0,1-.4,1l-2.27,2.27-.12.08,4.06,10c.08.28-.28.55-.56.55h-5.33a.85.85,0,0,1-.71-.55l-3.9-9.67h-1.83v9.67a.56.56,0,0,1-.56.55H265.6a.58.58,0,0,1-.55-.55V99.83a.56.56,0,0,1,.55-.56h12.65a1.3,1.3,0,0,1,1,.4l2.27,2.26a1.45,1.45,0,0,1,.4,1.12Z" transform="translate(-10.4 -14.11)"/><path class="cls-1" d="M293.67,105.11a.27.27,0,0,0-.24.12l-.67.64a.59.59,0,0,0-.12.32v14.2a.54.54,0,0,0,.12.27l.56.56h4.61l.56-.56a.34.34,0,0,0,.11-.27v-14.2a.37.37,0,0,0-.11-.32l-.64-.64a.38.38,0,0,0-.28-.12Zm10.78,18.26a1.3,1.3,0,0,1-.4,1l-2.26,2.23a1.39,1.39,0,0,1-1,.43h-10.3a1.43,1.43,0,0,1-1-.43l-2.23-2.23a1.43,1.43,0,0,1-.44-1V103a1.44,1.44,0,0,1,.44-1l2.23-2.22a1.24,1.24,0,0,1,1-.44h10.26a1.27,1.27,0,0,1,1,.44l2.26,2.22a1.31,1.31,0,0,1,.4,1Z" transform="translate(-10.4 -14.11)"/><path class="cls-1" d="M318.35,116.89a.57.57,0,0,1-.56-.56V111.6a.55.55,0,0,1,.56-.56h7.87a.58.58,0,0,1,.6.56v12.09h0a1.48,1.48,0,0,1-.4.71l-2.23,2.23a1.44,1.44,0,0,1-1,.43h-10.3a1.43,1.43,0,0,1-1-.43l-2.23-2.23a1.3,1.3,0,0,1-.4-1l0,0V103h0a1.31,1.31,0,0,1,.4-1l2.23-2.22a1.41,1.41,0,0,1,1-.44h10.3a1.43,1.43,0,0,1,1,.44l2.23,2.22a1.5,1.5,0,0,1,.44,1h0l0,0v4.21a.61.61,0,0,1-.6.56h-4.69a.57.57,0,0,1-.56-.56v-1a.43.43,0,0,0-.12-.28l-.68-.68a.28.28,0,0,0-.27-.12H316a.33.33,0,0,0-.28.12l-.64.68a.39.39,0,0,0-.15.28v14.19a.77.77,0,0,0,.15.28l.52.56h4.65l.56-.56a.53.53,0,0,0,.12-.28v-3.49Z" transform="translate(-10.4 -14.11)"/><path class="cls-1" d="M337.24,99.94v26.57a.55.55,0,0,1-.56.56H332a.55.55,0,0,1-.56-.56V99.94a.54.54,0,0,1,.56-.55h4.73a.54.54,0,0,1,.56.55" transform="translate(-10.4 -14.11)"/><path class="cls-1" d="M350.37,126.51a.55.55,0,0,1-.55.47h-4.7a.55.55,0,0,1-.55-.47v-5.37a.54.54,0,0,1,.55-.56h4.7a.54.54,0,0,1,.55.56Z" transform="translate(-10.4 -14.11)"/></svg>