<svg id="Layer_1" data-name="Layer 1" xmlns="http://www.w3.org/2000/svg" viewBox="0 0 151.46 138.28"><defs><style>.cls-1{fill:#fff;}</style></defs><title>rock-your-socks</title><path class="cls-1" d="M37.05,50.08a2.3,2.3,0,0,1-.71,1.83l-4,4-.21.14,7.19,17.7c.14.49-.5,1-1,1H28.87a1.55,1.55,0,0,1-1.27-1L20.7,56.64H17.45V73.77a1,1,0,0,1-1,1H8.08a1.06,1.06,0,0,1-1-1V26.46a1,1,0,0,1,1-1H30.49a2.34,2.34,0,0,1,1.84.7l4,4a2.57,2.57,0,0,1,.71,2Zm-19.6-3.81h7.4a.67.67,0,0,0,.5-.21l1.13-1.13a.62.62,0,0,0,.21-.56V37.74a.62.62,0,0,0-.21-.56l-1.13-1.13a.64.64,0,0,0-.57-.21H17.45Z" transform="translate(-6.08 -6.43)"/><path class="cls-1" d="M77.23,68.2a2.31,2.31,0,0,1-.7,1.83l-4,4a2.46,2.46,0,0,1-1.77.77H52.49A2.57,2.57,0,0,1,50.65,74l-3.94-4a2.53,2.53,0,0,1-.78-1.83V32a2.54,2.54,0,0,1,.78-1.83l3.94-3.95a2.26,2.26,0,0,1,1.84-.77H70.67a2.26,2.26,0,0,1,1.84.77l4,3.95a2.32,2.32,0,0,1,.7,1.83ZM58.13,35.84a.48.48,0,0,0-.43.21l-1.2,1.13a1,1,0,0,0-.21.56V62.91a.93.93,0,0,0,.21.49l1,1h8.18l1-1a.58.58,0,0,0,.21-.49V37.74a.62.62,0,0,0-.21-.56l-1.13-1.13a.67.67,0,0,0-.5-.21Z" transform="translate(-6.08 -6.43)"/><path class="cls-1" d="M85.76,32a2.59,2.59,0,0,1,.7-1.83l4-3.95a3,3,0,0,1,1.83-.77H110.5a2.83,2.83,0,0,1,1.83.77l4,3.95a2.54,2.54,0,0,1,.78,1.83H117a.24.24,0,0,1,.07.14v7.41a1.06,1.06,0,0,1-1,1h-8.39a1,1,0,0,1-1-1V37.67a.76.76,0,0,0-.21-.49L105.29,36a.8.8,0,0,0-.5-.21H98a.93.93,0,0,0-.49.21l-1.13,1.2a.66.66,0,0,0-.28.49V62.84c.07.14.07.35.28.49l1,1h8.18l1-1a.76.76,0,0,0,.21-.49V60.73a1,1,0,0,1,1-1h8.39a1.06,1.06,0,0,1,1,1v8c-.07.35-.07.57-.78,1.27l-4,4a2.83,2.83,0,0,1-1.83.77H92.24a2.85,2.85,0,0,1-1.83-.77l-4-4a2.89,2.89,0,0,1-.7-1.83Z" transform="translate(-6.08 -6.43)"/><path class="cls-1" d="M157.45,73.77c.14.49-.49,1-1.06,1H147a1.53,1.53,0,0,1-1.27-1l-8.67-19.46-3.67,5.08V73.77a1,1,0,0,1-1,1H124a1,1,0,0,1-1-1V26.46a1,1,0,0,1,1-1h8.38a1,1,0,0,1,1,1V41.9l10.43-15.44c.36-.49.71-1,1.27-1h10.65c.49,0,1.48.49,1.27,1L143.77,45l13.4,28.19Z" transform="translate(-6.08 -6.43)"/><path class="cls-1" d="M17.11,81.52a.72.72,0,0,1-.1.18l-3.73,7.23v6.33a.28.28,0,0,1-.28.29H10.54a.3.3,0,0,1-.29-.29V88.93L6.53,81.7a.74.74,0,0,1-.09-.18c-.06-.15.13-.29.29-.29H9.39a.44.44,0,0,1,.37.29l2,4,2-4a.48.48,0,0,1,.39-.29h2.64C17,81.23,17.16,81.37,17.11,81.52Z" transform="translate(-6.08 -6.43)"/><path class="cls-1" d="M27.52,93.63a.69.69,0,0,1-.21.54l-1.17,1.15a.72.72,0,0,1-.52.23H20.29a.75.75,0,0,1-.54-.23L18.6,94.17a.75.75,0,0,1-.23-.54V83.06a.72.72,0,0,1,.23-.53l1.15-1.16a.67.67,0,0,1,.54-.22H25.6a.67.67,0,0,1,.54.22l1.17,1.16a.66.66,0,0,1,.21.53Zm-5.59-9.46a.13.13,0,0,0-.12.07l-.35.33a.29.29,0,0,0-.06.16v7.35a.26.26,0,0,0,.06.15l.29.29h2.39l.29-.29a.17.17,0,0,0,.06-.15V84.73a.18.18,0,0,0-.06-.16l-.33-.33a.2.2,0,0,0-.15-.07Z" transform="translate(-6.08 -6.43)"/><path class="cls-1" d="M39.21,93.63a.66.66,0,0,1-.2.54l-1.15,1.15a.75.75,0,0,1-.54.23l-5.34,0a.64.64,0,0,1-.53-.2L30.3,94.17a.75.75,0,0,1-.23-.54h0s0,0,0,0V81.44a.29.29,0,0,1,.29-.29h2.45a.28.28,0,0,1,.29.29V92.08a.33.33,0,0,0,.06.15l.29.29h2.39l.28-.29a.36.36,0,0,0,.09-.15V81.44a.28.28,0,0,1,.29-.29h2.43a.28.28,0,0,1,.28.29Z" transform="translate(-6.08 -6.43)"/><path class="cls-1" d="M50.65,88.34a.67.67,0,0,1-.21.53l-1.17,1.18-.07,0,2.11,5.17c0,.14-.15.29-.29.29H48.26a.45.45,0,0,1-.37-.29l-2-5h-.95v5a.3.3,0,0,1-.29.29H42.18a.32.32,0,0,1-.29-.29V81.44a.3.3,0,0,1,.29-.29h6.55a.7.7,0,0,1,.54.2l1.17,1.18a.73.73,0,0,1,.21.57Zm-5.73-1.12h2.16a.22.22,0,0,0,.15-.06l.33-.33a.18.18,0,0,0,.06-.16V84.73a.18.18,0,0,0-.06-.16l-.33-.33a.19.19,0,0,0-.17-.07H44.92Z" transform="translate(-6.08 -6.43)"/><path class="cls-1" d="M69.53,83.06l0,0V85.2a.29.29,0,0,1-.3.29H66.81a.28.28,0,0,1-.28-.29v-1H64a.15.15,0,0,0-.14.07l-.33.33a.24.24,0,0,0-.09.16V86.4l0,0a.15.15,0,0,0,.06.16l.29.29h3.85a.64.64,0,0,1,.53.23l1.16,1.15a.77.77,0,0,1,.22.54v4.88a.77.77,0,0,1-.22.54l-1.16,1.15a.72.72,0,0,1-.53.23H62.3a.72.72,0,0,1-.53-.23l-1.16-1.15a.7.7,0,0,1-.2-.54.07.07,0,0,1,0,0v-2a.3.3,0,0,1,.31-.29h2.43a.28.28,0,0,1,.28.29v.93H66s.06,0,.1-.06l.35-.33a.3.3,0,0,0,.07-.17V90.42a.28.28,0,0,0-.07-.17l-.35-.33s-.06-.06-.1-.06H62.3a.72.72,0,0,1-.53-.23l-1.16-1.15a.7.7,0,0,1-.2-.54h0V83.06h0a.67.67,0,0,1,.2-.53l1.16-1.16a.65.65,0,0,1,.53-.22h5.34a.65.65,0,0,1,.53.22l1.16,1.16a.74.74,0,0,1,.22.53Z" transform="translate(-6.08 -6.43)"/><path class="cls-1" d="M81.25,93.63a.7.7,0,0,1-.2.54l-1.18,1.15a.69.69,0,0,1-.51.23H74a.72.72,0,0,1-.53-.23l-1.16-1.15a.77.77,0,0,1-.22-.54V83.06a.74.74,0,0,1,.22-.53l1.16-1.16a.65.65,0,0,1,.53-.22h5.32a.65.65,0,0,1,.53.22l1.18,1.16a.67.67,0,0,1,.2.53Zm-5.58-9.46a.13.13,0,0,0-.12.07l-.35.33a.27.27,0,0,0-.07.16v7.35a.29.29,0,0,0,.07.15l.29.29h2.38l.29-.29a.17.17,0,0,0,.06-.15V84.73a.15.15,0,0,0-.06-.16l-.33-.33a.17.17,0,0,0-.14-.07Z" transform="translate(-6.08 -6.43)"/><path class="cls-1" d="M83.74,83a.73.73,0,0,1,.21-.53l1.15-1.16a.89.89,0,0,1,.54-.22H91a.86.86,0,0,1,.54.22l1.15,1.16a.72.72,0,0,1,.23.53h0a.07.07,0,0,1,0,0v2.17a.3.3,0,0,1-.29.28H90.15a.3.3,0,0,1-.29-.28v-.54a.22.22,0,0,0-.06-.14l-.35-.35a.19.19,0,0,0-.14-.07h-2a.25.25,0,0,0-.15.07l-.33.35a.19.19,0,0,0-.08.14v7.35s0,.11.08.15l.29.29h2.39l.29-.29a.22.22,0,0,0,.06-.15v-.61a.3.3,0,0,1,.29-.29H92.6a.3.3,0,0,1,.29.29v2.32c0,.11,0,.17-.23.37L91.51,95.3a.86.86,0,0,1-.54.22H85.64a.86.86,0,0,1-.54-.22L84,94.14a.81.81,0,0,1-.21-.53Z" transform="translate(-6.08 -6.43)"/><path class="cls-1" d="M104.69,95.26c0,.14-.14.29-.31.29h-2.74a.46.46,0,0,1-.37-.29l-2.53-5.69-1.07,1.48v4.21a.29.29,0,0,1-.29.29H94.93a.28.28,0,0,1-.29-.29V81.44a.29.29,0,0,1,.29-.29h2.45a.3.3,0,0,1,.29.29V86l3-4.51c.1-.15.2-.29.37-.29h3.11c.14,0,.43.14.37.29l-3.87,5.41,3.91,8.24Z" transform="translate(-6.08 -6.43)"/><path class="cls-1" d="M115.34,83.06l0,0V85.2a.3.3,0,0,1-.31.29h-2.43a.28.28,0,0,1-.29-.29v-1h-2.55a.18.18,0,0,0-.15.07l-.33.33a.25.25,0,0,0-.08.16V86.4l0,0a.18.18,0,0,0,.06.16l.29.29h3.85a.66.66,0,0,1,.54.23l1.15,1.15a.75.75,0,0,1,.23.54v4.88a.75.75,0,0,1-.23.54L114,95.32a.75.75,0,0,1-.54.23h-5.33a.75.75,0,0,1-.54-.23l-1.15-1.15a.69.69,0,0,1-.21-.54.07.07,0,0,1,0,0v-2a.31.31,0,0,1,.31-.29h2.43a.28.28,0,0,1,.29.29v.93h2.6s.06,0,.1-.06l.35-.33a.34.34,0,0,0,.06-.17V90.42a.31.31,0,0,0-.06-.17l-.35-.33s-.06-.06-.1-.06h-3.71a.75.75,0,0,1-.54-.23l-1.15-1.15a.69.69,0,0,1-.21-.54h0V83.06h0a.66.66,0,0,1,.21-.53l1.15-1.16a.67.67,0,0,1,.54-.22h5.33a.67.67,0,0,1,.54.22l1.15,1.16a.72.72,0,0,1,.23.53Z" transform="translate(-6.08 -6.43)"/><path class="cls-1" d="M134.27,93.63a.69.69,0,0,1-.21.54l-1.17,1.15a.72.72,0,0,1-.52.23H127a.75.75,0,0,1-.54-.23l-1.15-1.15a.75.75,0,0,1-.23-.54V83.06a.72.72,0,0,1,.23-.53l1.15-1.16a.67.67,0,0,1,.54-.22h5.31a.67.67,0,0,1,.54.22l1.17,1.16a.66.66,0,0,1,.21.53Zm-5.58-9.46a.14.14,0,0,0-.13.07l-.35.33a.29.29,0,0,0-.06.16v7.35a.26.26,0,0,0,.06.15l.29.29h2.39l.29-.29a.17.17,0,0,0,.06-.15V84.73a.18.18,0,0,0-.06-.16l-.33-.33a.17.17,0,0,0-.14-.07Z" transform="translate(-6.08 -6.43)"/><path class="cls-1" d="M144.9,81.44v2.45a.27.27,0,0,1-.17.24v0h-4.88v2.66h3.65a.28.28,0,0,1,.28.29v2.45a.29.29,0,0,1-.14.25v0h-3.79v5.4a.28.28,0,0,1-.29.29h-2.45a.28.28,0,0,1-.29-.29V81.44a.28.28,0,0,1,.29-.29h7.5A.3.3,0,0,1,144.9,81.44Z" transform="translate(-6.08 -6.43)"/><path class="cls-1" d="M155.56,81.44v2.45a.26.26,0,0,1-.16.24v0h-4.88v2.66h3.64a.28.28,0,0,1,.29.29v2.45a.29.29,0,0,1-.14.25v0h-3.79v5.4a.29.29,0,0,1-.29.29h-2.45a.28.28,0,0,1-.29-.29V81.44a.28.28,0,0,1,.29-.29h7.5A.29.29,0,0,1,155.56,81.44Z" transform="translate(-6.08 -6.43)"/><path class="cls-1" d="M21,144.33v.08a.39.39,0,0,1-.16.23s0,0-.05,0a.08.08,0,0,1-.07,0l-.05,0H17.44c-.18,0-.31-.15-.36-.35L15.3,138l-.17-1.27L15,138l-2,6.41c-.08.23-.18.35-.38.35H9.43s0,0,0,0-.05,0-.08,0a0,0,0,0,1,0,0,.25.25,0,0,1-.15-.23,0,0,0,0,1,0,0v0l-1.35-17a.36.36,0,0,1,.36-.35h3a.38.38,0,0,1,.38.35L12.1,136l1.45-3.94a.55.55,0,0,1,.46-.36h2a.63.63,0,0,1,.48.36L18,136l.63-8.65a.36.36,0,0,1,.36-.35h3a.38.38,0,0,1,.36.35Z" transform="translate(-6.08 -6.43)"/><path class="cls-1" d="M28,134h4.5a.34.34,0,0,1,.35.36v3a.34.34,0,0,1-.35.36H28V141h5.87a.35.35,0,0,1,.35.35v3a.35.35,0,0,1-.35.35H24.63a.34.34,0,0,1-.35-.35V127.3a.34.34,0,0,1,.35-.35h9.26a.35.35,0,0,1,.35.35v3a.35.35,0,0,1-.35.35H28Z" transform="translate(-6.08 -6.43)"/><path class="cls-1" d="M49.85,144.36c.06.18-.17.35-.38.35H46.58a.53.53,0,0,1-.46-.35l-.61-2.06H40.4l-.61,2.06a.56.56,0,0,1-.46.35h-2.9c-.2,0-.43-.17-.38-.35l5-17v0c.11-.23.18-.35.36-.35h3c.18,0,.29.12.36.35v0C46.5,133,48.18,138.69,49.85,144.36Zm-5.36-5.49L43,133.66l-1.56,5.21Z" transform="translate(-6.08 -6.43)"/><path class="cls-1" d="M63.15,135.82a.85.85,0,0,1-.25.66l-1.45,1.45-.08,0L64,144.36c.05.18-.17.35-.35.35H60.2a.56.56,0,0,1-.46-.35l-2.49-6.18H56.08v6.18a.35.35,0,0,1-.35.35h-3a.37.37,0,0,1-.35-.35V127.3a.35.35,0,0,1,.35-.35h8.09a.8.8,0,0,1,.66.25l1.45,1.45a.93.93,0,0,1,.25.71Zm-7.07-1.38h2.67a.25.25,0,0,0,.18-.07l.41-.41a.21.21,0,0,0,.07-.2v-2.39a.21.21,0,0,0-.07-.2l-.41-.41a.24.24,0,0,0-.2-.08H56.08Z" transform="translate(-6.08 -6.43)"/><path class="cls-1" d="M86.24,141.33v3a.37.37,0,0,1-.39.35H75.69a.37.37,0,0,1-.39-.35V127.3h0a.37.37,0,0,1,.36-.28h3a.36.36,0,0,1,.35.28V141h6.81A.39.39,0,0,1,86.24,141.33Z" transform="translate(-6.08 -6.43)"/><path class="cls-1" d="M102,144.36c.05.18-.17.35-.38.35h-2.9a.53.53,0,0,1-.45-.35l-.61-2.06H92.54l-.61,2.06a.56.56,0,0,1-.46.35h-2.9c-.2,0-.43-.17-.38-.35l5-17v0c.1-.23.18-.35.36-.35h3c.18,0,.28.12.36.35v0C98.64,133,100.32,138.69,102,144.36Zm-5.36-5.49-1.53-5.21-1.55,5.21Z" transform="translate(-6.08 -6.43)"/><path class="cls-1" d="M114.76,127.4a.94.94,0,0,1-.13.23l-4.6,8.92v7.81a.34.34,0,0,1-.35.35h-3a.36.36,0,0,1-.36-.35v-7.81l-4.6-8.92a1.91,1.91,0,0,1-.1-.23c-.07-.17.15-.35.36-.35h3.28a.55.55,0,0,1,.45.35l2.5,5,2.46-5a.64.64,0,0,1,.48-.35h3.26C114.58,127.05,114.81,127.23,114.76,127.4Z" transform="translate(-6.08 -6.43)"/><path class="cls-1" d="M120.72,134h4.5a.35.35,0,0,1,.36.36v3a.35.35,0,0,1-.36.36h-4.5V141h5.88a.36.36,0,0,1,.35.35v3a.36.36,0,0,1-.35.35h-9.26a.34.34,0,0,1-.35-.35V127.3a.34.34,0,0,1,.35-.35h9.26a.36.36,0,0,1,.35.35v3a.36.36,0,0,1-.35.35h-5.88Z" transform="translate(-6.08 -6.43)"/><path class="cls-1" d="M140.76,135.82a.85.85,0,0,1-.25.66l-1.45,1.45-.08,0,2.6,6.38c0,.18-.18.35-.36.35h-3.4a.53.53,0,0,1-.46-.35l-2.49-6.18H133.7v6.18a.36.36,0,0,1-.36.35h-3a.38.38,0,0,1-.36-.35V127.3a.36.36,0,0,1,.36-.35h8.08a.8.8,0,0,1,.66.25l1.45,1.45a.93.93,0,0,1,.25.71Zm-7.06-1.38h2.67a.23.23,0,0,0,.17-.07L137,134a.24.24,0,0,0,.08-.2v-2.39a.24.24,0,0,0-.08-.2l-.41-.41a.24.24,0,0,0-.2-.08H133.7Z" transform="translate(-6.08 -6.43)"/><path class="cls-1" d="M155.15,129.31l0,0V132a.37.37,0,0,1-.39.36h-3a.35.35,0,0,1-.36-.36v-1.27h-3.15a.21.21,0,0,0-.18.08l-.41.41a.31.31,0,0,0-.1.2v2.06l0,0a.23.23,0,0,0,.07.21l.36.35h4.75a.8.8,0,0,1,.66.28l1.43,1.43a.94.94,0,0,1,.28.66v6a.94.94,0,0,1-.28.66l-1.43,1.43a.9.9,0,0,1-.66.27h-6.58a.9.9,0,0,1-.66-.27L144.14,143a.84.84,0,0,1-.25-.66.07.07,0,0,1,0,0v-2.47a.37.37,0,0,1,.39-.35h3a.34.34,0,0,1,.35.35V141h3.2s.08,0,.13-.08l.43-.4a.39.39,0,0,0,.08-.21v-1.91a.35.35,0,0,0-.08-.2l-.43-.41c-.05-.05-.08-.07-.13-.07h-4.57a.94.94,0,0,1-.66-.28L144.14,136a.86.86,0,0,1-.25-.67h0v-6h0a.84.84,0,0,1,.25-.66l1.43-1.42a.77.77,0,0,1,.66-.28h6.58a.77.77,0,0,1,.66.28l1.43,1.42a.94.94,0,0,1,.28.66Z" transform="translate(-6.08 -6.43)"/><path class="cls-1" d="M11.24,9.11H10l1.73,6.08,3-8H16l3,8v0l1.71-6.1H19.43v-2h4.95v2H23L19.9,19.22H18.47l-3.14-8-3.09,8H10.83L7.72,9.11H6.3v-2h4.94Z" transform="translate(-6.08 -6.43)"/><path class="cls-1" d="M34.63,10.45V9.11h-3.9v3.38h2.92v1.89H30.73v2.89h3.9V15.93h1.82v3.29H27.28V17.27h1.33V9.11H27.28v-2h9.17v3.3Z" transform="translate(-6.08 -6.43)"/><path class="cls-1" d="M41.76,9a.3.3,0,0,1-.12,0,1.29,1.29,0,1,1,0-2.58c1,0,1.39.74,1.39,1.7a3.83,3.83,0,0,1-1.92,3.08l-.5-.59A3.2,3.2,0,0,0,41.76,9Z" transform="translate(-6.08 -6.43)"/><path class="cls-1" d="M46.77,7.15H52c3.21,0,4.82,1.77,4.82,4.3a4,4,0,0,1-2.44,3.93l1.43,1.89h1.54v1.95H54.77L52.2,15.7c-.21,0-.43,0-.66,0H50.22v1.55h1.31v1.95H46.77V17.27h1.32V9.11H46.77Zm3.45,2v4.72H51.8c2,0,2.68-1.06,2.68-2.38s-.67-2.34-2.68-2.34Z" transform="translate(-6.08 -6.43)"/><path class="cls-1" d="M68.35,10.45V9.11H64.46v3.38h2.92v1.89H64.46v2.89h3.89V15.93h1.82v3.29H61V17.27h1.32V9.11H61v-2h9.16v3.3Z" transform="translate(-6.08 -6.43)"/><path class="cls-1" d="M90.35,11.24C90.3,10,89.22,9,87.31,9c-2.47,0-4,1.78-4,4.25a4.17,4.17,0,0,0,4.36,4.21,8.13,8.13,0,0,0,2.74-.48V14.79H87.09v-1.9h5.42v5.16a8.19,8.19,0,0,1-4.67,1.38c-4.08,0-6.79-2.68-6.79-6.25A6.07,6.07,0,0,1,87,7c3,0,3.45,1.22,3.52,1.46L90.33,7h1.94v4.29Z" transform="translate(-6.08 -6.43)"/><path class="cls-1" d="M102.73,7a6.14,6.14,0,0,1,6.46,6.23A6.45,6.45,0,1,1,102.73,7Zm0,10.59a4.18,4.18,0,0,0,4.15-4.33,4.16,4.16,0,1,0-8.31,0A4.2,4.2,0,0,0,102.75,17.54Z" transform="translate(-6.08 -6.43)"/><path class="cls-1" d="M120.81,7.15h4.77v2h-1.32V19.22h-1.59l-6.54-7.91v6h1.32v1.95h-4.77V17.27H114V9.11h-1.32v-2h2.57l6.88,8.06V9.11h-1.32Z" transform="translate(-6.08 -6.43)"/><path class="cls-1" d="M137.5,7.15h4.78v2H141V19.22h-1.59l-6.54-7.91v6h1.32v1.95h-4.77V17.27h1.32V9.11h-1.32v-2h2.57l6.89,8.06V9.11H137.5Z" transform="translate(-6.08 -6.43)"/><path class="cls-1" d="M147.77,7.15h3.95l4.52,10.12h1.3v1.95h-4.48V17.27H154L153.44,16h-4.55l-.53,1.26h1v1.95h-4.52V17.27h1.31l3.65-8.16h-2.06Zm1.86,7.16h3.09l-1.55-3.6Z" transform="translate(-6.08 -6.43)"/><path class="cls-1" d="M9,118.14v.18c0,1.09,1,1.4,1.87,1.4,1.09,0,1.58-.56,1.58-1.17s-.35-1-2.08-1.66S7.89,115.24,7.89,114a2.71,2.71,0,0,1,2.94-2.64,1.8,1.8,0,0,1,1.68.77l-.13-.61h1.53v2.82H12.4v-.45c-.07-.8-.71-1-1.47-1-1,0-1.34.5-1.34,1.09s.52,1.09,1.87,1.62c2.14.84,2.75,1.68,2.75,2.93a2.73,2.73,0,0,1-3,2.75c-1.86,0-2.33-1-2.33-1l.13.79H7.52v-3Z" transform="translate(-6.08 -6.43)"/><path class="cls-1" d="M22.14,111.4a4.87,4.87,0,0,1,5.12,4.94,4.92,4.92,0,0,1-5.12,5,4.9,4.9,0,0,1-5.11-5A5,5,0,0,1,22.14,111.4Zm0,8.4a3.44,3.44,0,1,0-3.3-3.43A3.32,3.32,0,0,0,22.15,119.8Z" transform="translate(-6.08 -6.43)"/><path class="cls-1" d="M35.92,111.56H40c2.55,0,3.83,1.4,3.83,3.41a3.16,3.16,0,0,1-1.93,3.12l1.13,1.5h1.22v1.55h-2l-2.05-2.79H38.66v1.23h1v1.55H35.92v-1.55h1v-6.48h-1Zm2.74,1.55v3.75h1.25c1.58,0,2.13-.84,2.13-1.89s-.54-1.86-2.13-1.86Z" transform="translate(-6.08 -6.43)"/><path class="cls-1" d="M53,114.18v-1.07H50v2.69h2.31v1.5H50v2.29H53v-1.07h1.45v2.62H47.21v-1.55h1v-6.48h-1v-1.55h7.28v2.62Z" transform="translate(-6.08 -6.43)"/><path class="cls-1" d="M57.6,111.56h2.3l3.75,6.94,3.65-6.94h2.3v1.55H68.32l.18,6.48h1.09v1.55H65.82v-1.55h1.06l0-4.23-2.75,5.78h-1l-2.78-5.68,0,4.13h1.07v1.55H57.6v-1.55h1.09l.19-6.48H57.6Z" transform="translate(-6.08 -6.43)"/><path class="cls-1" d="M78.58,114.18v-1.07h-3.1v2.69H77.8v1.5H75.48v2.29h3.1v-1.07H80v2.62H72.75v-1.55h1v-6.48h-1v-1.55H80v2.62Z" transform="translate(-6.08 -6.43)"/><path class="cls-1" d="M83.14,111.56h2.3l3.75,6.94,3.65-6.94h2.3v1.55H93.86l.18,6.48h1.09v1.55H91.35v-1.55h1.07l0-4.23-2.75,5.78h-1l-2.78-5.68,0,4.13h1.08v1.55H83.14v-1.55h1.09l.19-6.48H83.14Z" transform="translate(-6.08 -6.43)"/><path class="cls-1" d="M98.28,111.56h4.12c2.46,0,3.57,1,3.57,2.53a2.22,2.22,0,0,1-1.68,2.16c1.32.38,1.94,1.16,1.94,2.18,0,1.7-1.65,2.71-3.83,2.71H98.28v-1.55h1v-6.48h-1Zm2.74,1.55v2.61h1.21c1.38,0,2-.7,2-1.42s-.49-1.19-1.73-1.19Zm0,3.82v2.66h1.46c1.43,0,1.92-.63,1.92-1.34s-.6-1.34-2.33-1.32Z" transform="translate(-6.08 -6.43)"/><path class="cls-1" d="M115.08,114.18v-1.07H112v2.69h2.32v1.5H112v2.29h3.1v-1.07h1.44v2.62h-7.27v-1.55h1v-6.48h-1v-1.55h7.27v2.62Z" transform="translate(-6.08 -6.43)"/><path class="cls-1" d="M119.64,111.56h4.11c2.55,0,3.83,1.4,3.83,3.41a3.16,3.16,0,0,1-1.93,3.12l1.13,1.5H128v1.55h-2l-2-2.79h-1.56v1.23h1v1.55h-3.77v-1.55h1v-6.48h-1Zm2.74,1.55v3.75h1.25c1.58,0,2.13-.84,2.13-1.89s-.54-1.86-2.13-1.86Z" transform="translate(-6.08 -6.43)"/><path class="cls-1" d="M137.92,119.59h1v-6.48h-1.76v1.07h-1.44v-2.62h8.05v2.62h-1.44v-1.07h-1.71v6.48h1v1.55h-3.78Z" transform="translate(-6.08 -6.43)"/><path class="cls-1" d="M151.22,111.4a4.87,4.87,0,0,1,5.13,4.94,5.12,5.12,0,1,1-5.13-4.94Zm0,8.4a3.44,3.44,0,1,0-3.3-3.43A3.32,3.32,0,0,0,151.24,119.8Z" transform="translate(-6.08 -6.43)"/><rect class="cls-1" y="95.24" width="150.49" height="3.41"/></svg>