<?xml version="1.0" encoding="utf-8"?>
<!-- Generator: Adobe Illustrator 22.1.0, SVG Export Plug-In . SVG Version: 6.00 Build 0)  -->
<svg version="1.1" id="Layer_1" xmlns="http://www.w3.org/2000/svg" xmlns:xlink="http://www.w3.org/1999/xlink" x="0px" y="0px"
	 viewBox="0 0 732.7 681" style="enable-background:new 0 0 732.7 681;" xml:space="preserve">
<style type="text/css">
	.st0{fill:#FFFFFF;}
</style>
<g>
	<g>
		<path class="st0" d="M155.2,133.9l-11.8,7.6l-16.1-25.1l9.7,29.2l-4.5,2.9l-22.4-21.1l16.1,25.1l-11.8,7.6l-35.3-55.1L93,96
			l23.5,22.4L106,87.6l13.9-8.9L155.2,133.9z"/>
		<path class="st0" d="M197.5,112.8l-13.1,6.5l-4.3-5.7l-11.4,5.7l2,6.9l-13.1,6.5L141,67.8l14.7-7.3L197.5,112.8z M172.2,103.4
			l-13.3-18.5l6.4,22L172.2,103.4z"/>
		<path class="st0" d="M239.6,96.6l-14.3,5.5l-16-16.8l-1,8.2l5.1,13.2l-13.1,5l-23.5-61.1l13.1-5l9.5,24.7l2-29.1l13.6-5.2
			l-3.6,33.8L239.6,96.6z"/>
		<path class="st0" d="M273.2,87.3l-31.5,9l-18-62.9l31.5-9l3.9,13.5l-18,5.1l3,10.6l13.5-3.9l3.8,13.4L247.9,67l3.4,12l18-5.1
			L273.2,87.3z"/>
		<path class="st0" d="M331.2,76.8l-12.7,2L303,47.3l5.1,33.1l-13.9,2.2l-10.1-64.7l14.6-2.3l13,27.5l-4.5-28.8l13.9-2.2L331.2,76.8
			z"/>
		<path class="st0" d="M372.2,64.6c0.2,2.6-0.6,4.9-2.3,6.8c-1.7,1.9-3.8,3-6.4,3.1l-18.7,1.2c-2.6,0.2-4.9-0.6-6.8-2.3
			c-1.9-1.7-3-3.8-3.1-6.4l-3-46.6c-0.2-2.6,0.6-4.9,2.3-6.8c1.7-1.9,3.8-3,6.4-3.1l18.7-1.2c2.6-0.2,4.9,0.6,6.8,2.3
			c1.9,1.7,3,3.8,3.1,6.4L372.2,64.6z M357.9,60.8l-2.4-37.3l-9.3,0.6l2.4,37.3L357.9,60.8z"/>
		<path class="st0" d="M444.8,77.5l-14-1.1l2.3-29.7l-9.9,29.1l-5.3-0.4l-5.1-30.3l-2.3,29.7l-14-1.1l5.1-65.2L418,9.7l5.3,32
			L433.5,11l16.4,1.3L444.8,77.5z"/>
		<path class="st0" d="M463.1,80.8l-13.9-2.2L459.3,14l13.9,2.2L463.1,80.8z"/>
		<path class="st0" d="M506.7,61c0.8,1.3,1.4,2.9,1.7,4.6c0.3,1.7,0.3,3.5-0.1,5.2l-2.1,9.5c-0.6,2.6-1.9,4.5-4.1,5.9
			c-2.2,1.4-4.5,1.8-7.1,1.2l-18.2-4.1c-1.3-0.3-2.4-0.8-3.4-1.5c-1-0.7-1.8-1.6-2.5-2.6c-0.6-1-1.1-2.1-1.3-3.3
			c-0.2-1.2-0.2-2.4,0.1-3.7l2.6-11.4l13.7,3.1l-1.5,6.8l9.1,2l1.1-4.9l-14.9-23.2c-0.8-1.3-1.4-2.9-1.7-4.6
			c-0.3-1.7-0.3-3.5,0.1-5.2l1.8-8.2c0.3-1.3,0.8-2.4,1.5-3.4c0.7-1,1.6-1.8,2.6-2.4c1-0.6,2.1-1.1,3.4-1.3c1.2-0.2,2.5-0.2,3.8,0.1
			l18.2,4.1c2.6,0.6,4.5,1.9,5.9,4.1c1.4,2.2,1.8,4.5,1.2,7.1l-2.6,11.4l-13.7-3.1l1.5-6.8l-9.1-2l-0.8,3.6L506.7,61z"/>
		<path class="st0" d="M558.5,52.6l-11.1-3.5l-15.6,49l-13.4-4.2l15.6-49l-11.1-3.5l4.2-13.4l35.6,11.3L558.5,52.6z"/>
		<path class="st0" d="M580.7,117.1l-13.5-5.5l1.4-7l-11.8-4.8l-3.9,6l-13.5-5.5L577.3,45l15.2,6.2L580.7,117.1z M571.1,91.9
			l5.2-22.2L563.9,89L571.1,91.9z"/>
		<path class="st0" d="M620.6,138l-13.6-7.1l2.1-23.1l-6.8,4.7l-6.6,12.5l-12.4-6.5l30.4-57.9l12.4,6.5l-12.3,23.4l23.2-17.7
			l12.9,6.8l-27.8,19.6L620.6,138z"/>
		<path class="st0" d="M649.8,157.2l-27.5-17.7l35.4-55l27.5,17.7l-7.6,11.8l-15.7-10.1l-6,9.3l11.8,7.6l-7.5,11.7l-11.8-7.6
			l-6.7,10.5l15.7,10.1L649.8,157.2z"/>
	</g>
	<g>
		<path class="st0" d="M67.6,299.7c2.1,2.1,3.8,4.7,5.1,7.7c1.3,3,1.9,6.2,1.9,9.6v18.2c0,4.9-1.7,9-5.1,12.4
			c-3.4,3.4-7.5,5.1-12.4,5.1H22.2c-2.4,0-4.7-0.5-6.9-1.4c-2.2-0.9-4-2.2-5.6-3.8S6.9,344,6,341.9c-0.9-2.1-1.3-4.4-1.3-6.8v-21.8
			h26.2v13.1h17.5V317l-36.7-36.2c-2.1-2.1-3.8-4.7-5.1-7.7c-1.3-3-1.9-6.2-1.9-9.6v-15.7c0-2.4,0.4-4.7,1.3-6.8
			c0.9-2.1,2.1-3.9,3.7-5.5c1.6-1.6,3.4-2.8,5.6-3.8c2.2-0.9,4.5-1.4,6.9-1.4h34.9c4.9,0,9,1.7,12.4,5.1c3.4,3.4,5.1,7.5,5.1,12.4
			v21.8H48.4v-13.1H30.9v7L67.6,299.7z"/>
		<path class="st0" d="M163.7,335.1c0,4.9-1.7,9-5.1,12.4c-3.4,3.4-7.5,5.1-12.4,5.1h-34.9c-2.4,0-4.7-0.5-6.9-1.4
			c-2.2-0.9-4-2.2-5.6-3.8c-1.6-1.6-2.8-3.4-3.7-5.5c-0.9-2.1-1.3-4.4-1.3-6.8V230.3H120v96.1h17.5v-96.1h26.2V335.1z"/>
		<path class="st0" d="M273.5,352.6h-26.2v-55.7l-14.1,55.7h-10l-14-55.7v55.7H183V230.3h30.7l14.5,58.9l14.5-58.9h30.7V352.6z"/>
		<path class="st0" d="M383.5,352.6h-26.2v-55.7l-14.1,55.7h-10l-14-55.7v55.7H293V230.3h30.7l14.5,58.9l14.5-58.9h30.7V352.6z"/>
		<path class="st0" d="M464.1,352.6H403V230.3h61.1v26.2h-34.9v20.6h26.2v26h-26.2v23.2h34.9V352.6z"/>
		<path class="st0" d="M551.3,290.6c0,4.2-1.3,7.9-3.9,11c-2.6,3.1-5.9,5.2-9.7,6.1l13.6,44.9H524L512.5,308h-4.9v44.5h-26.2V230.3
			h52.4c4.9,0,9,1.7,12.4,5.1c3.4,3.4,5.1,7.5,5.1,12.4V290.6z M525.1,281.8v-25.3h-17.5v25.3H525.1z"/>
		<path class="st0" d="M643.5,352.6h-26.2V230.3h26.2V352.6z"/>
		<path class="st0" d="M732.7,352.6h-24.1l-19.6-62.5v62.5h-26.2V230.3h27.6l16.1,54.5v-54.5h26.2V352.6z"/>
	</g>
	<g>
		<path class="st0" d="M306.4,140.7h-9.9v43.5h-11.9v-43.5h-9.9v-11.9h31.6V140.7z"/>
		<path class="st0" d="M343.9,184.1h-11.9v-23.3h-7.9v23.3h-11.9v-55.3h11.9V149h7.9v-20.2h11.9V184.1z"/>
		<path class="st0" d="M362.6,184.1h-11.9v-55.3h11.9V184.1z"/>
		<path class="st0" d="M397.8,160.2c0.9,0.9,1.7,2.1,2.3,3.5c0.6,1.4,0.9,2.8,0.9,4.3v8.2c0,2.2-0.8,4.1-2.3,5.6
			c-1.5,1.5-3.4,2.3-5.6,2.3h-15.8c-1.1,0-2.1-0.2-3.1-0.6c-1-0.4-1.8-1-2.5-1.7c-0.7-0.7-1.3-1.5-1.7-2.5c-0.4-0.9-0.6-2-0.6-3.1
			v-9.9h11.9v5.9h7.9V168l-16.6-16.4c-0.9-0.9-1.7-2.1-2.3-3.5c-0.6-1.4-0.9-2.8-0.9-4.3v-7.1c0-1.1,0.2-2.1,0.6-3.1
			c0.4-0.9,0.9-1.8,1.7-2.5c0.7-0.7,1.6-1.3,2.5-1.7c1-0.4,2-0.6,3.1-0.6H393c2.2,0,4.1,0.8,5.6,2.3c1.5,1.5,2.3,3.4,2.3,5.6v9.9
			h-11.9v-5.9h-7.9v3.2L397.8,160.2z"/>
		<path class="st0" d="M438.7,184.1h-11.9v-55.3h11.9V184.1z"/>
		<path class="st0" d="M473.9,160.2c0.9,0.9,1.7,2.1,2.3,3.5c0.6,1.4,0.9,2.8,0.9,4.3v8.2c0,2.2-0.8,4.1-2.3,5.6
			c-1.5,1.5-3.4,2.3-5.6,2.3h-15.8c-1.1,0-2.1-0.2-3.1-0.6c-1-0.4-1.8-1-2.5-1.7c-0.7-0.7-1.3-1.5-1.7-2.5c-0.4-0.9-0.6-2-0.6-3.1
			v-9.9h11.9v5.9h7.9V168l-16.6-16.4c-0.9-0.9-1.7-2.1-2.3-3.5c-0.6-1.4-0.9-2.8-0.9-4.3v-7.1c0-1.1,0.2-2.1,0.6-3.1
			c0.4-0.9,0.9-1.8,1.7-2.5c0.7-0.7,1.6-1.3,2.5-1.7c1-0.4,2-0.6,3.1-0.6h15.8c2.2,0,4.1,0.8,5.6,2.3c1.5,1.5,2.3,3.4,2.3,5.6v9.9
			h-11.9v-5.9h-7.9v3.2L473.9,160.2z"/>
	</g>
	<g>
		<g>
			<path class="st0" d="M110.4,632.7c-29.8-45.3,19.3-106.2,64.7-116.2l13.8,17.1l-9.3,25.8l23.2-8.7l8.8-21.6l-21.3-26.1
				c-2.5,0.9-168.3,38.9-117,134.9c55.1,103.3,231.7-48.8,301.4-17.8l8.8-29.8C290.5,573.1,164,714.1,110.4,632.7L110.4,632.7z"/>
		</g>
		<path class="st0" d="M267.4,558.9c2,11.8-12.7,19.3-12.7,19.3C247.5,578.2,266.1,551,267.4,558.9L267.4,558.9z M202.6,626.2
			c10.1,0.6,22.8-16.2,29.4-26.2c0.5,1.3,1.2,2.5,2.1,3.7c10.6,15.1,30,11.4,50.7-25.4c27.2-44.7-6.5,24.9,23.2,14.1
			c26.9-9.7,38.8-70.9,38.8-70.9l-17,5.8c-5.4,51.9-25.1,56.9-25.1,56.9s8.6-16.7,8.6-30.6c0-13.9-4.5-19.1-9.1-18
			c-8.6,2.1-14.2,24.1-26.1,40.8c-3.5,4.9-24.6,29.5-27.5,10.8c0,0,35.9-12.6,24.2-37.6c-6.2-13.3-45.2,18.5-44.4,40.4
			c0,0.8-8.9,16.7-13.7,16.5c-5.9-0.3,28.5-86.3,28.5-86.3l-20.5,6.5l-30,81.1C194.8,607.9,188.2,625.3,202.6,626.2L202.6,626.2z"/>
		<path class="st0" d="M580.5,463.3c12.8-20.5,24.9-13.5,24.9-13.5l-6,16C583.3,497.2,566.1,486.3,580.5,463.3L580.5,463.3z
			 M468.5,509.1c-16,31.4-33.2,20.5-18.8-2.6c12.8-20.5,24.9-13.5,24.9-13.5L468.5,509.1L468.5,509.1z M379.6,522.6
			c2,11.8-12.7,19.3-12.7,19.3C359.6,542,378.2,514.7,379.6,522.6L379.6,522.6z M619.2,472.3c-5.9-0.3,26.8-84.9,26.8-84.9
			l-20.5,6.8l-14.8,41.5l-0.1,0l-2,4.6c-13.2-9.5-35.6,9.7-44.4,30.8c-1,2.3-1.8,5.1-2.4,7.6c-3.7,11-13.1,25.9-16.2,24.7
			c-9.5-3.7,16-40.4,6.6-46.2c-11-6.8-29.3,16-29.3,16l3.3-9.4l-14,4.5l-12.1,34.8c-5.3,12.3-11.6,22.6-17.7,21.4
			c-9.5-1.9,14.3-51.2,14.3-51.2l-17,5.7l-2,4.6c-13.2-9.5-35.6,9.7-44.4,30.8c-1.7,4-7.8,13-13,19.4c-2.5,2.8-4.5,4.6-5.3,4.5
			c-5.9-0.3,26.8-83,26.8-83l-20.5,6.5l-23.1,64.2l-0.9,2.1c0,0-30.7,48.7-34.7,22.8c0,0,35.9-12.6,24.2-37.6
			c-7.2-15.3-58.8,28.3-40.8,53.9c9.8,13.9,25.3,8.5,45.5-21.1c-0.1,0.9-0.1,1.8,0,2.8c0.3,4.8,2.4,10.4,9.4,10.2
			c5.6-0.1,13.1-7.2,16.5-11.1c4.7-4.9,9-10.8,12.2-15.5c-0.6,5.1,0.3,12.5,5.5,14.3c14,5,28.5-13.1,32.9-19.3c0.9-1.2,0,0,0,0
			c5.5,21,22.2-1,25.5-5.6l-3.3,9.9l16.4-5.5c6.1-16.5,14.1-44.4,27.9-46.7c8.6-1.4-10.2,27.3,1.6,34.2c10.8,6.4,22.6-13.9,25-16.6
			c0.8,2.8,2.3,5.3,5,6.2c12.2,4.3,24.7-8.7,30.6-16.3c1.2,2.8,3.6,5,8.4,5.3c19.7,1.3,34-35.1,34-35.1l-5.2,0.9
			C633.8,458.6,625.1,472.6,619.2,472.3L619.2,472.3z"/>
		<path class="st0" d="M657.1,392.2c-0.1,0.5-0.1,0.8,0,0.9c0.2,0.3,0.7,0.3,1.6,0c0.5-0.2,1-0.4,1.4-0.7c0.7-0.5,1.2-1,1.4-1.6
			c0.1-0.4,0.1-0.6-0.1-0.6c-0.2-0.1-0.7-0.1-1.3,0l-1.1,0.2c-1,0.2-1.7,0.2-2,0c-0.5-0.2-0.6-0.9-0.2-1.9c0.4-1,1-1.9,2-2.8
			c1-0.9,2.1-1.6,3.5-2.1c1.1-0.4,2-0.5,2.6-0.2c0.6,0.3,0.7,1,0.2,2.1l-2.1,0.8c0.2-0.6,0.1-1-0.3-1.1c-0.3,0-0.7,0-1.2,0.2
			c-0.6,0.2-1.1,0.5-1.5,0.9c-0.4,0.4-0.7,0.8-0.9,1.2c-0.2,0.4-0.1,0.6,0.2,0.7c0.2,0,0.6,0,1.2-0.1l1.7-0.3
			c0.7-0.1,1.3-0.1,1.5,0.1c0.4,0.3,0.5,0.9,0.1,1.8c-0.4,1-1.1,1.9-2.1,2.9c-1,0.9-2.2,1.6-3.6,2.2c-1.4,0.5-2.4,0.6-2.9,0.3
			c-0.6-0.3-0.6-1.1-0.2-2.2L657.1,392.2L657.1,392.2z"/>
		<path class="st0" d="M675.4,379.1l3.2-1.2l-4.2,10.7l-2.1,0.8l2.8-7.2c0.1-0.2,0.2-0.5,0.4-0.9c0.2-0.4,0.3-0.7,0.3-0.9l-5.6,9.7
			l-2.2,0.8l1.5-8.2c-0.1,0.2-0.2,0.5-0.3,0.9c-0.1,0.4-0.3,0.7-0.3,0.9l-2.8,7.2l-2.1,0.8l4.2-10.7l3.3-1.2l-1.4,7.7L675.4,379.1
			L675.4,379.1z"/>
	</g>
</g>
</svg>
