<svg xmlns="http://www.w3.org/2000/svg" viewBox="0 0 394.43 316.06"><defs><style>.cls-1{fill:#fff;}</style></defs><title>beer</title><g id="Layer_2" data-name="Layer 2"><g id="Layer_1-2" data-name="Layer 1"><path class="cls-1" d="M3.87,290.87h9v3.87H10.32v16.12H12.9v3.87h-9v-3.87H6.45V294.74H3.87Zm40,0h9.67v3.87H51v20H47.58L34.83,299.09v11.77h2.58v3.87H27.73v-3.87h2.58V294.74H27.73v-3.87H33l13.43,15.92V294.74H43.86v-3.87ZM110.12,314a15.93,15.93,0,0,1-8.27,2.08c-8,0-13.9-5.18-13.9-12.82,0-7.15,5.53-12.79,12.11-12.79,6,0,7.07,2.5,7.21,3l-.28-2.57h3.94l0,8.38H107c-.14-2.89-3-4.68-6.23-4.68-5.07,0-8.13,3.67-8.13,8.73a8.61,8.61,0,0,0,8.55,8.63c5,0,7.57-1.68,7.57-1.68Zm15,.75v-3.87h2.58V294.74h-2.58v-3.87h11v3.87h-3.87v16.12H140v-2.58h3.23v6.45Zm46.44-17.41v-2.58h-7.74v6.45h5.8v3.87h-5.8v5.8h7.74v-2.58h3.22v6.45H156.72v-3.87h2.58V294.74h-2.58v-3.87h18.06v6.45Zm33.53-6.45h9.68v3.87h-3.26l-8.75,20h-2.64l-8.75-20h-3.05v-3.87H198v3.87h-2l5.58,12.93,5.58-12.93h-2.09Zm37.41,6.45v-2.58h-7.74v6.45h5.8v3.87h-5.8v5.8h7.74v-2.58h3.87v6.45H228.31v-3.87h1.94V294.74h-1.94v-3.87h18.06v6.45Zm18.7,17.41v-3.87h2.58V294.74H261.2v-3.87h10.32v3.87h-3.87v16.12h7.74v-2.58h3.87v6.45Zm36.12-23.86h7.8l8.92,20h2.63v3.87h-9v-3.87h1.91l-1.13-2.58h-9.37l-1.1,2.58h2.59v3.87h-9v-3.87h2.6l7.32-16.12h-4.12v-3.87Zm3.75,14.19h6.18l-3.09-7.21Zm45.27-14.19h9v3.87h-2.58v20h-3.35l-12.78-15.64v11.77h2.58v3.87h-9.67v-3.87h2.58V294.74h-2.58v-3.87h5.92l13.43,15.92V294.74h-2.58v-3.87Zm23.21,0h11.6c7.39,0,12.75,5,12.75,11.92s-5.46,11.94-12.75,11.94h-11.6v-3.87h2.58V294.74h-2.58v-3.87Zm7.1,3.87v16.12h4.78a8.06,8.06,0,1,0,0-16.12ZM83,184.61l-7.46,7.65L83,199.72a6.22,6.22,0,0,1,1.91,3.44h.19v36.43a6.83,6.83,0,0,1-2.1,5L72.32,255.23a6.84,6.84,0,0,1-5,2.1H6.55a2.61,2.61,0,0,1-2.68-2.55V126.51a2.61,2.61,0,0,1,2.56-2.68H67.35a6.89,6.89,0,0,1,5,2.11L83,136.64a6.86,6.86,0,0,1,2.1,5v38a6.83,6.83,0,0,1-2.1,5ZM31.6,152.21v24.51H53.49l2.69-2.66a2.54,2.54,0,0,0,.58-1.33v-15.4a2.07,2.07,0,0,0-.58-1.33l-3.26-3.23a1.32,1.32,0,0,0-1.16-.56Zm0,76.75H53.49l2.69-2.67a2.5,2.5,0,0,0,.58-1.33V209.58a2.07,2.07,0,0,0-.58-1.33L52.92,205a2.06,2.06,0,0,0-1.16-.57H31.6V229Zm105.13-52.89h34.06a2.64,2.64,0,0,1,2.7,2.58v23.1a2.64,2.64,0,0,1-2.57,2.7H136.73V229h43.78a2.7,2.7,0,0,1,2.65,2.65v23a2.71,2.71,0,0,1-2.64,2.67H111.65a2.59,2.59,0,0,1-2.65-2.54.29.29,0,0,1,0-.13V126.51a2.6,2.6,0,0,1,2.52-2.68h69a2.71,2.71,0,0,1,2.64,2.68v23.1a2.67,2.67,0,0,1-2.65,2.6H136.73v23.86Zm99.32,0h33.42a2.64,2.64,0,0,1,2.7,2.57v23.11a2.64,2.64,0,0,1-2.57,2.7H236.05V229h43.78a2.71,2.71,0,0,1,2.66,2.65v23a2.74,2.74,0,0,1-2.68,2.67H210.34a2.61,2.61,0,0,1-2.67-2.55V126.51a2.62,2.62,0,0,1,2.55-2.68h69.59a2.73,2.73,0,0,1,2.68,2.68v23.1a2.69,2.69,0,0,1-2.66,2.6H236.05v23.86Zm152.21,14.41a6.26,6.26,0,0,1-1.92,5l-10.89,10.89-.58.38,19.51,47.94c.38,1.34-1.34,2.67-2.68,2.67H365.59a4.16,4.16,0,0,1-3.43-2.66l-18.67-46.35h-8.76v46.35a2.72,2.72,0,0,1-2.67,2.66H309.67a2.88,2.88,0,0,1-2.68-2.67V126.51a2.73,2.73,0,0,1,2.68-2.68h60.8a6.32,6.32,0,0,1,5,1.91l10.89,10.89a6.93,6.93,0,0,1,1.92,5.35v48.51Zm-53.53-10.54h20.16a1.81,1.81,0,0,0,1.34-.57l3.07-3.07a1.72,1.72,0,0,0,.58-1.54v-18a1.72,1.72,0,0,0-.58-1.53l-3.07-3.07a1.71,1.71,0,0,0-1.53-.57h-20ZM10.94,76.43,9.22,77.92l9.28,3-1.57-9.62-1.79,1.54-2.91-3.4,8-6.9,2.92,3.4L21,67.76l2.2,15L27,87.18l2.26-1.94,2.91,3.39-8.28,7.11L21,92.34l2.28-2-3.83-4.47L5.05,81.5,2.91,83.33,0,79.94,8,73ZM41.65,47.07c7.18-4.65,15.64-3,20.11,4s2.43,15.39-4.65,20S41.46,73.89,37,67c-4.33-6.7-2.33-15.47,4.62-20ZM54.82,67.38a9.56,9.56,0,0,0,2.61-13.46c-3.07-4.75-8.72-6.19-13.36-3.18s-5.65,8.75-2.58,13.5a9.57,9.57,0,0,0,13.33,3.14Zm27.92-42,9.92-4.52L94.51,25l-2.75,1.26,4.85,10.64c3.41,7.51.69,12.8-5.6,15.66S79.1,53.89,75.69,46.38L70.85,35.74,68.1,37l-1.85-4.07,9.92-4.52L78,32.47l-2.75,1.25,4.84,10.65c2.18,4.79,5.27,5.79,9,4.07s5.2-4.78,3-9.6L87.34,28.22l-2.75,1.26Zm59-19.27c8.38-1.72,15.66,2.91,17.31,11s-3.32,15.24-11.59,16.93-15.63-3-17.27-11c-1.6-7.81,3.44-15.26,11.55-16.92Zm4.91,23.72a9.54,9.54,0,0,0,7.31-11.6c-1.14-5.54-5.88-8.94-11.29-7.82s-8.45,6.1-7.31,11.64a9.59,9.59,0,0,0,11.29,7.78ZM180,5.68l-2.78.1,4.51,13.74L187.76.88l2.79-.11,7.63,18v.09l3.36-14.09-2.91.12L198.46.45,209.75,0l.18,4.47-3.21.14L200.63,28l-3.26.13-7.9-18-6.32,18.56-3.22.13L171.91,6l-3.25.13-.18-4.47,11.29-.45Zm59.67,5,.34-3-8.85-1-.87,7.69,6.62.75-.48,4.29-6.63-.75L229,25.17l8.85,1,.34-3,4.13.47-.85,7.49-20.81-2.37.5-4.45,3,.34,2.1-18.53-3-.34.51-4.45L244.6,3.67l-.86,7.49Zm41.92.66,6.26,2.19L291.39,36l16.52-15.38,6.26,2.19L312.69,27l-3.48-1.22-5.68,17.78,3,1L305,48.82l-10.25-3.59L296.24,41l2.89,1,3.94-11.52-13,13.09-2.71-.94-2.15-18.1-4,11.2,2.93,1L282.69,41l-10.26-3.59,1.48-4.23,3,1,6.67-17.43-3.48-1.22Zm58,32.59L341,41.23l-7.88-4.15-3.6,6.85L335.4,47l-2,3.81-5.9-3.11-3.07,5.85,7.88,4.15L333.72,55,337.4,57l-3.51,6.67-18.53-9.77,2.08-4,2.67,1.41,8.68-16.51-2.67-1.41,2.09-4,18.53,9.77-3.51,6.67ZM381.18,62.5l7,5.74-6.73,24.43,2.3,1.89L380.87,98,373,91.5l2.84-3.45,1.63,1.35.85-3-8-6.61-2.76,1.43,1.82,1.5-2.85,3.46-8-6.57,2.84-3.45L363.67,78,382,69l-3.63-3ZM374,77.84l5.45,4.49L382,73.72ZM125.7,88.59c-1.23.19-1.26.08,0-.23l77.46-19.85c1.21-.31,1.71.33,1.12,1.43l-3.92,7.23c-.58,1.09-.07,1.82,1.16,1.62l68.27-11.18c1.23-.2,1.25-.1.05.22L184.62,90.59c-1.2.32-1.71-.31-1.11-1.41l4.31-8c.59-1.09.07-1.84-1.16-1.66Z"/></g></g></svg>