<?xml version="1.0" encoding="utf-8"?>
<!-- Generator: Adobe Illustrator 22.1.0, SVG Export Plug-In . SVG Version: 6.00 Build 0)  -->
<svg version="1.1" id="Layer_1" xmlns="http://www.w3.org/2000/svg" xmlns:xlink="http://www.w3.org/1999/xlink" x="0px" y="0px"
	 viewBox="0 0 213.7 101.7" style="enable-background:new 0 0 213.7 101.7;" xml:space="preserve">
<style type="text/css">
	.st0{fill:#FFFFFF;}
</style>
<title>Asset 3</title>
<g>
	<path class="st0" d="M16.1,84.9C5.9,69.4,22.7,48.5,38.3,45l4.7,5.9l-3.2,8.9l8-3l3-7.4l-7.3-9c-0.8,0.3-57.7,13.3-40.2,46.3
		c18.9,35.4,79.5-16.7,103.4-6.1l3-10.2C77.9,64.5,34.5,112.8,16.1,84.9z"/>
	<path class="st0" d="M47.8,82.7c3.5,0.2,7.8-5.5,10.1-9c0.2,0.4,0.4,0.8,0.7,1.3c3.6,5.2,10.3,3.9,17.4-8.7c9.3-15.3-2.2,8.6,8,4.9
		c9.2-3.3,13.3-24.3,13.3-24.3l-5.8,2c-1.9,17.8-8.6,19.5-8.6,19.5s3-5.7,3-10.5c0-4.8-1.5-6.5-3.1-6.2c-3,0.7-4.9,8.3-9,14
		c-1.2,1.7-8.4,10.1-9.4,3.7c0,0,12.3-4.3,8.3-12.9c-2.1-4.5-15.5,6.4-15.2,13.9c0,0.3-3.1,5.7-4.7,5.7c-2-0.1,9.8-29.6,9.8-29.6
		l-7,2.2L45.1,76.4C45.1,76.4,42.8,82.4,47.8,82.7z M70,59.6c0.7,4-4.4,6.6-4.4,6.6C63.2,66.2,69.5,56.9,70,59.6z"/>
	<path class="st0" d="M190.7,29.9c-2-0.1,9.2-29.1,9.2-29.1l-7,2.3l-5.1,14.2l0,0l-0.7,1.6c-4.5-3.3-12.2,3.3-15.2,10.6
		c-0.3,0.8-0.6,1.7-0.8,2.6c-1.3,3.8-4.5,8.9-5.5,8.5c-3.3-1.3,5.5-13.9,2.3-15.9c-3.8-2.3-10.1,5.5-10.1,5.5l1.1-3.2l-4.8,1.5
		l-4.2,11.9c-1.8,4.2-4,7.8-6.1,7.3c-3.3-0.7,4.9-17.6,4.9-17.6l-5.8,2l-0.7,1.6c-4.5-3.3-12.2,3.3-15.2,10.6
		c-0.6,1.4-2.7,4.4-4.4,6.7c-0.9,1-1.5,1.6-1.8,1.6c-2-0.1,9.2-28.5,9.2-28.5l-7,2.2l-7.9,22l-0.3,0.7c0,0-10.5,16.7-11.9,7.8
		c0,0,12.3-4.3,8.3-12.9c-2.5-5.3-20.2,9.7-14,18.5c3.4,4.8,8.7,2.9,15.6-7.2c0,0.3,0,0.6,0,1c0.1,1.6,0.8,3.6,3.2,3.5
		c1.9,0,4.5-2.5,5.7-3.8c1.6-1.7,3.1-3.7,4.2-5.3c-0.2,1.8,0.1,4.3,1.9,4.9c4.8,1.7,9.8-4.5,11.3-6.6c0.3-0.4,0,0,0,0
		c1.9,7.2,7.6-0.3,8.7-1.9l-1.1,3.4l5.6-1.9c2.1-5.7,4.8-15.2,9.6-16c2.9-0.5-3.5,9.3,0.5,11.7c3.7,2.2,7.8-4.8,8.6-5.7
		c0.3,1,0.8,1.8,1.7,2.1c4.2,1.5,8.5-3,10.5-5.6c0.4,1,1.2,1.7,2.9,1.8c6.8,0.5,11.7-12.1,11.7-12.1l-1.8,0.3
		C195.7,25.2,192.7,30,190.7,29.9z M108.5,47.1c0.7,4-4.4,6.6-4.4,6.6C101.6,53.8,108,44.4,108.5,47.1z M139,42.5
		c-5.5,10.8-11.4,7-6.5-0.9c4.4-7,8.5-4.6,8.5-4.6L139,42.5z M177.4,26.8c4.4-7,8.5-4.6,8.5-4.6l-2.1,5.5
		C178.4,38.4,172.5,34.7,177.4,26.8z"/>
</g>
<g>
	<path class="st0" d="M62.4,42.1l-1,1c-0.2,0.2-0.4,0.3-0.4,0.3l-4.6,1.5c-0.1,0-0.2,0-0.1-0.1l2.9-8.4c0-0.1,0.1-0.2,0.3-0.2
		l4.6-1.5c0,0,0.2-0.1,0.3,0l0.6,0.4c0.1,0.1,0,0.3,0,0.3l-2.2,6.4C62.7,41.7,62.6,41.9,62.4,42.1z M60.7,37.3l-1.8,5.1l1.6-0.5
		l0.3-0.2c0,0,0.1-0.1,0.1-0.1l1.5-4.5c0,0,0-0.1,0-0.1l-0.2-0.1c0,0-0.1,0-0.1,0L60.7,37.3z"/>
	<path class="st0" d="M68,36.3l2.5-0.8c0.1,0,0.2,0,0.1,0.1l-0.5,1.5c0,0.1-0.1,0.2-0.3,0.2l-2.5,0.8l-0.6,1.6l3.3-1.1
		c0.1,0,0.2,0,0.1,0.1l-0.5,1.5c0,0.1-0.2,0.2-0.3,0.2l-5.2,1.7c-0.1,0-0.2,0-0.1-0.1l2.9-8.4c0-0.1,0.1-0.2,0.3-0.2l5.2-1.7
		c0.1,0,0.2,0,0.1,0.1l-0.5,1.5c0,0.1-0.2,0.2-0.3,0.2l-3.3,1.1L68,36.3z"/>
	<path class="st0" d="M80.4,30.2L80.4,30.2L80,31.5c0,0.1-0.2,0.2-0.3,0.2L78,32.3c-0.1,0-0.2,0-0.1-0.1l0.2-0.6l-1.8,0.6
		c0,0-0.1,0-0.1,0.1l-0.3,0.3c-0.1,0.1-0.1,0.1-0.1,0.1l-0.4,1l0,0c0,0,0,0.1,0,0.1l0.1,0.1l2.7-0.9c0,0,0.2-0.1,0.3,0l0.6,0.4
		c0.1,0.1,0,0.3,0,0.3l-1,3c0,0,0,0.2-0.3,0.4l-1,1c-0.2,0.2-0.4,0.3-0.4,0.3l-3.7,1.2c0,0-0.2,0.1-0.3,0L71.8,39
		c-0.1-0.1,0-0.3,0-0.3s0,0,0,0l0.4-1.2c0-0.1,0.2-0.2,0.3-0.2l1.7-0.6c0.1,0,0.2,0,0.1,0.1l-0.2,0.6l1.8-0.6c0,0,0,0,0.1-0.1
		l0.3-0.3c0.1-0.1,0.1-0.1,0.1-0.1l0.3-0.9c0,0,0-0.1,0-0.1l-0.2-0.1c0,0,0,0-0.1,0L73.9,36c0,0-0.2,0.1-0.3,0L73,35.5
		c-0.1-0.1,0-0.3,0-0.3l0,0l1-3l0,0c0,0,0-0.2,0.3-0.4l1-1c0.2-0.2,0.4-0.3,0.4-0.3l3.7-1.2c0,0,0.2-0.1,0.3,0l0.6,0.4
		C80.5,30,80.4,30.2,80.4,30.2L80.4,30.2z"/>
	<path class="st0" d="M88.1,26.8l-0.5,1.5c0,0.1-0.2,0.2-0.3,0.2l-1.8,0.6l-2.3,6.7c0,0.1-0.2,0.2-0.3,0.2l-1.7,0.6
		c-0.1,0-0.2,0-0.1-0.1l2.3-6.7l-1.8,0.6c-0.1,0-0.2,0-0.2-0.1l0.5-1.5c0-0.1,0.2-0.2,0.3-0.3l5.8-1.9
		C88.1,26.6,88.1,26.7,88.1,26.8z"/>
	<path class="st0" d="M91.3,25.7l-2.9,8.4c0,0.1-0.1,0.2-0.3,0.2l-1.7,0.6c-0.1,0-0.2,0-0.1-0.1l2.9-8.4c0-0.1,0.1-0.2,0.3-0.2
		l1.7-0.6C91.3,25.6,91.4,25.6,91.3,25.7z"/>
	<path class="st0" d="M99.7,22.9l-2.9,8.4c0,0.1-0.1,0.2-0.3,0.2l-2.3,0.8c-0.1,0-0.2,0-0.2-0.1l-0.3-3.6l-1.4,4.2
		c0,0.1-0.2,0.2-0.3,0.2l-1.7,0.6c-0.1,0-0.2,0-0.1-0.1l2.9-8.4c0-0.1,0.1-0.2,0.3-0.2l2.1-0.7c0.1,0,0.2,0,0.1,0.1l0,0l0.2,4.2
		l0,0.1l1.7-5c0-0.1,0.2-0.2,0.3-0.2l1.7-0.6C99.7,22.7,99.7,22.8,99.7,22.9z"/>
	<path class="st0" d="M105.5,28.4c0,0.1-0.2,0.2-0.3,0.2l-1.6,0.5c-0.1,0-0.2,0-0.2-0.1l0-0.9l-2.9,1l-0.7,1.1
		c-0.1,0.1-0.2,0.2-0.3,0.3l-1.6,0.5c-0.1,0-0.2,0-0.2-0.1l5.8-9.3l0,0c0.1-0.1,0.2-0.2,0.3-0.2l0.6-0.2l0.4-0.1l0.6-0.2
		c0.1,0,0.1,0,0.1,0.1l0,0C105.6,23.4,105.6,25.9,105.5,28.4z M103.4,26.7l0-2.3l-1.8,2.9L103.4,26.7z"/>
	<path class="st0" d="M114,18.2l-0.5,1.5c0,0.1-0.2,0.2-0.3,0.2l-1.8,0.6l-2.3,6.7c0,0.1-0.2,0.2-0.3,0.2l-1.7,0.6
		c-0.1,0-0.2,0-0.1-0.1l2.3-6.7l-1.8,0.6c-0.1,0-0.2,0-0.2-0.1l0.5-1.5c0-0.1,0.2-0.2,0.3-0.3l5.8-1.9C114,18,114.1,18.1,114,18.2z"
		/>
	<path class="st0" d="M117.3,17.1l-2.9,8.4c0,0.1-0.1,0.2-0.3,0.2l-1.7,0.6c-0.1,0-0.2,0-0.1-0.1l2.9-8.4c0-0.1,0.1-0.2,0.3-0.2
		l1.7-0.6C117.2,17,117.3,17,117.3,17.1z"/>
	<path class="st0" d="M122.8,21.8c0,0,0,0.2-0.3,0.4l-1.1,1c-0.2,0.2-0.4,0.3-0.4,0.3l-3.7,1.2c0,0-0.2,0.1-0.3,0l-0.6-0.4
		c-0.1-0.1,0-0.3,0-0.3l2.2-6.4c0,0,0-0.2,0.3-0.4l1-1c0.2-0.2,0.4-0.3,0.4-0.3l3.7-1.2c0,0,0.2-0.1,0.3,0l0.6,0.4
		c0.1,0.1,0,0.3,0,0.3L122.8,21.8z M120.9,17.3C120.9,17.3,120.9,17.3,120.9,17.3l-0.4,0.3c-0.1,0.1-0.1,0.1-0.1,0.1l-1.5,4.5
		c0,0,0,0,0,0.1l0.1,0.1l1.7-0.6l0.3-0.2c0.1-0.1,0.1-0.1,0.1-0.1l1.5-4.5c0,0,0-0.1,0-0.1l-0.2-0.1c0,0-0.1,0-0.1,0L120.9,17.3z"/>
	<path class="st0" d="M133.7,11.6l-2.9,8.4c0,0.1-0.1,0.2-0.3,0.2l-2.3,0.8c-0.1,0-0.2,0-0.2-0.1l-0.3-3.6l-1.4,4.2
		c0,0.1-0.2,0.2-0.3,0.2l-1.7,0.6c-0.1,0-0.2,0-0.1-0.1l2.9-8.4c0-0.1,0.1-0.2,0.3-0.2l2.1-0.7c0.1,0,0.2,0,0.1,0.1l0,0l0.2,4.2
		l0,0.1l1.7-5c0-0.1,0.2-0.2,0.3-0.2l1.7-0.6C133.7,11.4,133.8,11.5,133.7,11.6z"/>
</g>
<g>
	<path class="st0" d="M201.7,3.2c0.2,0.1,0.5,0.2,0.8,0.2c0.3,0,0.5-0.1,0.5-0.4c0-0.2-0.2-0.3-0.6-0.5c-0.6-0.2-0.9-0.5-0.9-1
		c0-0.6,0.5-1,1.3-1c0.4,0,0.6,0.1,0.8,0.2l-0.2,0.6c-0.1-0.1-0.4-0.2-0.7-0.2c-0.3,0-0.5,0.2-0.5,0.3c0,0.2,0.2,0.3,0.6,0.5
		c0.6,0.2,0.9,0.5,0.9,1c0,0.6-0.4,1-1.3,1c-0.4,0-0.8-0.1-0.9-0.2L201.7,3.2z"/>
	<path class="st0" d="M207.1,2.7c0-0.4,0-0.9,0-1.4h0c-0.1,0.4-0.2,0.9-0.4,1.3l-0.4,1.3h-0.6l-0.4-1.3c-0.1-0.4-0.2-0.9-0.3-1.3h0
		c0,0.4,0,1-0.1,1.4L204.9,4h-0.7l0.2-3.3h1l0.3,1.1c0.1,0.4,0.2,0.8,0.3,1.2h0c0.1-0.4,0.2-0.8,0.3-1.2l0.3-1.1h1l0.2,3.3h-0.7
		L207.1,2.7z"/>
</g>
</svg>
