<?xml version="1.0" encoding="utf-8"?>
<!-- Generator: Adobe Illustrator 22.1.0, SVG Export Plug-In . SVG Version: 6.00 Build 0)  -->
<svg version="1.1" id="Layer_1" xmlns="http://www.w3.org/2000/svg" xmlns:xlink="http://www.w3.org/1999/xlink" x="0px" y="0px"
	 viewBox="0 0 506 241.9" style="enable-background:new 0 0 506 241.9;" xml:space="preserve">
<title>DestClevelandSciptLogo1_BW</title>
<g>
	<path d="M44.2,205.1C19.7,168,60,118,97.2,109.9l11.3,14l-7.6,21.2l19-7.2l7.2-17.7l-17.5-21.4c-2,0.7-138,31.9-96,110.6
		c45.2,84.7,190-40,247.1-14.6l7.2-24.4C191.9,156.3,88.2,271.9,44.2,205.1z"/>
	<path d="M119.8,199.8c8.3,0.5,18.7-13.3,24.1-21.5c0.4,1,1,2,1.7,3c8.7,12.4,24.6,9.3,41.6-20.8c22.3-36.6-5.3,20.4,19,11.6
		c22-8,31.8-58.2,31.8-58.2l-13.9,4.8c-4.4,42.6-20.6,46.6-20.6,46.6s7.1-13.7,7.1-25.1c0-11.4-3.7-15.6-7.5-14.7
		c-7.1,1.7-11.7,19.8-21.4,33.5c-2.9,4-20.1,24.2-22.5,8.9c0,0,29.4-10.3,19.8-30.8c-5.1-10.9-37.1,15.2-36.4,33.1
		c0,0.7-7.3,13.7-11.2,13.5c-4.8-0.3,23.3-70.8,23.3-70.8l-16.8,5.4l-24.6,66.5C113.4,184.8,108.1,199.1,119.8,199.8z M172.9,144.6
		c1.6,9.6-10.4,15.8-10.4,15.8C156.6,160.5,171.9,138.2,172.9,144.6z"/>
	<path d="M461.4,73.6c-4.8-0.3,22-69.6,22-69.6l-16.8,5.6l-12.1,34l-0.1,0l-1.6,3.8c-10.8-7.8-29.2,7.9-36.4,25.3
		c-0.8,1.9-1.5,4.2-2,6.2c-3,9-10.8,21.2-13.3,20.3c-7.8-3,13.1-33.2,5.4-37.9c-9-5.6-24,13.2-24,13.2l2.7-7.7l-11.4,3.7l-9.9,28.5
		c-4.3,10.1-9.5,18.6-14.5,17.5c-7.8-1.6,11.8-42,11.8-42l-13.9,4.7l-1.6,3.8c-10.8-7.8-29.2,7.9-36.4,25.3
		c-1.4,3.3-6.4,10.6-10.6,15.9c-2,2.3-3.7,3.8-4.4,3.7c-4.8-0.3,22-68.1,22-68.1l-16.8,5.4l-18.9,52.6l-0.7,1.7
		c0,0-25.1,39.9-28.4,18.7c0,0,29.4-10.3,19.8-30.8c-5.9-12.6-48.2,23.2-33.5,44.2c8,11.4,20.7,7,37.3-17.3c-0.1,0.7-0.1,1.5,0,2.3
		c0.2,3.9,2,8.5,7.7,8.4c4.6-0.1,10.7-5.9,13.6-9.1c3.9-4,7.4-8.9,10-12.7c-0.5,4.2,0.2,10.2,4.5,11.7c11.5,4.1,23.3-10.8,26.9-15.8
		c0.7-1,0,0,0,0c4.5,17.2,18.2-0.8,20.9-4.6l-2.7,8.1l13.4-4.5c5-13.5,11.6-36.4,22.9-38.3c7-1.2-8.4,22.3,1.3,28
		c8.9,5.2,18.5-11.4,20.5-13.6c0.6,2.3,1.9,4.3,4.1,5.1c10,3.6,20.2-7.2,25.1-13.3c1,2.3,3,4.1,6.9,4.4
		c16.2,1.1,27.8-28.8,27.8-28.8l-4.3,0.7C473.4,62.4,466.2,73.9,461.4,73.6z M264.9,114.9c1.6,9.6-10.4,15.8-10.4,15.8
		C248.6,130.8,263.8,108.4,264.9,114.9z M337.8,103.8c-13.2,25.7-27.3,16.8-15.4-2.1c10.5-16.8,20.4-11.1,20.4-11.1L337.8,103.8z
		 M429.6,66.3C440.1,49.5,450,55.2,450,55.2l-5,13.2C431.9,94.1,417.8,85.2,429.6,66.3z"/>
</g>
<g>
	<path d="M154.8,102.9l-2.5,2.3c-0.5,0.5-1,0.6-1,0.6l-10.9,3.6c-0.3,0.1-0.4,0-0.3-0.3l6.9-20.1c0.1-0.2,0.4-0.5,0.6-0.6l10.9-3.6
		c0,0,0.5-0.2,0.8,0l1.3,1c0.3,0.2,0.1,0.7,0.1,0.7l-5.3,15.3C155.5,102,155.4,102.4,154.8,102.9z M150.7,91.4l-4.2,12.1l3.9-1.3
		l0.6-0.6c0.1-0.1,0.2-0.2,0.2-0.2l3.7-10.7c0,0,0-0.1,0-0.2l-0.4-0.3c0-0.1-0.1,0-0.2,0L150.7,91.4z"/>
	<path d="M168.2,89.1l6.1-2c0.3-0.1,0.4,0,0.3,0.3l-1.2,3.6c-0.1,0.2-0.4,0.5-0.6,0.6l-6.1,2l-1.3,3.9l7.9-2.6
		c0.2-0.1,0.4,0,0.3,0.3l-1.2,3.6c-0.1,0.2-0.4,0.5-0.6,0.6l-12.5,4.2c-0.3,0.1-0.4,0-0.3-0.3l6.9-20.1c0.1-0.2,0.4-0.5,0.6-0.6
		l12.5-4.2c0.2-0.1,0.4,0,0.3,0.3l-1.2,3.6c-0.1,0.2-0.4,0.5-0.6,0.6l-7.9,2.6L168.2,89.1z"/>
	<path d="M197.8,74.4L197.8,74.4l-1,3.1c-0.1,0.2-0.4,0.5-0.7,0.6l-4.1,1.3c-0.3,0.1-0.4,0-0.3-0.3l0.5-1.5l-4.3,1.4
		c-0.1,0-0.1,0-0.3,0.2l-0.7,0.7c-0.2,0.2-0.2,0.3-0.2,0.3l-0.8,2.4l0,0c0,0-0.1,0.1,0,0.2l0.3,0.3l6.4-2.1c0,0,0.5-0.2,0.8,0l1.3,1
		c0.3,0.2,0.1,0.7,0.1,0.7l-2.5,7.1c0,0-0.1,0.4-0.6,0.9l-2.5,2.3c-0.5,0.5-1,0.6-1,0.6l-8.9,3c0,0-0.5,0.2-0.8,0l-1.3-1
		c-0.3-0.2-0.1-0.7-0.1-0.7s0,0,0,0l1-2.9c0.1-0.2,0.4-0.5,0.7-0.6l4.1-1.3c0.3-0.1,0.4,0,0.3,0.3l-0.5,1.3l4.3-1.4
		c0.1,0,0.1-0.1,0.2-0.1l0.8-0.7c0.1-0.2,0.2-0.3,0.2-0.3l0.8-2.2c0,0,0-0.1,0-0.2l-0.4-0.3c0,0-0.1-0.1-0.1,0l-6.2,2.1
		c0,0-0.5,0.2-0.8,0l-1.3-1c-0.3-0.2-0.1-0.7-0.1-0.7l0,0l2.5-7.1l0,0c0,0,0.1-0.4,0.6-0.9l2.5-2.3c0.5-0.5,1-0.6,1-0.6l8.9-3
		c0,0,0.5-0.2,0.8,0l1.3,1C198,73.9,197.9,74.4,197.8,74.4L197.8,74.4z"/>
	<path d="M216.2,66.2l-1.2,3.5c-0.1,0.2-0.4,0.5-0.7,0.6l-4.4,1.5l-5.6,16.1c-0.1,0.2-0.4,0.4-0.6,0.5l-4.1,1.3
		c-0.2,0.1-0.4,0-0.4-0.2l5.6-16.1l-4.4,1.5c-0.3,0.1-0.5,0-0.4-0.2l1.2-3.5c0.1-0.2,0.4-0.5,0.7-0.6l13.8-4.6
		C216.1,65.9,216.3,66,216.2,66.2z"/>
	<path d="M224,63.7l-6.9,20c-0.1,0.2-0.4,0.5-0.6,0.6l-4.1,1.4c-0.3,0.1-0.4,0-0.3-0.3l6.9-20c0.1-0.2,0.4-0.5,0.6-0.6l4.1-1.4
		C223.9,63.3,224,63.4,224,63.7z"/>
	<path d="M243.9,56.9L237,77c-0.1,0.2-0.4,0.5-0.6,0.6l-5.4,1.8c-0.3,0.1-0.4,0-0.5-0.2l-0.7-8.6l-3.5,10c-0.1,0.2-0.4,0.5-0.6,0.6
		l-4.1,1.4c-0.3,0.1-0.4,0-0.3-0.3l6.9-20.1c0.1-0.2,0.4-0.5,0.6-0.6l5.1-1.7c0.2-0.1,0.4,0,0.3,0.3l0,0l0.5,10l0,0.3l4.1-11.9
		c0.1-0.2,0.4-0.5,0.6-0.6l4.1-1.4C243.9,56.6,244,56.7,243.9,56.9z"/>
	<path d="M257.9,70.1c0,0.2-0.4,0.5-0.7,0.6l-3.9,1.3c-0.3,0.1-0.4,0-0.5-0.2l0-2.1l-6.9,2.3l-1.7,2.7c-0.2,0.2-0.5,0.5-0.8,0.6
		l-3.9,1.3c-0.3,0.1-0.5,0-0.4-0.2L253,54l0,0c0.2-0.3,0.4-0.5,0.6-0.6l1.5-0.5l1.1-0.4l1.5-0.5c0.2-0.1,0.3,0,0.3,0.3l0,0
		C258,58.2,257.9,64.2,257.9,70.1z M252.9,66l0.1-5.4l-4.2,6.8L252.9,66z"/>
	<path d="M278.2,45.7l-1.2,3.5c-0.1,0.2-0.4,0.5-0.7,0.6l-4.4,1.5l-5.6,16.1c-0.1,0.2-0.4,0.4-0.6,0.5l-4.1,1.3
		c-0.2,0.1-0.4,0-0.4-0.2l5.6-16.1l-4.4,1.5c-0.3,0.1-0.5,0-0.4-0.2l1.2-3.5c0.1-0.2,0.4-0.5,0.7-0.6l13.8-4.6
		C278.1,45.3,278.3,45.4,278.2,45.7z"/>
	<path d="M285.9,43.1l-6.9,20c-0.1,0.2-0.4,0.5-0.6,0.6l-4.1,1.4c-0.3,0.1-0.4,0-0.3-0.3l6.9-20c0.1-0.2,0.4-0.5,0.6-0.6l4.1-1.4
		C285.9,42.7,286,42.9,285.9,43.1z"/>
	<path d="M299.2,54.3c0,0-0.1,0.4-0.6,0.9l-2.5,2.3c-0.5,0.5-1,0.6-1,0.6l-8.9,3c0,0-0.5,0.2-0.8,0l-1.3-1c-0.3-0.2-0.1-0.7-0.1-0.7
		l5.3-15.3c0,0,0.1-0.4,0.6-0.9l2.5-2.3c0.5-0.5,1-0.6,1-0.6l8.9-2.9c0,0,0.5-0.2,0.8,0l1.4,1c0.3,0.2,0.1,0.7,0.1,0.7L299.2,54.3z
		 M294.6,43.7c0,0-0.1,0-0.2,0.2l-0.8,0.7c-0.1,0.2-0.2,0.3-0.2,0.3l-3.7,10.7c0,0.1,0,0.1,0,0.2l0.3,0.3l4-1.3l0.6-0.6
		c0.1-0.1,0.2-0.2,0.2-0.2l3.7-10.7c0,0,0.1-0.1,0-0.2l-0.4-0.3c-0.1-0.1-0.2,0-0.2,0L294.6,43.7z"/>
	<path d="M325.3,29.9L318.3,50c-0.1,0.2-0.4,0.5-0.6,0.6l-5.4,1.8c-0.3,0.1-0.4,0-0.5-0.2l-0.7-8.6l-3.5,10
		c-0.1,0.2-0.4,0.5-0.6,0.6l-4.1,1.4c-0.3,0.1-0.4,0-0.3-0.3l6.9-20.1c0.1-0.2,0.4-0.5,0.6-0.6l5.1-1.7c0.2-0.1,0.4,0,0.3,0.3l0,0
		l0.5,10l0,0.3l4.1-11.9c0.1-0.2,0.4-0.5,0.6-0.6l4.1-1.4C325.2,29.6,325.4,29.7,325.3,29.9z"/>
</g>
<g>
	<path d="M487.6,10c0.5,0.2,1.2,0.5,2,0.5c0.8,0,1.3-0.3,1.3-0.9c0-0.5-0.4-0.8-1.3-1.1c-1.3-0.5-2.2-1.2-2.2-2.4
		c0-1.4,1.1-2.4,3-2.4c0.9,0,1.6,0.2,2,0.4L492,5.6c-0.3-0.2-0.9-0.4-1.6-0.4c-0.8,0-1.2,0.4-1.2,0.8c0,0.5,0.4,0.7,1.5,1.1
		c1.4,0.5,2,1.2,2,2.4c0,1.3-1,2.5-3.2,2.5c-0.9,0-1.8-0.2-2.2-0.5L487.6,10z"/>
	<path d="M500.6,8.8c0-1-0.1-2.1-0.1-3.3h0c-0.3,1-0.6,2.1-0.9,3.1l-1,3.1h-1.4l-0.8-3.1c-0.3-0.9-0.5-2.1-0.7-3.1h0
		c0,1.1-0.1,2.3-0.1,3.3l-0.2,3h-1.7l0.5-7.9h2.4l0.8,2.7c0.3,0.9,0.5,1.9,0.7,2.8h0c0.2-0.9,0.5-2,0.8-2.8l0.8-2.6h2.4l0.4,7.9
		h-1.7L500.6,8.8z"/>
</g>
</svg>
