<svg id="Layer_1" data-name="Layer 1" xmlns="http://www.w3.org/2000/svg" viewBox="0 0 505.98 241.9"><defs><style>.cls-1,.cls-2,.cls-4{fill:#231f20;}.cls-2{font-size:32.25px;font-family:Liberator, Liberator;letter-spacing:-0.01em;}.cls-3{letter-spacing:-0.18em;}.cls-4{font-size:12px;font-family:Myriad-Bold, Myriad Bold;font-weight:700;}</style></defs><title>DestClevelandSciptLogo1_BW</title><path class="cls-1" d="M81.52,364.4c-24.93-37.84,16.1-88.78,54.07-97.12l11.52,14.28-7.77,21.57,19.38-7.3,7.37-18L148.27,256c-2.06.73-140.64,32.49-97.82,112.75C96.5,455,244.13,327.93,302.3,353.85L309.68,329C232.06,314.61,126.34,432.45,81.52,364.4Z" transform="translate(-42.25 -157.29)"/><path class="cls-1" d="M158.63,359c8.43.51,19-13.51,24.57-21.91a16.57,16.57,0,0,0,1.72,3.05c8.87,12.64,25.07,9.51,42.37-21.2,22.7-37.32-5.42,20.83,19.42,11.82,22.44-8.14,32.46-59.28,32.46-59.28L265,276.3c-4.54,43.39-21,47.54-21,47.54s7.2-13.94,7.2-25.54-3.74-15.94-7.6-15c-7.19,1.75-11.91,20.16-21.81,34.12-2.91,4.09-20.52,24.68-22.95,9,0,0,30-10.52,20.19-31.39-5.18-11.07-37.8,15.47-37.12,33.75,0,.67-7.45,14-11.46,13.77-4.91-.28,23.78-72.14,23.78-72.14l-17.1,5.46-25.06,67.77S146.62,358.23,158.63,359Zm54.12-56.25c1.64,9.83-10.64,16.16-10.64,16.16C196.11,318.92,211.66,296.16,212.75,302.71Z" transform="translate(-42.25 -157.29)"/><path class="cls-1" d="M506.79,230.35c-4.91-.29,22.38-70.92,22.38-70.92l-17.1,5.72L499.71,199.8h0L498,203.68c-11-8-29.79,8.09-37.12,25.78a43,43,0,0,0-2,6.32c-3.07,9.22-11,21.63-13.52,20.65-7.94-3.08,13.36-33.8,5.54-38.64-9.18-5.68-24.49,13.42-24.49,13.42l2.73-7.88-11.67,3.75-10.14,29.06c-4.41,10.31-9.66,18.92-14.77,17.88-7.95-1.62,12-42.81,12-42.81L390.32,236l-1.67,3.86c-11-7.94-29.79,8.09-37.12,25.78-1.38,3.33-6.53,10.83-10.82,16.2-2.08,2.34-3.73,3.83-4.47,3.79-4.91-.27,22.42-69.38,22.42-69.38l-17.1,5.46-19.27,53.63-.73,1.75s-25.61,40.71-29,19.08c0,0,30-10.51,20.2-31.39-6-12.82-49.13,23.66-34.11,45,8.16,11.63,21.11,7.13,38-17.61a16.79,16.79,0,0,0,0,2.37c.24,4,2,8.71,7.83,8.56,4.67-.12,10.94-6.05,13.82-9.31a100.45,100.45,0,0,0,10.16-13c-.46,4.31.22,10.41,4.57,12,11.74,4.17,23.8-11,27.46-16.09h0c4.57,17.57,18.52-.8,21.28-4.68l-2.73,8.31,13.67-4.6c5.06-13.81,11.79-37.1,23.31-39,7.15-1.18-8.56,22.77,1.31,28.57,9,5.31,18.9-11.58,20.87-13.88.64,2.37,1.91,4.41,4.17,5.21,10.18,3.62,20.61-7.31,25.58-13.6,1,2.34,3,4.18,7,4.45,16.47,1.13,28.39-29.35,28.39-29.35l-4.37.76S511.7,230.64,506.79,230.35Zm-200.29,42c1.63,9.83-10.65,16.15-10.65,16.15C289.84,288.6,305.4,265.85,306.5,272.4Zm74.33-11.26C367.41,287.38,353,278.25,365.08,259c10.69-17.1,20.8-11.27,20.8-11.27Zm93.59-38.29c10.68-17.11,20.79-11.28,20.79-11.28l-5,13.42C476.75,251.23,462.38,242.1,474.42,222.85Z" transform="translate(-42.25 -157.29)"/><text class="cls-2" transform="matrix(1.09, -0.36, -0.33, 0.94, 132.48, 111.21)">DESTIN<tspan class="cls-3" x="97.23" y="0">A</tspan><tspan x="111.26" y="0">TION</tspan></text><text class="cls-4" transform="translate(490.42 10.04)">SM</text></svg>