<?xml version="1.0" encoding="utf-8"?>
<!-- Generator: Adobe Illustrator 22.1.0, SVG Export Plug-In . SVG Version: 6.00 Build 0)  -->
<svg version="1.1" id="Layer_1" xmlns="http://www.w3.org/2000/svg" xmlns:xlink="http://www.w3.org/1999/xlink" x="0px" y="0px"
	 viewBox="0 0 1030 140" style="enable-background:new 0 0 1030 140;" xml:space="preserve">
<style type="text/css">
	.st0{fill:#FFFFFF;}
</style>
<g>
	<path class="st0" d="M122.5,81.7c-10.5,18.9-18.7,26.9-36.1,22.7l-11.5,28.5l-10.5-11.1l9.1-22.4c-5.8-2.7-12.2-6.4-17.9-9.3
		c-6.6,12.2-15.8,22.8-31.8,22.8C9.3,112.8,0,103.2,0,91.6c0-13.1,10-23.4,26.5-23.4c7.5,0,14.6,2.1,21.3,5.1l17-42.5
		c-12.7,0-23-4-32.2-4c-11.4,0-14.7,6.2-14.7,11.5c0,6.2,4.7,8.8,9.1,8.8c5.4,0,9.2-3.8,9.2-3.8l6.2,9.3c0,0-5.6,6.2-15.7,6.2
		c-11.3,0-21.1-8.2-21.1-20.6c0-11.1,7.8-23.4,26.5-23.4c13.4,0,27.1,6.4,40.2,3.4c3.9-4,9.1-7,14.9-7l2.7,8.7c0,0-6.5,2.3-10.4,12
		L60.1,79.7c4.8,2.7,11.9,6.7,17.3,9.6l27.2-67.4h15.2L90.5,94.4c9.8,1.7,16-0.1,26.2-16.9C118.8,77.6,121.7,79.7,122.5,81.7z
		 M43.1,84.1C37.5,81.8,31.7,80,26.3,80c-9.2,0-13.6,5.4-13.6,10.9s4.8,9.7,11.3,9.7C31,100.5,37.8,95.4,43.1,84.1z"/>
	<path class="st0" d="M186,81.7c-7.1,12.4-18,20.3-30.4,17.9c-5.9,7.5-13.7,12.9-23.4,12.9c-11,0-18.5-6.7-18.5-19.4
		c0-16,12.4-47.4,35.9-47.4c11,0,18.4,6.5,18.4,19.1c0,7.3-2.6,17.8-7.3,26.9c6.4,0.5,13.4-3.8,19.6-14.2
		C182.4,77.6,185.3,79.7,186,81.7z M143.3,94c-1.5-1.6-2.4-3.6-2.4-5.9c0-4.9,4.2-8.8,9.2-8.3c2.6-6.5,4.2-13.1,4.2-17.1
		c0-5-2.2-7-4.9-7c-10.4,0-21.7,28.9-21.7,39.6c0,4.4,2,7.1,5.1,7.1C136.3,102.4,140,98.9,143.3,94z"/>
	<path class="st0" d="M281.9,81.7c-9.8,17-20.9,30.7-34.1,30.7c-10.8,0-16.7-7.8-7.8-29.6l3.9-9.7c2.2-5.5,4.3-10.5,4.3-12.4
		c0-1.7-1.5-2.7-3.4-2.7c-3.2,0-9.1,2.9-14.3,8.8l-17.8,44h-15.1c1.3-3.4,13.4-33.1,15.2-37.7c2.2-5.5,4.3-10.5,4.3-12.5
		c0-1.6-1.5-2.6-3.3-2.6c-3.2,0-9.1,2.8-14.3,8.8l-17.8,44h-15.1l25.6-63.6h15.1l-2.6,6.4c4.4-4,11.5-8,18-8
		c6.2,0,10.5,3.7,10.4,10.2c5.8-5.9,13.7-10.2,20.5-10.2c6.2,0,10.5,3.4,10.5,9.9c0,3.8-1.5,8.5-3.9,14.6l-7,17.1
		c-5.8,14.3-2.6,15.7-0.6,15.7c5.8,0,15.1-11,23.5-25.5C278.3,77.6,281.2,79.7,281.9,81.7z"/>
	<path class="st0" d="M337.8,81.7c-8.3,14.7-22.5,30.7-43.5,30.7c-14,0-21.2-7-21.2-19.6c0-17.1,13.8-47.2,36.3-47.2
		c12.6,0,20.6,10,13.2,25.7c-5.9,12.6-16.2,17.1-34.2,14.9c0,0-6,16.7,9.6,16.7c12.1,0,25-9.9,34-25.5
		C334.1,77.6,337.1,79.7,337.8,81.7z M291,78.2c11.5,2,15.9-3.9,18.9-10.4c2.9-6.5,2.8-9.9-1.3-9.9C298.3,57.9,291,78.2,291,78.2z"
		/>
	<path class="st0" d="M373.7,81.7c-9.2,16.2-21.3,30.7-35.4,30.7c-11,0-17.4-7.6-8.6-29.5L344,47.2h-10.9l3.2-7.7h10.9l6.6-16.5
		h15.1l-6.6,16.5h10.4l-3.2,7.7h-10.4l-16.2,40.1c-5.6,14-2.8,15.7,0,15.7c6.7,0,16.3-10.7,25-25.5C370,77.6,372.9,79.7,373.7,81.7z
		"/>
	<path class="st0" d="M437.2,81.7c-7.1,12.4-18,20.3-30.4,17.9c-5.9,7.5-13.7,12.9-23.4,12.9c-11,0-18.5-6.7-18.5-19.4
		c0-16,12.4-47.4,35.9-47.4c11,0,18.4,6.5,18.4,19.1c0,7.3-2.6,17.8-7.3,26.9c6.4,0.5,13.4-3.8,19.6-14.2
		C433.6,77.6,436.5,79.7,437.2,81.7z M394.5,94c-1.5-1.6-2.4-3.6-2.4-5.9c0-4.9,4.2-8.8,9.2-8.3c2.6-6.5,4.2-13.1,4.2-17.1
		c0-5-2.2-7-4.9-7c-10.4,0-21.7,28.9-21.7,39.6c0,4.4,2,7.1,5.1,7.1C387.5,102.4,391.2,98.9,394.5,94z"/>
	<path class="st0" d="M528.4,81.7c-8,13.8-20.5,22.2-34.9,16.5c-8.1,9.7-16.9,14.2-24.9,14.2c-6.9,0-12.1-3.2-12.9-10.9
		c-5.4,6.2-11.5,10.9-18.7,10.9c-9.9,0-16.9-7.3-7.8-29.5l14.3-35.6h15.1l-16.2,40.1c-5.4,13.6-2.6,14.2-1.1,14.2
		c6.6,0,14.1-11.1,19.7-21.6l13.1-32.7h15.1L473,87.3c-5.3,13.1-2.8,14.2-0.7,14.2c3.2,0,7.1-2.4,12-8.5c-1-1.3-1.6-3.1-1.6-4.9
		c0-5.3,4.8-9.3,10-8.2c4.2-8.2,8.2-18.9,11.3-32.7l12.2-1.6c-4.2,19.5-10.3,34.5-17.3,45.2c7.2,2.9,16.3-0.7,23.6-13.4
		C524.7,77.6,527.6,79.7,528.4,81.7z"/>
	<path class="st0" d="M593.3,81.7c-9.8,17-21.1,30.7-34,30.7c-11,0-16.5-8.2-7.8-29.6l3.8-9.7c2.4-6,4.3-10.5,4.3-12.4
		c0-1.7-1.5-2.7-3.3-2.7c-3.2,0-9.1,2.8-14.3,8.8l-17.8,44H509l25.6-63.6h15.1l-2.6,6.4c4.4-4,11.4-8,18.1-8c6,0,10.3,3.6,10.3,9.8
		c0,3.6-1.3,8.2-3.9,14.7l-7,17.1c-5.9,14.3-2.7,15.7-0.7,15.7c5.9,0,15.2-11,23.6-25.5C589.6,77.6,592.5,79.7,593.3,81.7z"/>
	<path class="st0" d="M720.8,31.7c-4.8,0-12.2-0.7-18.3-1.6l-22.4,55.4c-9.9,25.4-25.8,30.3-36.6,30.3c-17.6,0-27.3-12.6-27.3-26
		c0-14.3,11.5-26.5,27.8-25.5v12.6c-11-0.9-15.2,7.1-15.2,13.2c0,6.7,5.3,13.1,14.2,13.1c12,0,19.6-10.5,25.8-26.9l19.7-48.9
		c-15.1-3.2-30.3-7-39.2-7c-11,0-14.5,5.5-14.5,10.5c0,5.8,4.4,8.9,9.2,8.9c5.3,0,9.2-3.9,9.2-3.9l6.1,9.3c0,0-5.6,6.2-15.6,6.2
		c-11.4,0-21.1-8.1-21.1-20.7c0-11.1,7.6-23,27.2-23c19,0,50,11.3,70.2,11.3c10.8,0,14.7-3.6,14.7-3.6l7.8,4.3
		C742.7,19.8,741.1,31.7,720.8,31.7z"/>
	<path class="st0" d="M764.9,81.7c-7.1,12.4-18,20.3-30.4,17.9c-5.9,7.5-13.7,12.9-23.4,12.9c-11,0-18.5-6.7-18.5-19.4
		c0-16,12.4-47.4,35.9-47.4c11,0,18.4,6.5,18.4,19.1c0,7.3-2.6,17.8-7.3,26.9c6.4,0.5,13.4-3.8,19.6-14.2
		C761.2,77.6,764.1,79.7,764.9,81.7z M722.1,94c-1.5-1.6-2.4-3.6-2.4-5.9c0-4.9,4.2-8.8,9.2-8.3c2.6-6.5,4.2-13.1,4.2-17.1
		c0-5-2.2-7-4.9-7c-10.4,0-21.7,28.9-21.7,39.6c0,4.4,2,7.1,5.1,7.1C715.1,102.4,718.8,98.9,722.1,94z"/>
	<path class="st0" d="M829.3,81.7c-9.3,16.3-20.9,30.7-33.8,30.7c-6.5,0-11.6-3.2-12.2-10.8c-5.4,6.1-11.4,10.8-18.6,10.8
		c-9.8,0-16.9-7.2-8-29.5l14.5-35.6h15.1L770,87.3c-5,12.2-3.3,14.2-0.9,14.2c6.5,0,14-11.5,19.6-21.9l13-32.3h15.1l-16.2,40.1
		c-5.1,12.9-3.4,15.7-0.5,15.7c5.9,0,14.8-10.9,23.4-25.5C825.6,77.6,828.5,79.7,829.3,81.7z"/>
	<path class="st0" d="M823.5,77.5c3.2-5.5,6.9-13.2,10.4-21.1c-2.2-2.3-3.8-4.8-3.8-7.7c0-5.9,6.1-11.9,11.1-13.5l7.1,4.5L844,50.3
		c4.9,4.7,16.4,10.5,16.4,18.7c0,1.5-0.4,3.6-1.5,6.2l-4.9,12c-5.6,13.8-2.6,15.7-0.7,15.7c4.3,0,10.8-8.8,20.6-25.5
		c2.1,0.1,5,2.2,5.8,4.2c-9.4,16.3-18.7,30.7-31,30.7c-9.7,0-16.9-7.5-8.2-28.8l4.4-10.7c1-2.5,1.1-3.7,1.1-4.2
		c0-2.4-2.6-4.7-6.2-7.7c-3.2,7-6.6,13.8-10.4,20.6C827.2,81.5,824.2,79.5,823.5,77.5z"/>
	<path class="st0" d="M913.4,81.7c-9.7,16.9-20.9,30.7-33.8,30.7c-10.3,0-17-7.5-8.1-29.5l14.3-35.6h15.1l-16.2,40.1
		c-5.4,13.5-3.1,15.7-0.6,15.7c5.8,0,15.1-11,23.5-25.5C909.7,77.6,912.7,79.7,913.4,81.7z M890.9,31.9c0-4.8,3.8-8.6,8.6-8.6
		c4.8,0,8.7,3.8,8.7,8.6c0,4.7-3.9,8.6-8.7,8.6C894.7,40.5,890.9,36.6,890.9,31.9z"/>
	<path class="st0" d="M907.7,77.5c5.3-9.1,13.2-24.3,17.9-34.5l12.5,4.3c-3.9,17.1-1.3,36.9-1.2,44.2c0,3.6-0.4,6.2-1.1,8.7
		c6.6-3.9,13.1-13.1,18.6-22.7c2.1,0.1,5,2.2,5.8,4.2c-8.9,15.8-19.6,30.7-39.7,30.7c-12.2,0-17.6-7.1-18.1-8.3l8.1-5
		c1.8,2.1,3.7,2.8,5.9,2.8c4.5,0,7.1-3.3,7.1-14.9c0-5.9-0.7-14.6-0.5-23c-3.2,6.2-6.6,12.7-9.4,17.8
		C911.3,81.5,908.4,79.5,907.7,77.5z"/>
	<path class="st0" d="M996,81.7c-9.2,16.2-21.3,30.7-35.4,30.7c-11,0-17.4-7.6-8.6-29.5l14.3-35.6h-10.9l3.2-7.7h10.9l6.6-16.5h15.1
		l-6.6,16.5H995l-3.2,7.7h-10.4l-16.2,40.1c-5.6,14-2.8,15.7,0,15.7c6.7,0,16.3-10.7,25-25.5C992.3,77.6,995.2,79.7,996,81.7z"/>
	<path class="st0" d="M995,102.4c0-5.6,4.4-10,10-10c5.5,0,10,4.4,10,10c0,5.6-4.5,10-10,10C999.4,112.4,995,108,995,102.4z
		 M1009.9,65.3c0-5.5,4.5-10,10-10c5.6,0,10,4.5,10,10c0,5.6-4.4,10-10,10C1014.4,75.3,1009.9,70.9,1009.9,65.3z"/>
</g>
</svg>
