<?xml version="1.0" encoding="utf-8"?>
<!-- Generator: Adobe Illustrator 22.1.0, SVG Export Plug-In . SVG Version: 6.00 Build 0)  -->
<svg version="1.1" id="Layer_1" xmlns="http://www.w3.org/2000/svg" xmlns:xlink="http://www.w3.org/1999/xlink" x="0px" y="0px"
	 viewBox="0 0 338 58" style="enable-background:new 0 0 338 58;" xml:space="preserve">
<style type="text/css">
	.st0{enable-background:new    ;}
	.st1{fill:#FFFFFF;}
</style>
<g class="st0">
	<path class="st1" d="M14.7,25.5c8.1,4.1,15.2-2.9,15.2-10.1c0-4.9-3.4-10.2-10.7-10.2C10.1,5.2,5.1,12.8,5.1,18
		c0,2.5,1.2,4.6,1.2,4.6l-4.1,3.1c0,0-2.1-3.2-2.1-7.5C0.1,10,6.9,0.4,19.3,0.4c10.3,0,16.4,6.9,16.4,14.8c0,10.1-9.7,20-22.5,14.1
		L7.5,43.3H1.5L13,14.5c1.4-3.4,4.6-6.7,8.6-6.7l1.1,3.5c0,0-2.6,0.9-4.3,4.8L14.7,25.5z"/>
	<path class="st1" d="M50.8,30.9c-3.9,6.8-8.5,12.4-13.7,12.4c-4.2,0-6.9-3-3.3-11.9l9.7-24.2h6.1l-10.5,26
		c-2.2,5.4-1.2,6.3-0.2,6.3c2.3,0,6.1-4.5,9.5-10.3C49.4,29.2,50.5,30.1,50.8,30.9z"/>
	<path class="st1" d="M77.7,30.9c-3.8,6.7-8.4,12.4-13.8,12.4c-4.7,0-4.9-4-4.9-4s-3.1,4-7.3,4c-3.3,0-5-2.6-5-5.8
		c0-5.3,4.5-21.1,13.3-21.1c4.4,0,5.2,4,5.2,4l7.5-3.4l-6.5,16.2c-2.1,5.2-1.4,6.3-0.2,6.3c2.3,0,6-4.5,9.4-10.3
		C76.3,29.2,77.4,30.1,77.7,30.9z M59.7,34.1l3.8-9.4c0,0,0-3.3-2.4-3.3c-4.4,0-8.5,11.3-8.5,14.9c0,1.3,0.5,2,1.6,2
		C57.1,38.3,59.7,34.1,59.7,34.1z"/>
	<path class="st1" d="M104,30.9c-4,6.9-8.5,12.4-13.8,12.4c-4.5,0-6.7-3.3-3.2-12l1.5-3.9c1-2.4,1.7-4.3,1.7-5
		c0-0.7-0.6-1.1-1.3-1.1c-1.3,0-3.7,1.1-5.8,3.6L76,42.6h-6.1L80.3,17l5,2.6c1.8-1.6,4.6-3.2,7.3-3.2c2.4,0,4.2,1.4,4.2,4
		c0,1.4-0.5,3.3-1.6,5.9l-2.8,6.9c-2.4,5.8-1.1,6.3-0.3,6.3c2.4,0,6.1-4.5,9.5-10.3C102.5,29.2,103.7,30.1,104,30.9z"/>
	<path class="st1" d="M130.2,30.9c-4,6.9-8.5,12.4-13.8,12.4c-4.5,0-6.7-3.3-3.2-12l1.5-3.9c1-2.4,1.7-4.3,1.7-5
		c0-0.7-0.6-1.1-1.3-1.1c-1.3,0-3.7,1.1-5.8,3.6l-7.2,17.8h-6.1L106.5,17l5,2.6c1.8-1.6,4.6-3.2,7.3-3.2c2.4,0,4.2,1.4,4.2,4
		c0,1.4-0.5,3.3-1.6,5.9l-2.8,6.9c-2.4,5.8-1.1,6.3-0.3,6.3c2.4,0,6.1-4.5,9.5-10.3C128.7,29.2,129.9,30.1,130.2,30.9z"/>
	<path class="st1" d="M143.8,30.9c-3.9,6.8-8.5,12.4-13.7,12.4c-4.2,0-6.9-3-3.3-11.9l5.8-14.4h6.1l-6.5,16.2
		c-2.2,5.4-1.2,6.3-0.2,6.3c2.3,0,6.1-4.5,9.5-10.3C142.4,29.2,143.6,30.1,143.8,30.9z M134.7,10.8c0-1.9,1.5-3.5,3.5-3.5
		c1.9,0,3.5,1.5,3.5,3.5c0,1.9-1.6,3.5-3.5,3.5C136.3,14.2,134.7,12.7,134.7,10.8z"/>
	<path class="st1" d="M170.1,30.9c-4,6.9-8.5,12.4-13.8,12.4c-4.5,0-6.7-3.3-3.2-12l1.5-3.9c1-2.4,1.7-4.3,1.7-5
		c0-0.7-0.6-1.1-1.3-1.1c-1.3,0-3.7,1.1-5.8,3.6l-7.2,17.8H136L146.4,17l5,2.6c1.8-1.6,4.6-3.2,7.3-3.2c2.4,0,4.2,1.4,4.2,4
		c0,1.4-0.5,3.3-1.6,5.9l-2.8,6.9c-2.4,5.8-1.1,6.3-0.3,6.3c2.4,0,6.1-4.5,9.5-10.3C168.6,29.2,169.8,30.1,170.1,30.9z"/>
	<path class="st1" d="M196.5,30.9c-5.1,8.9-11,11.9-16,14.2c0,0-0.7,1.7-1.3,3.3c-2,4.7-4.6,9.2-9.8,9.2c-3.6,0-5.5-2.2-5.4-5
		c0.1-3.1,2.9-5.2,5.5-6.4c1.7-0.8,4.6-2,5.7-2.6l1.4-3.6c0,0-2.2,3.4-5.6,3.4c-3.2,0-4.9-2.7-4.9-5.9c0-5.4,4.7-21.1,13.1-21.1
		c3,0,5,2,5.4,4l7.5-3.4l-9.8,24.1c4.6-2.4,8.5-5.7,12-11.9C195,29.2,196.2,30.1,196.5,30.9z M168.5,53.6c1.3,0,3.2-1.4,4.9-6
		c-1.4,0.7-2.7,1.1-4.1,2c-1.1,0.7-2.3,1.6-2.3,2.8C167.1,53.1,167.7,53.6,168.5,53.6z M178.9,34.1l3.8-9.4c0,0,0-3.3-2.4-3.3
		c-4.4,0-8.5,11.3-8.5,14.9c0,1.3,0.5,2,1.6,2C176.3,38.3,178.9,34.1,178.9,34.1z"/>
	<path class="st1" d="M248,10.7c-1.9,0-4.9-0.3-7.4-0.6l-9.1,22.4c-4,10.2-10.4,12.2-14.8,12.2c-7.1,0-11-5.1-11-10.5
		c0-5.8,4.6-10.7,11.2-10.3v5.1c-4.5-0.3-6.1,2.9-6.1,5.3c0,2.7,2.1,5.3,5.7,5.3c4.8,0,7.9-4.3,10.4-10.9l8-19.7
		c-6.1-1.3-12.2-2.8-15.8-2.8c-4.5,0-5.8,2.2-5.8,4.3c0,2.3,1.8,3.6,3.7,3.6c2.1,0,3.7-1.6,3.7-1.6l2.5,3.8c0,0-2.3,2.5-6.3,2.5
		c-4.6,0-8.5-3.3-8.5-8.4c0-4.5,3.1-9.3,11-9.3c7.7,0,20.2,4.6,28.3,4.6c4.4,0,5.9-1.4,5.9-1.4l3.2,1.7
		C256.8,5.9,256.2,10.7,248,10.7z"/>
	<path class="st1" d="M265.8,30.9c-2.9,5-7.3,8.2-12.3,7.2c-2.4,3-5.5,5.2-9.4,5.2c-4.5,0-7.5-2.7-7.5-7.8c0-6.5,5-19.1,14.5-19.1
		c4.5,0,7.4,2.6,7.4,7.7c0,3-1,7.2-3,10.9c2.6,0.2,5.4-1.5,7.9-5.7C264.3,29.2,265.5,30.1,265.8,30.9z M248.5,35.9
		c-0.6-0.6-1-1.4-1-2.4c0-2,1.7-3.6,3.7-3.4c1-2.6,1.7-5.3,1.7-6.9c0-2-0.9-2.8-2-2.8c-4.2,0-8.8,11.7-8.8,16c0,1.8,0.8,2.9,2.1,2.9
		C245.7,39.2,247.2,37.8,248.5,35.9z"/>
	<path class="st1" d="M291.5,30.9c-2.9,5-7.3,8.2-12.3,7.2c-2.4,3-5.5,5.2-9.4,5.2c-4.5,0-7.5-2.7-7.5-7.8c0-6.5,5-19.1,14.5-19.1
		c4.5,0,7.4,2.6,7.4,7.7c0,3-1,7.2-3,10.9c2.6,0.2,5.4-1.5,7.9-5.7C290,29.2,291.2,30.1,291.5,30.9z M274.2,35.9
		c-0.6-0.6-1-1.4-1-2.4c0-2,1.7-3.6,3.7-3.4c1-2.6,1.7-5.3,1.7-6.9c0-2-0.9-2.8-2-2.8c-4.2,0-8.8,11.7-8.8,16c0,1.8,0.8,2.9,2.1,2.9
		C271.4,39.2,272.9,37.8,274.2,35.9z"/>
	<path class="st1" d="M305.1,30.9c-3.9,6.8-8.5,12.4-13.7,12.4c-4.2,0-6.9-3-3.3-11.9L298,7.2h6.1l-10.5,26
		c-2.2,5.4-1.2,6.3-0.2,6.3c2.3,0,6.1-4.5,9.5-10.3C303.7,29.2,304.8,30.1,305.1,30.9z"/>
	<path class="st1" d="M302.8,29.2c2.1-3.7,5.3-9.8,7.2-14l5,1.7c-1.6,6.9-0.5,14.9-0.5,17.9c0,1.4-0.1,2.5-0.4,3.5
		c2.7-1.6,5.3-5.3,7.5-9.2c0.8,0,2,0.9,2.3,1.7c-3.6,6.4-7.9,12.4-16,12.4c-4.9,0-7.1-2.9-7.3-3.4l3.3-2c0.7,0.8,1.5,1.1,2.4,1.1
		c1.8,0,2.9-1.3,2.9-6c0-2.4-0.3-5.9-0.2-9.3c-1.3,2.5-2.7,5.1-3.8,7.2C304.3,30.8,303.1,30,302.8,29.2z"/>
	<path class="st1" d="M323.6,39.2c0-2.3,1.8-4.1,4.1-4.1c2.2,0,4.1,1.8,4.1,4.1c0,2.3-1.8,4.1-4.1,4.1
		C325.4,43.3,323.6,41.5,323.6,39.2z M329.6,24.2c0-2.2,1.8-4.1,4.1-4.1c2.3,0,4.1,1.8,4.1,4.1c0,2.3-1.8,4.1-4.1,4.1
		C331.5,28.3,329.6,26.5,329.6,24.2z"/>
</g>
</svg>
