<?xml version="1.0" encoding="utf-8"?>
<!-- Generator: Adobe Illustrator 22.1.0, SVG Export Plug-In . SVG Version: 6.00 Build 0)  -->
<svg version="1.1" id="Layer_1" xmlns="http://www.w3.org/2000/svg" xmlns:xlink="http://www.w3.org/1999/xlink" x="0px" y="0px"
	 viewBox="0 0 290.2 44.3" style="enable-background:new 0 0 290.2 44.3;" xml:space="preserve">
<style type="text/css">
	.st0{fill:#FFFFFF;}
</style>
<title>Asset 2</title>
<path class="st0" d="M68,11.8c1.6,0,2.8-1.3,2.8-2.8S69.6,6.1,68,6.1S65.2,7.4,65.2,9S66.4,11.8,68,11.8z"/>
<path class="st0" d="M94.7,11.8c1.6,0,2.8-1.3,2.8-2.8s-1.3-2.8-2.8-2.8S91.8,7.4,91.8,9S93.1,11.8,94.7,11.8L94.7,11.8z"/>
<path class="st0" d="M55.6,1.9c-0.6,6.5-3.1,19-15.4,28L46.7,0l-4.7,1.8C35,4.6,24.7,6.5,24.7,14.5c-0.1,3.8,2.9,7,6.8,7.1
	c0.2,0,0.4,0,0.6,0v-4.1c-1.7,0.1-3.1-1.2-3.1-2.9c0-0.1,0-0.2,0-0.3c0-4.5,7.2-6.1,11.7-7.9l-6.5,29.2H39
	C57.8,24.9,59.7,7.8,60.2,1.2L55.6,1.9z M103.5,29.4c-1.7,1.9-3.3,3.1-4.6,3.1c-0.9,0-1.9-0.6,0-5.2l5.4-13.3h3.4l1-2.6h-3.4
	l2.2-5.5h-5l-2.2,5.5h-3.6L95.7,14h3.6l-4.1,10.3c-2.8,4.6-5.8,8.2-7.6,8.2c-0.8,0-1.6-0.7,0.2-5.2L93.1,14h-5L84,24.4
	c-1.8,3.1-3.9,6-6,7.2c0.3-0.9,0.4-1.9,0.4-2.9c0-2.4-0.9-9,0.4-14.6L74,14c-1.6,3.3-3.8,7.5-5.3,10.1c-2.8,4.8-5.9,8.4-7.8,8.4
	c-0.8,0-1.6-0.7,0.2-5.2L66.5,14h-5l-4.7,11.8c-3,7.3-0.7,9.8,2.7,9.8c4.3,0,8-4.6,11.2-10.2c0.9-1.7,2.1-3.8,3.1-5.9
	c-0.1,2.8,0.2,5.7,0.2,7.6c0,3.9-0.8,5-2.3,5c-0.8,0-1.5-0.3-2-0.9l-2.7,1.7c0.2,0.4,1.9,2.8,6,2.8c3.5,0,6.9-1.6,9.1-4.3
	c-0.1,3.1,1.7,4.3,4.1,4.3c2.6,0,5-1.7,7.2-4.2c-0.1,3.1,1.7,4.2,4.2,4.2c1.7,0,3.4-0.6,4.8-1.6C104.8,32.1,104.8,28,103.5,29.4z"/>
<path class="st0" d="M144.3,35l8.6-21.5c0.8-1.8,1.4-3.7,1.5-5.6c0.1-1.9-1.4-3.6-3.3-3.7c-0.2,0-0.3,0-0.5,0
	c-3,0.3-5.7,1.7-7.6,3.9c0.1-2-1.3-3.7-3.3-3.8c-0.2,0-0.4,0-0.5,0c-2.4,0.2-4.8,1.2-6.6,2.8L129,3.8c-7.8,3.4-19,5-19,13.4
	c-0.1,3.8,2.9,7,6.8,7.1c0.2,0,0.4,0,0.5,0v-4.1c-1.7,0.1-3-1.2-3.1-2.9c0-0.1,0-0.2,0-0.3c0-4.6,7.3-6.1,12.8-8.3l-10.8,27h5
	l9.3-23.3c2-2.1,4.5-3.6,6-3.6c1,0,1.2,0.5,1.2,1.1c0,0.9-0.9,2.9-1.8,5.2l-8.3,20.5h5l9.3-23.1c2-2.2,4.6-3.7,6-3.7
	c0.9,0,1.2,0.5,1.2,1.1c0,0.9-0.9,2.9-1.8,5.2l-7.6,18.8c-1.7,4.6-0.6,8.3,4.4,10.4l1.6-4.1C143.5,38.9,143.4,37.4,144.3,35z
	 M165.8,30.2c-1.7,1.4-3.9,2.2-6.1,2.3c-5.2,0-3.2-5.5-3.2-5.5c6,0.7,9.4-0.8,11.3-5c2.4-5.2-0.2-8.5-4.4-8.5c-7.4,0-12,10-12,15.6
	c0,4.2,2.4,6.5,7,6.5c2.7,0,5.4-0.8,7.7-2.4C169.1,31.2,167.8,28.7,165.8,30.2z M163.3,17.6c1.4,0,1.4,1.1,0.4,3.3s-2.4,4.1-6.3,3.5
	C157.4,24.3,159.9,17.6,163.3,17.6z"/>
<path class="st0" d="M212.7,4.8c0-0.5,0.2-1,0.5-1.3l2.9-2.9c0.4-0.3,0.8-0.5,1.3-0.6h13.2c0.5,0,1,0.2,1.4,0.6l2.9,2.9
	c0.4,0.3,0.6,0.8,0.6,1.3l0,0c0,0,0,0.1,0,0.1v5.4c0,0.4-0.3,0.7-0.7,0.7h-6.1c-0.4,0-0.7-0.3-0.7-0.7V8.9c0-0.1-0.1-0.3-0.1-0.4
	l-0.9-0.9c-0.1-0.1-0.2-0.2-0.4-0.2h-5c-0.1,0-0.3,0.1-0.4,0.2l-0.8,0.9c-0.1,0.1-0.2,0.2-0.2,0.4v18.3c0.1,0.1,0.1,0.3,0.2,0.4
	l0.7,0.7h6l0.7-0.7c0.1-0.1,0.1-0.2,0.1-0.4v-1.5c0-0.4,0.3-0.7,0.7-0.7h6.1c0.4,0,0.7,0.3,0.7,0.7v5.8c0,0.3,0,0.4-0.6,0.9
	l-2.8,2.9c-0.4,0.3-0.8,0.5-1.3,0.6h-13.3c-0.5,0-1-0.2-1.3-0.6l-2.9-2.9c-0.3-0.4-0.5-0.8-0.5-1.3V4.8z"/>
<path class="st0" d="M262.8,29v6.1c0,0.4-0.4,0.7-0.8,0.7c0,0,0,0,0,0h-20.4c-0.4,0-0.8-0.3-0.8-0.7V0.8h0.1
	c0.1-0.3,0.4-0.6,0.7-0.6h6c0.3,0,0.6,0.2,0.7,0.6v27.5H262C262.4,28.3,262.8,28.6,262.8,29z"/>
<path class="st0" d="M275.4,14.2h9c0.4,0,0.7,0.3,0.7,0.7c0,0,0,0,0,0V21c0,0.4-0.3,0.7-0.7,0.7c0,0,0,0,0,0h-9v6.6h11.8
	c0.4,0,0.7,0.3,0.8,0.7v6.1c0,0.4-0.3,0.7-0.7,0.7h-18.7c-0.4,0-0.7-0.3-0.7-0.7c0,0,0,0,0,0V0.8c0-0.4,0.3-0.7,0.7-0.7c0,0,0,0,0,0
	h18.6c0.4,0,0.7,0.3,0.7,0.7v6.1c0,0.4-0.3,0.7-0.7,0.7h-11.8V14.2z"/>
<path class="st0" d="M187.7,24.9c-3.3,5.7-7.1,10.3-11.5,10.3c-3.5,0-5.8-2.5-2.8-9.9l4.9-11.9h5.1L178,26.8
	c-1.8,4.5-1.1,5.3-0.2,5.3c2,0,5.1-3.7,8-8.5C186.6,23.7,187.3,24.2,187.7,24.9z M180.1,8.3c0-1.6,1.3-2.9,2.9-2.9c0,0,0.1,0,0.1,0
	c1.6,0,3,1.2,3,2.8c0,0,0,0,0,0c-0.1,1.6-1.4,2.9-3,2.9C181.4,11.2,180.1,9.9,180.1,8.3C180.1,8.3,180.1,8.3,180.1,8.3z M209.8,24.9
	c-3.3,5.7-7.2,10.3-11.6,10.3c-3.8,0-5.6-2.8-2.7-9.9l1.3-3.2c0.6-1.3,1.1-2.7,1.5-4.1c0-0.6-0.5-0.9-1.1-0.9c-1.1,0-3.1,0.9-4.9,3
	l-6.1,14.7h-5.1l8.7-21.3h5.2l-0.9,2.1c1.7-1.6,3.9-2.5,6.2-2.7c1.7-0.2,3.3,1.1,3.5,2.8c0,0.1,0,0.3,0,0.4
	c-0.1,1.7-0.6,3.4-1.3,4.9l-2.4,5.8c-2,4.8-0.9,5.3-0.3,5.3c2,0,5.2-3.7,8.1-8.5C208.7,23.7,209.4,24.2,209.8,24.9z"/>
<path class="st0" d="M18.3,19.2l-2.4,5.9h4.2L19,27.7h-4.1l-2.1,5.2H9.6l2.1-5.2H7.3l-2.1,5.2H2l2.1-5.2H0l1.1-2.6h4.1l2.4-5.9H3.5
	l1.1-2.6h4.1l2.1-5.2H14l-2.1,5.2h4.4l2.1-5.2h3.2l-2.2,5.2h4.1l-1,2.6H18.3z M15.2,19.2h-4.4l-2.4,5.9h4.4L15.2,19.2z"/>
</svg>
