<?xml version="1.0" encoding="utf-8"?>
<!-- Generator: Adobe Illustrator 22.1.0, SVG Export Plug-In . SVG Version: 6.00 Build 0)  -->
<svg version="1.1" id="Layer_1" xmlns="http://www.w3.org/2000/svg" xmlns:xlink="http://www.w3.org/1999/xlink" x="0px" y="0px"
	 viewBox="0 0 269.3 44.3" style="enable-background:new 0 0 269.3 44.3;" xml:space="preserve">
<style type="text/css">
	.st0{fill:#FFFFFF;}
</style>
<title>Asset 1</title>
<g>
	<path class="st0" d="M32.3,1.9c-0.6,6.5-3.1,19-15.4,28L23.4,0l-4.7,1.8c-7,2.8-17.3,4.7-17.3,12.7c-0.1,3.8,2.9,7,6.8,7.1
		c0.2,0,0.4,0,0.6,0v-4.1c-1.7,0.1-3.1-1.2-3.1-2.9c0-0.1,0-0.2,0-0.3c0-4.5,7.2-6.1,11.7-7.9l-6.5,29.2h4.8
		C34.5,24.9,36.4,7.8,36.9,1.2L32.3,1.9z"/>
	<path class="st0" d="M42.7,11.8c1.6,0,2.8-1.3,2.8-2.8s-1.2-2.9-2.8-2.9S39.9,7.4,39.9,9S41.1,11.8,42.7,11.8z"/>
	<path class="st0" d="M69.4,11.8c1.6,0,2.8-1.3,2.8-2.8s-1.3-2.8-2.8-2.8S66.5,7.4,66.5,9S67.8,11.8,69.4,11.8L69.4,11.8z"/>
	<path class="st0" d="M80.2,29.4c-1.7,1.9-3.3,3.1-4.6,3.1c-0.9,0-1.9-0.6,0-5.2L81,14h3.4l1-2.6H82l2.2-5.5h-5L77,11.4h-3.6l-1,2.6
		H76l-4.1,10.3c-2.8,4.6-5.8,8.2-7.6,8.2c-0.8,0-1.6-0.7,0.2-5.2L69.8,14h-5l-4.1,10.4c-1.8,3.1-3.9,6-6,7.2
		c0.3-0.9,0.4-1.9,0.4-2.9c0-2.4-0.9-9,0.4-14.6L50.7,14c-1.6,3.3-3.8,7.5-5.3,10.1c-2.8,4.8-5.9,8.4-7.8,8.4
		c-0.8,0-1.6-0.7,0.2-5.2L43.2,14h-5l-4.7,11.8c-3,7.3-0.7,9.8,2.7,9.8c4.3,0,8-4.6,11.2-10.2c0.9-1.7,2.1-3.8,3.1-5.9
		c-0.1,2.8,0.2,5.7,0.2,7.6c0,3.9-0.8,5-2.3,5c-0.8,0-1.5-0.3-2-0.9l-2.7,1.7c0.2,0.4,1.9,2.8,6,2.8c3.5,0,6.9-1.6,9.1-4.3
		c-0.1,3.1,1.7,4.3,4.1,4.3c2.6,0,5-1.7,7.2-4.2c-0.1,3.1,1.7,4.2,4.2,4.2c1.7,0,3.4-0.6,4.8-1.6C81.5,32.1,81.5,28,80.2,29.4z"/>
	<path class="st0" d="M119.8,35l8.6-21.5c0.8-1.8,1.4-3.7,1.5-5.6s-1.4-3.6-3.3-3.7c-0.2,0-0.3,0-0.5,0c-3,0.3-5.7,1.7-7.6,3.9
		c0.1-2-1.3-3.7-3.3-3.8c-0.2,0-0.4,0-0.5,0c-2.4,0.2-4.8,1.2-6.6,2.8l-3.6-3.2c-7.8,3.4-19,5-19,13.4c-0.1,3.8,2.9,7,6.8,7.1
		c0.2,0,0.4,0,0.5,0v-4.1c-1.7,0.1-3-1.2-3.1-2.9c0-0.1,0-0.2,0-0.3c0-4.6,7.3-6.1,12.8-8.3l-10.8,27h5l9.3-23.3
		c2-2.1,4.5-3.6,6-3.6c1,0,1.2,0.5,1.2,1.1c0,0.9-0.9,2.9-1.8,5.2l-8.3,20.5h5l9.3-23.1c2-2.2,4.6-3.7,6-3.7c0.9,0,1.2,0.5,1.2,1.1
		c0,0.9-0.9,2.9-1.8,5.2L115.2,34c-1.7,4.6-0.6,8.3,4.4,10.4l1.6-4.1C119,38.9,118.9,37.4,119.8,35z"/>
	<path class="st0" d="M139.3,30.2c-1.7,1.4-3.9,2.2-6.1,2.3c-5.2,0-3.2-5.5-3.2-5.5c6,0.7,9.4-0.8,11.3-5c2.4-5.2-0.2-8.5-4.4-8.5
		c-7.4,0-12,10-12,15.6c0,4.2,2.4,6.5,7,6.5c2.7,0,5.4-0.8,7.7-2.4C142.6,31.2,141.3,28.7,139.3,30.2z M136.8,17.6
		c1.4,0,1.4,1.1,0.4,3.3s-2.4,4.1-6.3,3.5C130.9,24.3,133.4,17.6,136.8,17.6z"/>
	<path class="st0" d="M188.4,4.8c0-0.5,0.2-1,0.5-1.3l2.9-2.9c0.4-0.3,0.8-0.5,1.3-0.6h13.2c0.5,0,1,0.2,1.4,0.6l2.9,2.9
		c0.4,0.3,0.6,0.8,0.6,1.3l0,0v0.1v5.4c0,0.4-0.3,0.7-0.7,0.7h-6.1c-0.4,0-0.7-0.3-0.7-0.7V8.9c0-0.1-0.1-0.3-0.1-0.4l-0.9-0.9
		c-0.1-0.1-0.2-0.2-0.4-0.2h-5c-0.1,0-0.3,0.1-0.4,0.2l-0.8,0.9c-0.1,0.1-0.2,0.2-0.2,0.4v18.3c0.1,0.1,0.1,0.3,0.2,0.4l0.7,0.7h6
		l0.7-0.7c0.1-0.1,0.1-0.2,0.1-0.4v-1.5c0-0.4,0.3-0.7,0.7-0.7h6.1c0.4,0,0.7,0.3,0.7,0.7v5.8c0,0.3,0,0.4-0.6,0.9l-2.8,2.9
		c-0.4,0.3-0.8,0.5-1.3,0.6h-13.3c-0.5,0-1-0.2-1.3-0.6l-2.9-2.9c-0.3-0.4-0.5-0.8-0.5-1.3L188.4,4.8L188.4,4.8z"/>
	<path class="st0" d="M240.5,29v6.1c0,0.4-0.4,0.7-0.8,0.7l0,0h-20.4c-0.4,0-0.8-0.3-0.8-0.7V0.8h0.1c0.1-0.3,0.4-0.6,0.7-0.6h6
		c0.3,0,0.6,0.2,0.7,0.6v27.5h13.7C240.1,28.3,240.5,28.6,240.5,29z"/>
	<path class="st0" d="M255.1,14.2h9c0.4,0,0.7,0.3,0.7,0.7l0,0V21c0,0.4-0.3,0.7-0.7,0.7l0,0h-9v6.6h11.8c0.4,0,0.7,0.3,0.8,0.7v6.1
		c0,0.4-0.3,0.7-0.7,0.7h-18.7c-0.4,0-0.7-0.3-0.7-0.7l0,0V0.8c0-0.4,0.3-0.7,0.7-0.7l0,0h18.6c0.4,0,0.7,0.3,0.7,0.7v6.1
		c0,0.4-0.3,0.7-0.7,0.7h-11.8L255.1,14.2L255.1,14.2z"/>
	<path class="st0" d="M161.2,24.9c-3.3,5.7-7.1,10.3-11.5,10.3c-3.5,0-5.8-2.5-2.8-9.9l4.9-11.9h5.1l-5.5,13.4
		c-1.8,4.5-1.1,5.3-0.2,5.3c2,0,5.1-3.7,8-8.5C160.1,23.7,160.8,24.2,161.2,24.9z M153.6,8.3c0-1.6,1.3-2.9,2.9-2.9h0.1
		c1.6,0,3,1.2,3,2.8l0,0c-0.1,1.6-1.4,2.9-3,2.9C154.9,11.2,153.6,9.9,153.6,8.3L153.6,8.3z"/>
	<path class="st0" d="M183.3,24.9c-3.3,5.7-7.2,10.3-11.6,10.3c-3.8,0-5.6-2.8-2.7-9.9l1.3-3.2c0.6-1.3,1.1-2.7,1.5-4.1
		c0-0.6-0.5-0.9-1.1-0.9c-1.1,0-3.1,0.9-4.9,3l-6.1,14.7h-5.1l8.7-21.3h5.2l-0.9,2.1c1.7-1.6,3.9-2.5,6.2-2.7
		c1.7-0.2,3.3,1.1,3.5,2.8c0,0.1,0,0.3,0,0.4c-0.1,1.7-0.6,3.4-1.3,4.9l-2.4,5.8c-2,4.8-0.9,5.3-0.3,5.3c2,0,5.2-3.7,8.1-8.5
		C182.2,23.7,182.9,24.2,183.3,24.9z"/>
</g>
</svg>
